<svg xmlns="http://www.w3.org/2000/svg" xmlns:xlink="http://www.w3.org/1999/xlink" width="500" zoomAndPan="magnify" viewBox="0 0 375 374.999991" height="500" preserveAspectRatio="xMidYMid meet" version="1.0"><defs><clipPath id="dd21ad58a4"><path d="M 121 235 L 149 235 L 149 262.5 L 121 262.5 Z M 121 235 " clip-rule="nonzero"/></clipPath><clipPath id="fd5e556afc"><path d="M 113 252 L 123 252 L 123 262.5 L 113 262.5 Z M 113 252 " clip-rule="nonzero"/></clipPath><clipPath id="c711e87d0d"><path d="M 217 112.5 L 262 112.5 L 262 149 L 217 149 Z M 217 112.5 " clip-rule="nonzero"/></clipPath></defs><rect x="-37.5" width="450" fill="#ffffff" y="-37.499999" height="449.999989" fill-opacity="1"/><rect x="-37.5" width="450" fill="#eba4ad" y="-37.499999" height="449.999989" fill-opacity="1"/><path fill="#ffffff" d="M 162.867188 215.988281 C 156.796875 222.125 150.597656 228.167969 144.675781 234.445312 C 144.5625 234.5625 144.738281 234.742188 144.855469 234.625 C 151.023438 228.585938 156.949219 222.277344 162.972656 216.09375 C 163.042969 216.023438 162.9375 215.917969 162.867188 215.988281 " fill-opacity="1" fill-rule="nonzero"/><path fill="#ffffff" d="M 154.066406 222.984375 C 150.828125 226.113281 147.632812 229.289062 144.554688 232.574219 C 144.4375 232.699219 144.621094 232.882812 144.742188 232.761719 C 147.863281 229.515625 150.996094 226.285156 154.214844 223.132812 C 154.3125 223.035156 154.164062 222.890625 154.066406 222.984375 " fill-opacity="1" fill-rule="nonzero"/><path fill="#ffffff" d="M 148.25 226.644531 C 146.34375 228.53125 144.4375 230.414062 142.542969 232.3125 C 142.449219 232.40625 142.59375 232.550781 142.6875 232.457031 C 144.585938 230.5625 146.46875 228.65625 148.355469 226.75 C 148.425781 226.679688 148.316406 226.574219 148.25 226.644531 " fill-opacity="1" fill-rule="nonzero"/><path fill="#ffffff" d="M 130.535156 250.386719 C 127.144531 253.730469 123.554688 257.023438 120.464844 260.648438 C 120.347656 260.789062 120.53125 260.980469 120.667969 260.851562 C 124.152344 257.582031 127.34375 253.957031 130.730469 250.578125 C 130.855469 250.453125 130.664062 250.261719 130.535156 250.386719 " fill-opacity="1" fill-rule="nonzero"/><path fill="#ffffff" d="M 125.402344 253.121094 C 123.296875 255.605469 120.957031 257.878906 118.6875 260.210938 C 118.566406 260.339844 118.75 260.519531 118.878906 260.402344 C 121.265625 258.21875 123.527344 255.800781 125.609375 253.328125 C 125.730469 253.183594 125.523438 252.976562 125.402344 253.121094 " fill-opacity="1" fill-rule="nonzero"/><path fill="#ffffff" d="M 122.289062 253.875 C 120.78125 255.726562 118.992188 257.488281 117.164062 259.027344 C 116.992188 259.175781 117.238281 259.421875 117.414062 259.277344 C 119.246094 257.753906 121.015625 255.949219 122.496094 254.082031 C 122.609375 253.933594 122.410156 253.726562 122.289062 253.875 " fill-opacity="1" fill-rule="nonzero"/><path fill="#ffffff" d="M 224.589844 200.992188 C 223.257812 205.585938 221.621094 210.128906 220.429688 214.757812 C 220.382812 214.941406 220.644531 215.003906 220.707031 214.835938 C 222.398438 210.378906 223.554688 205.648438 224.851562 201.066406 C 224.902344 200.894531 224.636719 200.824219 224.589844 200.992188 " fill-opacity="1" fill-rule="nonzero"/><path fill="#ffffff" d="M 224.644531 206.800781 C 223.484375 209.820312 222.453125 212.964844 221.6875 216.109375 C 221.644531 216.277344 221.894531 216.347656 221.945312 216.183594 C 222.898438 213.070312 223.765625 209.925781 224.925781 206.882812 C 224.996094 206.703125 224.710938 206.628906 224.644531 206.800781 " fill-opacity="1" fill-rule="nonzero"/><path fill="#ffffff" d="M 225.484375 209.894531 C 224.5625 212.101562 223.839844 214.507812 223.378906 216.855469 C 223.335938 217.074219 223.671875 217.167969 223.71875 216.945312 C 224.195312 214.597656 224.871094 212.195312 225.769531 209.972656 C 225.835938 209.796875 225.558594 209.722656 225.484375 209.894531 " fill-opacity="1" fill-rule="nonzero"/><path fill="#ffffff" d="M 142.171875 235.367188 C 143.296875 236.488281 144.648438 237.710938 146.363281 237.390625 C 146.511719 237.363281 146.480469 237.109375 146.328125 237.121094 C 144.65625 237.269531 143.453125 236.316406 142.261719 235.277344 C 142.199219 235.226562 142.113281 235.3125 142.171875 235.367188 " fill-opacity="1" fill-rule="nonzero"/><path fill="#ffffff" d="M 218.898438 159.199219 C 218.324219 160.21875 217.878906 161.40625 217.503906 162.511719 C 217.449219 162.675781 217.714844 162.792969 217.785156 162.632812 C 218.269531 161.5625 218.757812 160.394531 219.039062 159.257812 C 219.058594 159.175781 218.941406 159.121094 218.898438 159.199219 " fill-opacity="1" fill-rule="nonzero"/><path fill="#ffffff" d="M 217.601562 159.746094 C 217.167969 160.347656 216.738281 160.996094 216.40625 161.65625 C 216.347656 161.765625 216.503906 161.855469 216.574219 161.753906 C 217 161.148438 217.367188 160.460938 217.695312 159.800781 C 217.726562 159.738281 217.640625 159.6875 217.601562 159.746094 " fill-opacity="1" fill-rule="nonzero"/><path fill="#ffffff" d="M 212.53125 163.601562 C 213.773438 164.828125 215.746094 165.5 217.476562 165.273438 C 217.613281 165.253906 217.621094 165.058594 217.476562 165.054688 C 215.601562 164.972656 214.191406 164.507812 212.636719 163.464844 C 212.554688 163.410156 212.464844 163.53125 212.53125 163.601562 " fill-opacity="1" fill-rule="nonzero"/><path fill="#ffffff" d="M 239.324219 179.515625 C 239.199219 180.261719 238.976562 180.96875 238.730469 181.679688 C 238.675781 181.832031 238.90625 181.886719 238.964844 181.746094 C 239.253906 181.042969 239.394531 180.289062 239.476562 179.539062 C 239.488281 179.453125 239.339844 179.429688 239.324219 179.515625 " fill-opacity="1" fill-rule="nonzero"/><path fill="#ffffff" d="M 238.5625 179.503906 C 238.394531 180.179688 238.101562 180.796875 237.898438 181.457031 C 237.855469 181.597656 238.0625 181.6875 238.136719 181.558594 C 238.472656 180.964844 238.628906 180.222656 238.761719 179.558594 C 238.789062 179.425781 238.59375 179.371094 238.5625 179.503906 " fill-opacity="1" fill-rule="nonzero"/><path fill="#ffffff" d="M 237.441406 179.769531 C 237.359375 180.429688 237.152344 181.046875 236.882812 181.652344 C 236.824219 181.78125 237.007812 181.890625 237.070312 181.765625 C 237.390625 181.140625 237.550781 180.464844 237.605469 179.769531 C 237.613281 179.660156 237.453125 179.667969 237.441406 179.769531 " fill-opacity="1" fill-rule="nonzero"/><path fill="#ffffff" d="M 236.199219 179.59375 C 236.042969 180.160156 235.882812 180.730469 235.726562 181.296875 C 235.699219 181.398438 235.859375 181.441406 235.886719 181.339844 C 236.027344 180.769531 236.171875 180.195312 236.316406 179.621094 C 236.332031 179.550781 236.21875 179.519531 236.199219 179.59375 " fill-opacity="1" fill-rule="nonzero"/><path fill="#ffffff" d="M 235.183594 178.867188 C 234.867188 179.492188 234.625 180.140625 234.488281 180.832031 C 234.460938 180.96875 234.671875 181.027344 234.699219 180.886719 C 234.832031 180.214844 235.03125 179.566406 235.316406 178.941406 C 235.355469 178.855469 235.230469 178.78125 235.183594 178.867188 " fill-opacity="1" fill-rule="nonzero"/><path fill="#ffffff" d="M 233.992188 178.4375 C 233.855469 179.082031 233.691406 179.730469 233.617188 180.386719 C 233.601562 180.5 233.785156 180.519531 233.808594 180.414062 C 233.960938 179.777344 234.023438 179.117188 234.113281 178.46875 C 234.125 178.390625 234.007812 178.355469 233.992188 178.4375 " fill-opacity="1" fill-rule="nonzero"/><path fill="#ffffff" d="M 232.875 178.507812 C 232.675781 178.996094 232.480469 179.480469 232.304688 179.976562 C 232.257812 180.109375 232.460938 180.160156 232.511719 180.035156 C 232.695312 179.542969 232.859375 179.046875 233.023438 178.550781 C 233.054688 178.453125 232.910156 178.417969 232.875 178.507812 " fill-opacity="1" fill-rule="nonzero"/><path fill="#ffffff" d="M 138.648438 231.921875 C 132.03125 238.089844 125.921875 244.847656 119.703125 251.40625 C 118.804688 252.351562 117.898438 253.289062 116.992188 254.226562 C 116.761719 254.464844 117.125 254.824219 117.351562 254.589844 C 123.652344 248.078125 130.085938 241.703125 136.277344 235.085938 C 137.167969 234.132812 138.078125 233.195312 138.9375 232.214844 C 139.109375 232.015625 138.84375 231.742188 138.648438 231.921875 " fill-opacity="1" fill-rule="nonzero"/><path fill="#ffffff" d="M 236.730469 184.953125 C 233.625 193.449219 231.238281 202.242188 228.65625 210.90625 C 228.285156 212.15625 227.902344 213.402344 227.515625 214.648438 C 227.417969 214.964844 227.914062 215.097656 228.007812 214.785156 C 230.679688 206.128906 233.527344 197.53125 236.058594 188.824219 C 236.417969 187.574219 236.804688 186.328125 237.125 185.0625 C 237.191406 184.804688 236.820312 184.710938 236.730469 184.953125 " fill-opacity="1" fill-rule="nonzero"/><path fill="#ffffff" d="M 209.847656 160.253906 C 202.378906 167.550781 195.074219 175.015625 187.714844 182.421875 C 175.972656 194.230469 164.339844 206.148438 152.644531 218 C 149.949219 220.730469 147.257812 223.464844 144.558594 226.191406 C 144.328125 226.425781 144.6875 226.789062 144.921875 226.554688 C 152.261719 219.128906 159.660156 211.765625 167.03125 204.367188 C 178.789062 192.574219 190.460938 180.691406 202.105469 168.789062 C 204.789062 166.046875 207.488281 163.320312 210.140625 160.546875 C 210.324219 160.355469 210.039062 160.070312 209.847656 160.253906 " fill-opacity="1" fill-rule="nonzero"/><path fill="#ffffff" d="M 214.265625 157.078125 C 215.40625 156.691406 216.492188 156.144531 217.566406 155.605469 C 217.875 155.453125 217.605469 155.011719 217.300781 155.148438 C 216.222656 155.636719 215.132812 156.121094 214.128906 156.753906 C 213.964844 156.855469 214.070312 157.144531 214.265625 157.078125 " fill-opacity="1" fill-rule="nonzero"/><path fill="#ffffff" d="M 223.03125 150.839844 C 220.957031 151.378906 218.960938 152.171875 216.957031 152.929688 C 215.121094 153.625 212.90625 154.085938 211.226562 155.074219 C 210.382812 155.574219 210.984375 156.703125 211.851562 156.5625 C 213.734375 156.257812 215.765625 155.011719 217.511719 154.238281 C 219.464844 153.375 221.433594 152.542969 223.371094 151.640625 C 223.832031 151.425781 223.5 150.71875 223.03125 150.839844 " fill-opacity="1" fill-rule="nonzero"/><path fill="#ffffff" d="M 222.988281 151.066406 C 222.507812 152.171875 222.261719 153.378906 221.875 154.519531 C 221.390625 155.933594 220.832031 157.320312 220.242188 158.691406 C 219.648438 160.070312 219.019531 161.441406 218.332031 162.78125 C 217.828125 163.765625 219.367188 164.621094 219.800781 163.636719 C 220.4375 162.195312 221.015625 160.726562 221.558594 159.246094 C 222.433594 156.839844 223.746094 153.828125 223.566406 151.222656 C 223.546875 150.949219 223.121094 150.757812 222.988281 151.066406 " fill-opacity="1" fill-rule="nonzero"/><path fill="#ffffff" d="M 218.851562 152.367188 C 217.9375 153.105469 217.890625 154.464844 218.53125 155.414062 C 219.152344 156.335938 220.339844 157.007812 221.464844 156.910156 C 223.019531 156.777344 222.746094 154.527344 221.175781 154.777344 C 220.816406 154.835938 220.285156 154.589844 220.03125 154.351562 C 219.644531 153.992188 219.5625 153.320312 219.632812 152.820312 C 219.699219 152.351562 219.230469 152.058594 218.851562 152.367188 " fill-opacity="1" fill-rule="nonzero"/><path fill="#ffffff" d="M 211.089844 155.335938 C 210.65625 157.609375 211.589844 159.058594 212.910156 160.792969 C 214.367188 162.703125 216.519531 164.195312 219.023438 163.933594 C 220.175781 163.8125 220.171875 161.988281 219.023438 162.125 C 217.011719 162.367188 215.253906 161.183594 213.949219 159.761719 C 212.648438 158.347656 212.050781 157.417969 211.878906 155.441406 C 211.84375 155.023438 211.179688 154.859375 211.089844 155.335938 " fill-opacity="1" fill-rule="nonzero"/><path fill="#ffffff" d="M 141.097656 227.773438 C 153.371094 215.476562 165.648438 203.179688 177.863281 190.820312 C 187.363281 181.210938 196.855469 171.589844 206.371094 161.992188 C 208.1875 160.160156 209.992188 158.316406 211.808594 156.484375 C 212.46875 155.816406 211.4375 154.78125 210.773438 155.449219 C 205.519531 160.75 200.253906 166.039062 194.988281 171.332031 C 183.507812 182.867188 172 194.378906 160.5625 205.960938 C 153.726562 212.886719 146.890625 219.808594 140.050781 226.726562 C 139.378906 227.40625 140.421875 228.449219 141.097656 227.773438 " fill-opacity="1" fill-rule="nonzero"/><path fill="#ffffff" d="M 139.960938 226.636719 C 132.101562 234.011719 124.65625 241.816406 117.101562 249.5 C 116.023438 250.597656 114.902344 251.660156 113.835938 252.765625 C 113.132812 253.492188 114.242188 254.601562 114.945312 253.875 C 115.28125 253.527344 114.851562 253.964844 115.101562 253.691406 C 115.28125 253.496094 115.449219 253.292969 115.632812 253.097656 C 116.226562 252.457031 116.839844 251.832031 117.445312 251.199219 C 119.46875 249.082031 121.492188 246.960938 123.519531 244.84375 C 128.09375 240.050781 132.769531 235.332031 137.195312 230.40625 C 138.226562 229.257812 139.238281 228.089844 140.257812 226.933594 C 140.433594 226.730469 140.15625 226.449219 139.960938 226.636719 " fill-opacity="1" fill-rule="nonzero"/><path fill="#ffffff" d="M 148.214844 235.488281 C 160.464844 223.15625 172.785156 210.894531 185.054688 198.585938 C 194.679688 188.9375 204.308594 179.292969 213.96875 169.6875 C 215.816406 167.851562 217.648438 166.003906 219.496094 164.171875 C 220.160156 163.507812 219.128906 162.476562 218.460938 163.136719 C 213.152344 168.40625 207.839844 173.671875 202.53125 178.941406 C 190.90625 190.476562 179.277344 202.003906 167.742188 213.632812 C 160.875 220.554688 154.011719 227.488281 147.167969 234.441406 C 146.503906 235.117188 147.542969 236.164062 148.214844 235.488281 " fill-opacity="1" fill-rule="nonzero"/><g clip-path="url(#dd21ad58a4)"><path fill="#ffffff" d="M 148 235.269531 C 140.105469 242.429688 132.617188 250.035156 125.019531 257.507812 C 124.238281 258.277344 123.457031 259.046875 122.675781 259.816406 C 122.460938 260.027344 122.253906 260.246094 122.03125 260.449219 C 121.714844 260.742188 121.984375 260.445312 121.75 260.679688 C 121.042969 261.386719 122.140625 262.484375 122.847656 261.777344 C 123.171875 261.457031 122.765625 261.835938 123.003906 261.589844 C 123.175781 261.410156 123.34375 261.226562 123.519531 261.046875 C 124.152344 260.40625 124.785156 259.769531 125.414062 259.128906 C 127.453125 257.066406 129.488281 255.003906 131.523438 252.9375 C 136.109375 248.296875 140.789062 243.722656 145.226562 238.941406 C 146.261719 237.824219 147.273438 236.691406 148.296875 235.566406 C 148.480469 235.367188 148.199219 235.089844 148 235.269531 " fill-opacity="1" fill-rule="nonzero"/></g><path fill="#ffffff" d="M 140.289062 227.402344 C 140.28125 229.46875 141.058594 231.519531 142.453125 233.046875 C 143.710938 234.425781 145.835938 235.875 147.777344 235.425781 C 148.15625 235.339844 148.324219 234.785156 148.015625 234.527344 C 146.746094 233.445312 145.0625 233.113281 143.816406 231.9375 C 142.449219 230.652344 141.75 229.03125 141.152344 227.289062 C 140.996094 226.832031 140.292969 226.890625 140.289062 227.402344 " fill-opacity="1" fill-rule="nonzero"/><g clip-path="url(#fd5e556afc)"><path fill="#ffffff" d="M 113.8125 253.046875 C 112.746094 254.710938 114.703125 257.53125 115.78125 258.785156 C 117.234375 260.484375 119.550781 262.085938 121.867188 262.050781 C 122.46875 262.039062 122.804688 261.125 122.195312 260.839844 C 120.429688 260.019531 118.859375 259.542969 117.46875 258.070312 C 116.261719 256.789062 115.074219 254.804688 114.496094 253.136719 C 114.390625 252.832031 113.992188 252.769531 113.8125 253.046875 " fill-opacity="1" fill-rule="nonzero"/></g><path fill="#ffffff" d="M 240.722656 181.257812 C 236.960938 191.523438 233.769531 201.988281 230.417969 212.394531 C 230.082031 213.433594 229.753906 214.476562 229.414062 215.515625 C 229.316406 215.820312 229.210938 216.117188 229.101562 216.414062 C 228.953125 216.816406 229.082031 216.402344 228.976562 216.746094 C 228.671875 217.710938 230.1875 218.125 230.492188 217.160156 C 233.757812 206.761719 237.101562 196.316406 239.964844 185.796875 C 240.363281 184.324219 240.738281 182.84375 241.128906 181.367188 C 241.195312 181.101562 240.816406 181.007812 240.722656 181.257812 " fill-opacity="1" fill-rule="nonzero"/><path fill="#ffffff" d="M 229.285156 178.367188 C 225.828125 188.453125 222.941406 198.726562 219.898438 208.945312 C 219.585938 209.996094 219.273438 211.046875 218.960938 212.097656 C 218.875 212.386719 218.796875 212.679688 218.703125 212.964844 C 218.5625 213.378906 218.664062 212.972656 218.566406 213.300781 C 218.289062 214.261719 219.785156 214.671875 220.0625 213.714844 C 220.199219 213.246094 220.015625 213.816406 220.109375 213.472656 C 220.171875 213.234375 220.234375 212.992188 220.300781 212.75 C 220.542969 211.882812 220.789062 211.019531 221.03125 210.15625 C 221.820312 207.367188 222.605469 204.574219 223.394531 201.785156 C 225.164062 195.507812 227.054688 189.246094 228.632812 182.910156 C 228.996094 181.4375 229.335938 179.957031 229.691406 178.480469 C 229.753906 178.214844 229.371094 178.113281 229.285156 178.367188 " fill-opacity="1" fill-rule="nonzero"/><path fill="#ffffff" d="M 240.613281 180.644531 C 238.625 181.007812 236.671875 181.089844 234.707031 180.535156 C 232.929688 180.035156 231.660156 178.792969 230 178.105469 C 229.621094 177.949219 229.222656 178.410156 229.339844 178.769531 C 230.007812 180.8125 232.507812 181.859375 234.449219 182.273438 C 236.625 182.738281 238.980469 182.5 240.953125 181.445312 C 241.414062 181.199219 241.078125 180.558594 240.613281 180.644531 " fill-opacity="1" fill-rule="nonzero"/><path fill="#ffffff" d="M 230.152344 216.453125 C 228.324219 216.769531 225.941406 216.644531 224.167969 216.15625 C 222.328125 215.644531 221.183594 214.496094 219.699219 213.410156 C 219.140625 213 218.535156 213.773438 218.8125 214.296875 C 219.867188 216.296875 222.316406 217.535156 224.449219 218.011719 C 226.085938 218.378906 229.609375 218.777344 230.574219 217.003906 C 230.742188 216.699219 230.46875 216.398438 230.152344 216.453125 " fill-opacity="1" fill-rule="nonzero"/><path fill="#ffffff" d="M 241 181.402344 C 242.351562 179.046875 238.722656 177.175781 237.066406 176.714844 C 234.960938 176.121094 229.699219 175.582031 229.367188 178.6875 C 229.296875 179.347656 230.195312 179.605469 230.613281 179.203125 C 231.085938 178.75 231.410156 178.300781 232.097656 178.136719 C 232.710938 177.992188 233.386719 178.046875 234.015625 178.050781 C 234.96875 178.054688 235.910156 178.105469 236.847656 178.328125 C 237.902344 178.578125 239.046875 178.976562 239.757812 179.847656 C 240.144531 180.320312 240.328125 180.914062 240.683594 181.402344 C 240.761719 181.507812 240.925781 181.53125 241 181.402344 " fill-opacity="1" fill-rule="nonzero"/><g clip-path="url(#c711e87d0d)"><path fill="#ffffff" d="M 259.46875 113.609375 C 260.199219 113.679688 260.589844 114.304688 260.355469 114.984375 C 260.097656 115.734375 259.152344 115.960938 258.464844 116.082031 C 257.015625 116.332031 255.507812 116.105469 254.046875 116.125 C 251.371094 116.160156 248.449219 116.585938 246.03125 117.789062 C 243.921875 118.835938 242.761719 120.890625 243.316406 123.234375 C 243.902344 125.71875 245.859375 127.476562 247.5625 129.230469 C 249.34375 131.0625 250.910156 133.273438 248.636719 135.414062 C 246.457031 137.460938 243.171875 137.800781 240.328125 137.914062 C 237.054688 138.042969 233.773438 137.980469 230.5 137.996094 C 227.753906 138.007812 224.875 137.925781 222.222656 138.765625 C 219.917969 139.496094 217.808594 140.988281 217.269531 143.476562 C 216.742188 145.90625 217.996094 148.011719 220.273438 148.867188 C 221.886719 149.472656 223.035156 146.789062 221.453125 146.0625 C 219.308594 145.082031 220.464844 142.898438 222.140625 142.082031 C 224.664062 140.847656 227.769531 141.042969 230.5 141.015625 C 233.859375 140.976562 237.238281 141.039062 240.59375 140.859375 C 243.332031 140.71875 246.1875 140.328125 248.605469 138.945312 C 250.625 137.789062 252.527344 135.828125 252.648438 133.378906 C 252.773438 130.929688 251.121094 128.9375 249.476562 127.320312 C 247.964844 125.832031 243.988281 122.761719 246.234375 120.417969 C 247.109375 119.5 248.59375 119.128906 249.773438 118.8125 C 251.441406 118.363281 253.144531 118.132812 254.867188 118.070312 C 256.980469 117.996094 260.542969 118.316406 261.585938 115.917969 C 262.289062 114.300781 261.277344 112.492188 259.46875 112.550781 C 258.773438 112.570312 258.796875 113.542969 259.46875 113.609375 " fill-opacity="1" fill-rule="nonzero"/></g></svg>