<svg xmlns="http://www.w3.org/2000/svg" xmlns:xlink="http://www.w3.org/1999/xlink" width="500" zoomAndPan="magnify" viewBox="0 0 375 374.999991" height="500" preserveAspectRatio="xMidYMid meet" version="1.0"><defs><clipPath id="330e42ac5f"><path d="M 112.5 112.5 L 262 112.5 L 262 262 L 112.5 262 Z M 112.5 112.5 " clip-rule="nonzero"/></clipPath></defs><rect x="-37.5" width="450" fill="#ffffff" y="-37.499999" height="449.999989" fill-opacity="1"/><rect x="-37.5" width="450" fill="#eba4ad" y="-37.499999" height="449.999989" fill-opacity="1"/><g clip-path="url(#330e42ac5f)"><path fill="#ffffff" d="M 175.75 156.035156 C 174.183594 154.644531 172.398438 153.632812 170.398438 153.003906 C 168.824219 152.5 168.152344 154.972656 169.71875 155.464844 C 169.964844 155.542969 170.214844 155.636719 170.460938 155.730469 C 170.5625 155.765625 170.65625 155.804688 170.757812 155.839844 C 170.765625 155.847656 170.765625 155.847656 170.773438 155.847656 C 170.945312 155.933594 171.125 156.011719 171.304688 156.097656 C 171.738281 156.316406 172.164062 156.554688 172.574219 156.8125 C 173.023438 157.085938 173.445312 157.398438 173.839844 157.75 C 174.84375 158.613281 175.652344 159.628906 176.269531 160.796875 C 176.605469 161.433594 176.867188 162.097656 177.0625 162.792969 C 177.148438 163.105469 177.222656 163.421875 177.292969 163.738281 C 177.316406 163.863281 177.332031 164 177.359375 164.128906 C 177.367188 164.195312 177.375 164.257812 177.386719 164.324219 C 177.394531 164.347656 177.394531 164.371094 177.394531 164.394531 C 177.398438 164.558594 177.4375 164.71875 177.503906 164.875 C 177.570312 165.027344 177.664062 165.164062 177.78125 165.28125 C 177.898438 165.402344 178.035156 165.492188 178.191406 165.558594 C 178.34375 165.628906 178.503906 165.664062 178.671875 165.671875 C 178.839844 165.671875 179.003906 165.636719 179.160156 165.574219 C 179.316406 165.507812 179.453125 165.414062 179.574219 165.296875 C 179.695312 165.175781 179.785156 165.039062 179.851562 164.882812 C 179.917969 164.726562 179.949219 164.5625 179.949219 164.394531 C 179.785156 162.789062 179.339844 161.269531 178.617188 159.828125 C 177.894531 158.390625 176.9375 157.125 175.75 156.035156 Z M 261.847656 240.210938 C 261.097656 247.117188 257.964844 254.164062 252.113281 258.21875 C 245.9375 262.492188 237.75 262.28125 230.773438 260.355469 C 228.246094 259.683594 225.851562 258.683594 223.59375 257.355469 C 220.683594 255.476562 218.171875 253.160156 216.066406 250.40625 C 214.242188 248.183594 212.402344 245.898438 209.71875 244.664062 C 206.117188 243.011719 202.019531 243.421875 198.289062 244.339844 C 194.703125 245.21875 191.082031 246.496094 187.34375 245.847656 C 183.679688 245.21875 180.691406 242.679688 178.746094 239.605469 C 177.535156 239.808594 176.335938 239.742188 175.152344 239.402344 C 173.992188 239 172.960938 238.382812 172.058594 237.546875 C 171.15625 236.714844 170.460938 235.730469 169.972656 234.605469 L 167.316406 235.652344 C 167.035156 235.726562 166.761719 235.710938 166.496094 235.601562 C 166.226562 235.492188 166.015625 235.3125 165.867188 235.066406 C 161.992188 227.886719 158.113281 220.707031 154.226562 213.53125 L 133.476562 175.152344 C 126.585938 162.414062 119.695312 149.683594 112.8125 136.957031 C 112.730469 136.796875 112.679688 136.628906 112.65625 136.453125 C 112.59375 136.199219 112.621094 135.953125 112.734375 135.714844 C 112.851562 135.480469 113.03125 135.308594 113.269531 135.203125 C 117.582031 133.011719 121.949219 130.953125 126.378906 129.027344 C 133.679688 125.851562 141.121094 123.050781 148.703125 120.617188 C 148.863281 120.527344 149.03125 120.472656 149.214844 120.445312 C 159.726562 117.09375 170.417969 114.484375 181.292969 112.613281 C 181.488281 112.566406 181.679688 112.5625 181.871094 112.601562 C 182.066406 112.644531 182.242188 112.722656 182.398438 112.84375 C 182.554688 112.964844 182.679688 113.113281 182.769531 113.289062 C 182.859375 113.464844 182.90625 113.648438 182.914062 113.847656 L 185.851562 138.074219 C 187.582031 152.261719 189.304688 166.449219 191.023438 180.636719 C 192.75 194.894531 194.484375 209.152344 196.21875 223.40625 C 196.214844 223.691406 196.125 223.949219 195.953125 224.175781 C 195.777344 224.402344 195.554688 224.558594 195.28125 224.640625 C 194.726562 224.851562 194.183594 225.066406 193.636719 225.285156 C 194.667969 228.113281 194.546875 231.417969 192.386719 233.703125 C 192.082031 234.011719 191.757812 234.296875 191.414062 234.5625 C 191.59375 235.117188 191.917969 235.558594 192.394531 235.890625 C 192.691406 236.09375 193.015625 236.175781 193.375 236.140625 C 194.421875 236 195.394531 235.644531 196.285156 235.074219 C 197.625 234.332031 198.882812 233.464844 200.160156 232.628906 C 203.101562 230.714844 206.183594 228.832031 209.632812 227.988281 C 211.390625 227.542969 213.167969 227.429688 214.96875 227.640625 C 216.769531 227.851562 218.46875 228.375 220.078125 229.214844 C 222.878906 230.660156 225.136719 232.894531 227.460938 234.988281 C 228.332031 235.835938 229.289062 236.5625 230.339844 237.167969 C 230.699219 237.394531 231.089844 237.53125 231.511719 237.566406 C 231.933594 237.605469 232.339844 237.546875 232.734375 237.390625 C 233.214844 237.109375 233.621094 236.742188 233.953125 236.292969 C 234.28125 235.84375 234.511719 235.347656 234.632812 234.800781 C 235.144531 233.320312 235.484375 231.777344 236.03125 230.304688 C 236.339844 229.398438 236.746094 228.542969 237.257812 227.730469 C 237.765625 226.921875 238.359375 226.179688 239.042969 225.511719 C 239.722656 224.839844 240.472656 224.257812 241.292969 223.761719 C 242.109375 223.265625 242.972656 222.871094 243.882812 222.578125 C 245.855469 221.929688 247.871094 221.703125 249.933594 221.894531 C 252 222.085938 253.941406 222.679688 255.757812 223.675781 C 261.285156 226.9375 262.480469 234.351562 261.847656 240.210938 Z M 180.535156 115.339844 C 176.332031 116.085938 172.140625 116.945312 167.980469 117.914062 L 171.203125 130.167969 C 174.792969 129.222656 178.398438 128.328125 182.019531 127.511719 C 181.527344 123.457031 181.035156 119.398438 180.535156 115.339844 Z M 152.480469 135.726562 C 151.171875 131.597656 149.867188 127.464844 148.566406 123.335938 C 142.53125 125.304688 136.582031 127.507812 130.71875 129.957031 L 135.972656 141.722656 C 141.421875 139.570312 146.921875 137.570312 152.480469 135.726562 Z M 168.734375 130.824219 L 165.496094 118.511719 C 160.621094 119.703125 155.785156 121.050781 150.996094 122.554688 C 152.300781 126.683594 153.605469 130.808594 154.90625 134.9375 C 159.488281 133.460938 164.09375 132.089844 168.734375 130.824219 Z M 121.59375 147.816406 C 125.324219 146.128906 129.082031 144.507812 132.871094 142.953125 C 133.117188 142.851562 133.363281 142.761719 133.609375 142.660156 L 128.378906 130.945312 C 124.085938 132.792969 119.847656 134.761719 115.664062 136.859375 C 117.640625 140.515625 119.617188 144.167969 121.59375 147.816406 Z M 193.558594 222.578125 C 192.613281 214.777344 191.667969 206.976562 190.722656 199.179688 C 188.996094 184.988281 187.269531 170.800781 185.554688 156.617188 C 184.480469 147.765625 183.40625 138.914062 182.324219 130.058594 C 178.195312 131.003906 174.078125 132.007812 169.992188 133.113281 C 153.804688 137.484375 138.078125 143.132812 122.8125 150.058594 C 124.097656 152.441406 125.382812 154.820312 126.667969 157.195312 L 147.417969 195.578125 C 154.140625 207.996094 160.855469 220.40625 167.566406 232.816406 C 176.226562 229.410156 184.890625 225.996094 193.558594 222.578125 Z M 191.644531 227.816406 C 191.5625 227.273438 191.4375 226.742188 191.261719 226.222656 C 184.957031 228.703125 178.652344 231.183594 172.34375 233.667969 C 172.628906 234.238281 172.976562 234.765625 173.390625 235.253906 C 179.472656 232.773438 185.554688 230.296875 191.644531 227.816406 Z M 183.570312 235.441406 C 185.785156 234.570312 188.542969 233.804688 190.324219 232.136719 C 190.773438 231.722656 191.113281 231.234375 191.347656 230.671875 C 186.21875 232.765625 181.085938 234.859375 175.945312 236.957031 C 176.082031 236.992188 176.210938 237.042969 176.347656 237.066406 C 177.222656 237.21875 178.097656 237.199219 178.96875 237.007812 C 179.105469 236.957031 179.25 236.925781 179.394531 236.914062 C 180.820312 236.519531 182.210938 236.027344 183.570312 235.441406 Z M 259.070312 233.363281 C 258.550781 230.824219 257.503906 228.234375 255.441406 226.554688 C 252.511719 224.164062 248.039062 223.90625 244.566406 225.039062 C 240.894531 226.234375 239.019531 229.09375 237.957031 232.621094 C 237.179688 235.191406 236.59375 238.394531 233.902344 239.65625 C 231.542969 240.765625 229.234375 239.691406 227.324219 238.207031 C 225.085938 236.460938 223.1875 234.324219 220.859375 232.6875 C 219.542969 231.6875 218.085938 230.96875 216.488281 230.535156 C 214.890625 230.101562 213.269531 229.984375 211.625 230.183594 C 208.210938 230.679688 205.152344 232.460938 202.292969 234.289062 C 199.964844 235.78125 197.613281 237.6875 194.914062 238.445312 C 194.367188 238.621094 193.804688 238.695312 193.230469 238.664062 C 192.65625 238.628906 192.109375 238.496094 191.582031 238.261719 C 191.058594 238.023438 190.59375 237.703125 190.1875 237.292969 C 189.785156 236.886719 189.464844 236.417969 189.234375 235.890625 C 187.605469 236.699219 185.828125 237.28125 184.25 237.902344 C 183.332031 238.257812 182.375 238.644531 181.398438 238.957031 C 182.105469 239.988281 182.957031 240.878906 183.953125 241.632812 C 187.113281 243.964844 190.65625 243.652344 194.257812 242.738281 C 198.101562 241.769531 201.941406 240.625 205.945312 241.085938 C 207.578125 241.242188 209.144531 241.660156 210.640625 242.332031 C 212.136719 243.007812 213.484375 243.902344 214.683594 245.023438 C 216.832031 247.03125 218.46875 249.511719 220.503906 251.625 C 224.539062 255.796875 229.921875 257.902344 235.570312 258.777344 C 239.210938 259.40625 242.804688 259.210938 246.355469 258.191406 C 248.070312 257.644531 249.65625 256.839844 251.113281 255.777344 C 252.570312 254.714844 253.820312 253.449219 254.863281 251.980469 C 255.816406 250.648438 256.628906 249.234375 257.296875 247.738281 C 257.96875 246.242188 258.484375 244.695312 258.84375 243.097656 C 259.207031 241.496094 259.40625 239.878906 259.445312 238.242188 C 259.480469 236.601562 259.359375 234.976562 259.070312 233.363281 Z M 205.339844 198.875 C 205.304688 195.792969 205.789062 192.796875 206.792969 189.886719 C 207.792969 186.976562 209.257812 184.316406 211.183594 181.914062 C 212.792969 179.972656 215.367188 178.140625 217.851562 178.082031 C 217.976562 178.054688 218.101562 178.046875 218.226562 178.0625 L 218.585938 178.113281 C 218.730469 178.132812 218.867188 178.148438 219.011719 178.171875 C 221.414062 178.546875 223.621094 179.417969 225.628906 180.789062 C 226.515625 181.390625 227.316406 182.097656 228.023438 182.902344 C 228.730469 183.707031 229.328125 184.589844 229.808594 185.546875 C 230.292969 186.503906 230.648438 187.507812 230.878906 188.554688 C 231.105469 189.601562 231.199219 190.664062 231.160156 191.734375 C 230.855469 195.257812 229.914062 198.597656 228.332031 201.761719 C 226.730469 205.21875 224.046875 208.113281 220.316406 209.230469 C 218.59375 209.683594 216.847656 209.808594 215.078125 209.605469 C 213.308594 209.402344 211.636719 208.886719 210.058594 208.054688 C 206.59375 207.023438 205.398438 202.210938 205.339844 198.871094 Z M 218.175781 204.402344 C 217.335938 205.433594 216.359375 206.320312 215.246094 207.058594 C 217.339844 207.394531 219.328125 207.082031 221.21875 206.121094 C 223.875 204.714844 225.519531 202.117188 226.585938 199.382812 C 227.699219 196.523438 228.800781 193.457031 228.585938 190.347656 C 228.507812 189.492188 228.324219 188.664062 228.039062 187.855469 C 227.75 187.050781 227.367188 186.292969 226.886719 185.582031 C 226.40625 184.871094 225.847656 184.234375 225.207031 183.667969 C 224.566406 183.097656 223.863281 182.621094 223.101562 182.230469 C 223.589844 183.554688 223.878906 184.921875 223.96875 186.335938 C 224.109375 189.59375 223.683594 192.777344 222.6875 195.886719 C 221.691406 198.992188 220.1875 201.832031 218.175781 204.402344 Z M 207.945312 199.980469 C 208.132812 202.339844 209.214844 205.925781 211.875 205.6875 C 211.03125 203.46875 210.558594 201.175781 210.457031 198.804688 C 210.355469 196.4375 210.628906 194.109375 211.277344 191.828125 C 211.945312 189.644531 212.933594 187.613281 214.242188 185.742188 C 215.550781 183.871094 217.117188 182.25 218.945312 180.875 C 218.773438 180.773438 218.589844 180.699219 218.398438 180.644531 C 218.375 180.644531 218.347656 180.636719 218.332031 180.636719 C 218.332031 180.636719 218.332031 180.628906 218.3125 180.628906 C 218.296875 180.628906 218.28125 180.621094 218.253906 180.621094 L 218.21875 180.621094 C 218.152344 180.609375 218.082031 180.597656 218.015625 180.578125 C 215.519531 180.277344 212.851562 183.726562 211.78125 185.414062 C 210.386719 187.578125 209.363281 189.902344 208.707031 192.390625 C 208.054688 194.882812 207.800781 197.410156 207.945312 199.980469 Z M 154.601562 172.339844 C 154.316406 171.726562 154.097656 171.085938 153.949219 170.425781 C 153.796875 169.765625 153.71875 169.097656 153.710938 168.417969 C 153.703125 167.742188 153.765625 167.070312 153.902344 166.40625 C 154.035156 165.742188 154.238281 165.101562 154.507812 164.480469 C 154.78125 163.859375 155.113281 163.273438 155.507812 162.722656 C 155.902344 162.171875 156.351562 161.667969 156.851562 161.210938 C 157.355469 160.757812 157.898438 160.359375 158.484375 160.019531 C 159.070312 159.679688 159.683594 159.402344 160.328125 159.191406 C 160.972656 158.984375 161.632812 158.84375 162.304688 158.773438 C 162.980469 158.703125 163.652344 158.703125 164.328125 158.777344 C 165 158.847656 165.660156 158.992188 166.300781 159.203125 C 166.945312 159.414062 167.558594 159.691406 168.144531 160.035156 C 168.730469 160.378906 169.273438 160.777344 169.769531 161.234375 C 170.269531 161.691406 170.71875 162.199219 171.109375 162.75 C 171.503906 163.300781 171.832031 163.890625 172.101562 164.511719 C 172.371094 165.132812 172.570312 165.777344 172.703125 166.441406 C 172.835938 167.105469 172.894531 167.777344 172.886719 168.453125 C 172.875 169.132812 172.792969 169.800781 172.640625 170.460938 C 172.488281 171.121094 172.269531 171.757812 171.984375 172.371094 C 171.695312 172.984375 171.347656 173.5625 170.9375 174.101562 C 170.527344 174.640625 170.066406 175.132812 169.554688 175.574219 C 169.039062 176.015625 168.488281 176.398438 167.890625 176.726562 C 167.296875 177.050781 166.675781 177.308594 166.023438 177.5 C 165.375 177.691406 164.714844 177.816406 164.039062 177.867188 C 163.0625 177.933594 162.101562 177.855469 161.152344 177.632812 C 160.203125 177.410156 159.308594 177.054688 158.464844 176.558594 C 157.625 176.066406 156.875 175.460938 156.214844 174.742188 C 155.554688 174.023438 155.015625 173.222656 154.601562 172.339844 Z M 157.316406 172.007812 C 157.699219 172.625 158.164062 173.167969 158.710938 173.640625 C 159.261719 174.113281 159.867188 174.492188 160.53125 174.777344 C 161.199219 175.0625 161.890625 175.238281 162.613281 175.308594 C 163.332031 175.382812 164.046875 175.34375 164.753906 175.195312 C 165.464844 175.046875 166.132812 174.792969 166.765625 174.4375 C 167.394531 174.082031 167.957031 173.640625 168.453125 173.109375 C 168.945312 172.582031 169.351562 171.992188 169.660156 171.335938 C 169.972656 170.683594 170.179688 170 170.28125 169.28125 C 170.320312 169.003906 170.34375 168.722656 170.351562 168.441406 C 170.355469 168.15625 170.34375 167.875 170.316406 167.59375 C 170.289062 167.316406 170.246094 167.035156 170.183594 166.761719 C 170.121094 166.484375 170.046875 166.214844 169.953125 165.949219 C 169.859375 165.683594 169.75 165.421875 169.625 165.171875 C 169.5 164.917969 169.359375 164.671875 169.203125 164.4375 C 169.050781 164.199219 168.882812 163.972656 168.703125 163.757812 C 168.519531 163.542969 168.328125 163.335938 168.121094 163.144531 C 167.914062 162.953125 167.699219 162.769531 167.46875 162.605469 C 167.242188 162.4375 167.003906 162.285156 166.761719 162.148438 C 166.515625 162.007812 166.261719 161.886719 166 161.777344 C 165.738281 161.667969 165.472656 161.578125 165.203125 161.5 C 164.929688 161.425781 164.652344 161.367188 164.375 161.324219 C 164.097656 161.28125 163.816406 161.253906 163.535156 161.246094 C 163.253906 161.234375 162.96875 161.242188 162.6875 161.269531 C 162.410156 161.292969 162.128906 161.335938 161.855469 161.390625 C 161.578125 161.449219 161.304688 161.523438 161.039062 161.613281 C 160.769531 161.707031 160.511719 161.8125 160.257812 161.933594 C 160 162.054688 159.753906 162.191406 159.519531 162.34375 C 159.28125 162.496094 159.050781 162.660156 158.832031 162.839844 C 158.617188 163.019531 158.410156 163.210938 158.214844 163.414062 C 158.019531 163.617188 157.835938 163.832031 157.667969 164.058594 C 157.496094 164.285156 157.34375 164.519531 157.199219 164.765625 C 157.058594 165.007812 156.933594 165.261719 156.824219 165.519531 C 156.710938 165.777344 156.617188 166.042969 156.539062 166.316406 C 156.460938 166.585938 156.398438 166.859375 156.351562 167.140625 C 156.304688 167.417969 156.273438 167.695312 156.261719 167.980469 C 156.25 168.261719 156.253906 168.542969 156.277344 168.824219 C 156.296875 169.105469 156.335938 169.382812 156.390625 169.660156 C 156.445312 169.9375 156.515625 170.210938 156.605469 170.476562 C 156.691406 170.746094 156.796875 171.007812 156.914062 171.265625 C 157.035156 171.519531 157.167969 171.769531 157.316406 172.007812 Z M 156.335938 149.171875 C 157.8125 148.214844 159.425781 147.617188 161.167969 147.382812 C 162.433594 147.234375 163.683594 147.308594 164.921875 147.609375 C 166.160156 147.910156 167.308594 148.417969 168.363281 149.128906 C 169.746094 150.039062 171.023438 147.824219 169.660156 146.921875 C 168.566406 146.226562 167.398438 145.695312 166.15625 145.335938 C 164.910156 144.976562 163.640625 144.796875 162.34375 144.800781 C 161.050781 144.804688 159.78125 144.992188 158.539062 145.359375 C 157.296875 145.726562 156.132812 146.261719 155.042969 146.964844 C 153.652344 147.832031 154.941406 150.046875 156.335938 149.171875 Z M 177.179688 174.503906 C 177.035156 174.417969 176.878906 174.367188 176.710938 174.34375 C 176.542969 174.320312 176.375 174.332031 176.214844 174.375 C 176.050781 174.417969 175.902344 174.492188 175.765625 174.59375 C 175.632812 174.695312 175.519531 174.816406 175.433594 174.964844 C 175.160156 175.578125 174.847656 176.167969 174.488281 176.734375 C 173.96875 177.589844 173.335938 178.351562 172.59375 179.023438 C 171.625 179.910156 170.535156 180.589844 169.3125 181.070312 C 168.089844 181.546875 166.824219 181.789062 165.515625 181.792969 C 165.347656 181.792969 165.183594 181.824219 165.027344 181.890625 C 164.871094 181.957031 164.730469 182.046875 164.613281 182.167969 C 164.492188 182.285156 164.398438 182.425781 164.335938 182.582031 C 164.269531 182.738281 164.238281 182.902344 164.238281 183.070312 C 164.238281 183.238281 164.269531 183.402344 164.335938 183.558594 C 164.398438 183.714844 164.492188 183.855469 164.613281 183.972656 C 164.730469 184.09375 164.871094 184.1875 165.027344 184.25 C 165.183594 184.316406 165.347656 184.347656 165.515625 184.347656 C 166.808594 184.328125 168.070312 184.121094 169.304688 183.738281 C 170.539062 183.351562 171.695312 182.800781 172.769531 182.082031 C 173.84375 181.363281 174.796875 180.507812 175.628906 179.515625 C 176.457031 178.523438 177.128906 177.433594 177.644531 176.25 C 177.726562 176.101562 177.777344 175.945312 177.796875 175.777344 C 177.816406 175.609375 177.804688 175.445312 177.761719 175.28125 C 177.71875 175.121094 177.648438 174.972656 177.546875 174.835938 C 177.445312 174.703125 177.324219 174.589844 177.179688 174.503906 Z M 168.339844 188.648438 L 168.007812 188.804688 C 167.972656 188.820312 167.792969 188.90625 167.734375 188.929688 C 167.351562 189.089844 166.964844 189.230469 166.566406 189.347656 C 165.484375 189.695312 164.375 189.871094 163.238281 189.882812 C 162.035156 189.882812 160.871094 189.683594 159.738281 189.289062 C 158.605469 188.890625 157.566406 188.320312 156.625 187.578125 C 156.503906 187.460938 156.367188 187.371094 156.210938 187.308594 C 156.054688 187.246094 155.890625 187.214844 155.722656 187.214844 C 155.554688 187.214844 155.394531 187.246094 155.238281 187.308594 C 155.082031 187.371094 154.941406 187.460938 154.820312 187.578125 C 154.703125 187.695312 154.609375 187.835938 154.542969 187.992188 C 154.480469 188.148438 154.449219 188.308594 154.449219 188.480469 C 154.449219 188.648438 154.480469 188.8125 154.542969 188.96875 C 154.609375 189.125 154.703125 189.261719 154.820312 189.382812 C 155.972656 190.34375 157.253906 191.085938 158.65625 191.609375 C 160.0625 192.132812 161.515625 192.410156 163.015625 192.441406 C 165.347656 192.441406 167.550781 191.914062 169.625 190.855469 C 171.097656 190.117188 169.804688 187.917969 168.339844 188.648438 Z M 152.675781 181.246094 C 151.109375 180.578125 149.757812 179.617188 148.613281 178.359375 C 147.738281 177.390625 147.066406 176.292969 146.597656 175.074219 C 146.128906 173.851562 145.894531 172.589844 145.894531 171.28125 C 145.894531 171.113281 145.863281 170.949219 145.796875 170.792969 C 145.730469 170.636719 145.640625 170.5 145.519531 170.378906 C 145.398438 170.257812 145.261719 170.167969 145.105469 170.101562 C 144.949219 170.035156 144.785156 170.003906 144.617188 170.003906 C 144.445312 170.003906 144.285156 170.035156 144.128906 170.101562 C 143.972656 170.167969 143.832031 170.257812 143.714844 170.378906 C 143.59375 170.5 143.5 170.636719 143.4375 170.792969 C 143.371094 170.949219 143.339844 171.113281 143.339844 171.28125 C 143.355469 172.574219 143.554688 173.839844 143.933594 175.074219 C 144.316406 176.3125 144.863281 177.46875 145.574219 178.546875 C 146.289062 179.628906 147.140625 180.585938 148.128906 181.417969 C 149.117188 182.253906 150.199219 182.929688 151.382812 183.453125 C 151.53125 183.535156 151.6875 183.585938 151.855469 183.605469 C 152.023438 183.625 152.1875 183.613281 152.347656 183.570312 C 152.511719 183.527344 152.660156 183.457031 152.792969 183.355469 C 152.929688 183.257812 153.042969 183.136719 153.128906 182.992188 C 153.214844 182.847656 153.269531 182.691406 153.292969 182.523438 C 153.316406 182.355469 153.304688 182.191406 153.261719 182.027344 C 153.21875 181.863281 153.148438 181.714844 153.046875 181.582031 C 152.945312 181.445312 152.820312 181.335938 152.675781 181.25 Z M 150.398438 166.425781 C 150.410156 166.144531 150.425781 165.855469 150.453125 165.574219 C 150.460938 165.480469 150.476562 165.386719 150.484375 165.292969 C 150.488281 165.253906 150.496094 165.214844 150.503906 165.175781 C 150.511719 165.105469 150.527344 164.96875 150.535156 164.945312 C 150.554688 164.851562 150.570312 164.75 150.585938 164.65625 C 150.773438 163.597656 151.101562 162.589844 151.566406 161.621094 C 152.449219 159.765625 153.777344 158.3125 155.546875 157.261719 C 155.800781 157.109375 156.074219 156.964844 156.335938 156.828125 L 156.644531 156.671875 C 156.667969 156.664062 156.78125 156.613281 156.855469 156.578125 C 157.015625 156.53125 157.164062 156.453125 157.292969 156.34375 C 157.425781 156.238281 157.53125 156.113281 157.613281 155.96875 C 157.695312 155.820312 157.75 155.664062 157.773438 155.5 C 157.796875 155.332031 157.789062 155.167969 157.75 155.003906 C 157.703125 154.84375 157.628906 154.695312 157.523438 154.5625 C 157.417969 154.429688 157.292969 154.320312 157.144531 154.238281 C 156.996094 154.15625 156.839844 154.105469 156.671875 154.082031 C 156.503906 154.0625 156.339844 154.074219 156.175781 154.117188 C 154.726562 154.699219 153.421875 155.507812 152.265625 156.550781 C 151.105469 157.59375 150.160156 158.804688 149.429688 160.183594 C 148.4375 162.144531 147.90625 164.226562 147.84375 166.425781 C 147.808594 168.082031 150.363281 168.074219 150.398438 166.429688 Z M 150.398438 166.425781 " fill-opacity="1" fill-rule="nonzero"/></g></svg>