<svg xmlns="http://www.w3.org/2000/svg" xmlns:xlink="http://www.w3.org/1999/xlink" width="500" zoomAndPan="magnify" viewBox="0 0 375 374.999991" height="500" preserveAspectRatio="xMidYMid meet" version="1.0"><defs><clipPath id="4a202681db"><path d="M 155.34375 112.5 L 219.84375 112.5 L 219.84375 262.5 L 155.34375 262.5 Z M 155.34375 112.5 " clip-rule="nonzero"/></clipPath></defs><rect x="-37.5" width="450" fill="#ffffff" y="-37.499999" height="449.999989" fill-opacity="1"/><rect x="-37.5" width="450" fill="#eba4ad" y="-37.499999" height="449.999989" fill-opacity="1"/><g clip-path="url(#4a202681db)"><path fill="#ffffff" d="M 213.453125 113.691406 C 213.453125 113.03125 212.917969 112.5 212.261719 112.5 L 162.738281 112.5 C 162.082031 112.5 161.546875 113.03125 161.546875 113.691406 L 161.546875 152.621094 L 155.636719 159.671875 C 155.457031 159.886719 155.355469 160.15625 155.355469 160.4375 L 155.355469 261.308594 C 155.355469 261.96875 155.890625 262.5 156.546875 262.5 L 218.453125 262.5 C 219.109375 262.5 219.644531 261.96875 219.644531 261.308594 L 219.644531 160.4375 C 219.644531 160.15625 219.542969 159.886719 219.363281 159.671875 L 213.453125 152.621094 Z M 163.929688 148.09375 L 211.070312 148.09375 L 211.070312 151.863281 L 163.929688 151.863281 Z M 211.070312 114.882812 L 211.070312 145.714844 L 163.929688 145.714844 L 163.929688 114.882812 Z M 217.261719 260.117188 L 157.738281 260.117188 L 157.738281 160.871094 L 163.292969 154.246094 L 211.707031 154.246094 L 217.261719 160.871094 Z M 217.261719 260.117188 " fill-opacity="1" fill-rule="nonzero"/></g><path fill="#ffffff" d="M 201.980469 215.992188 C 198.09375 214.304688 192.949219 213.371094 187.5 213.371094 C 182.050781 213.371094 176.90625 214.304688 173.019531 215.992188 C 168.816406 217.820312 166.5 220.371094 166.5 223.175781 C 166.5 225.976562 168.816406 228.527344 173.019531 230.355469 C 176.90625 232.046875 182.050781 232.976562 187.5 232.976562 C 192.949219 232.976562 198.09375 232.046875 201.980469 230.355469 C 206.183594 228.527344 208.5 225.976562 208.5 223.175781 C 208.5 220.371094 206.183594 217.820312 201.980469 215.992188 Z M 187.5 230.59375 C 176.527344 230.59375 168.882812 226.683594 168.882812 223.175781 C 168.882812 219.664062 176.527344 215.753906 187.5 215.753906 C 198.472656 215.753906 206.117188 219.664062 206.117188 223.175781 C 206.117188 226.683594 198.472656 230.59375 187.5 230.59375 Z M 187.5 230.59375 " fill-opacity="1" fill-rule="nonzero"/><path fill="#ffffff" d="M 209.785156 191.230469 L 165.214844 191.230469 C 164.558594 191.230469 164.023438 191.761719 164.023438 192.421875 L 164.023438 207.183594 C 164.023438 207.839844 164.558594 208.371094 165.214844 208.371094 L 209.785156 208.371094 C 210.441406 208.371094 210.976562 207.839844 210.976562 207.183594 L 210.976562 192.421875 C 210.976562 191.761719 210.441406 191.230469 209.785156 191.230469 Z M 208.59375 205.992188 L 166.40625 205.992188 L 166.40625 193.609375 L 208.59375 193.609375 Z M 208.59375 205.992188 " fill-opacity="1" fill-rule="nonzero"/></svg>