<svg xmlns="http://www.w3.org/2000/svg" xmlns:xlink="http://www.w3.org/1999/xlink" width="500" zoomAndPan="magnify" viewBox="0 0 375 374.999991" height="500" preserveAspectRatio="xMidYMid meet" version="1.0"><defs><clipPath id="7218138198"><path d="M 118 112.5 L 257 112.5 L 257 262.5 L 118 262.5 Z M 118 112.5 " clip-rule="nonzero"/></clipPath></defs><rect x="-37.5" width="450" fill="#ffffff" y="-37.499999" height="449.999989" fill-opacity="1"/><rect x="-37.5" width="450" fill="#eba4ad" y="-37.499999" height="449.999989" fill-opacity="1"/><g clip-path="url(#7218138198)"><path fill="#ffffff" d="M 254.675781 228.167969 C 251.160156 218.683594 242.136719 209.898438 230.539062 204.667969 C 228.296875 203.65625 226.035156 202.820312 223.78125 202.136719 C 238.558594 194.765625 248.277344 177.988281 248.277344 159.257812 C 248.277344 133.476562 229.976562 112.5 207.484375 112.5 C 184.992188 112.5 166.695312 133.476562 166.695312 159.257812 C 166.695312 174.003906 172.617188 187.554688 182.695312 196.375 C 178.339844 195.902344 173.808594 195.660156 169.214844 195.660156 C 140.582031 195.660156 118.15625 204.6875 118.15625 216.214844 L 118.15625 226.46875 C 118.15625 237.996094 140.582031 247.023438 169.214844 247.023438 C 175.199219 247.023438 181.039062 246.613281 186.59375 245.816406 C 190.992188 250.589844 196.769531 254.742188 203.394531 257.730469 C 210.5625 260.960938 217.917969 262.523438 224.664062 262.523438 C 234.972656 262.523438 243.851562 258.867188 248.445312 251.941406 C 251.039062 249.984375 253.113281 247.546875 254.472656 244.640625 C 256.773438 239.714844 256.84375 234.019531 254.675781 228.167969 Z M 169.074219 159.257812 C 169.074219 134.789062 186.304688 114.882812 207.484375 114.882812 C 228.664062 114.882812 245.894531 134.789062 245.894531 159.257812 C 245.894531 178.167969 235.546875 194.957031 220.117188 201.164062 C 213.886719 199.75 207.808594 199.558594 202.410156 200.511719 C 197.882812 198.976562 192.742188 197.777344 187.230469 196.957031 C 175.859375 188.785156 169.074219 174.714844 169.074219 159.257812 Z M 169.214844 198.039062 C 179.578125 198.039062 189.585938 199.304688 197.90625 201.621094 C 196.300781 202.136719 194.789062 202.773438 193.378906 203.519531 C 186.535156 201.394531 177.980469 200.214844 169.214844 200.214844 C 147.164062 200.214844 129.890625 207.242188 129.890625 216.214844 C 129.890625 225.1875 147.164062 232.214844 169.214844 232.214844 C 172.347656 232.214844 175.457031 232.0625 178.484375 231.769531 C 178.679688 232.503906 178.90625 233.234375 179.171875 233.972656 C 175.910156 234.234375 172.578125 234.390625 169.214844 234.390625 C 142.828125 234.390625 120.535156 226.066406 120.535156 216.214844 C 120.535156 206.363281 142.828125 198.039062 169.214844 198.039062 Z M 185.546875 210.367188 C 182.855469 212.390625 180.804688 214.875 179.457031 217.757812 C 177.792969 221.316406 177.3125 225.28125 177.984375 229.410156 C 175.117188 229.675781 172.183594 229.835938 169.214844 229.835938 C 149.1875 229.835938 132.269531 223.597656 132.269531 216.214844 C 132.269531 208.835938 149.1875 202.597656 169.214844 202.597656 C 176.894531 202.597656 184.394531 203.515625 190.644531 205.203125 C 188.621094 206.644531 186.894531 208.367188 185.546875 210.367188 Z M 169.214844 244.644531 C 142.828125 244.644531 120.535156 236.320312 120.535156 226.46875 L 120.535156 222.542969 C 127.019531 230.878906 146.089844 236.769531 169.214844 236.769531 C 172.898438 236.769531 176.558594 236.601562 180.121094 236.292969 C 181.289062 238.835938 182.851562 241.304688 184.742188 243.65625 C 179.75 244.296875 174.546875 244.644531 169.214844 244.644531 Z M 204.371094 255.558594 C 193.339844 250.582031 184.785156 242.300781 181.488281 233.398438 C 179.542969 228.160156 179.589844 223.101562 181.613281 218.765625 C 181.960938 218.019531 182.378906 217.3125 182.835938 216.628906 C 181.921875 220.605469 182.28125 224.929688 183.917969 229.347656 C 187.433594 238.832031 196.457031 247.617188 208.054688 252.847656 C 215.175781 256.058594 222.492188 257.59375 229.203125 257.59375 C 233.539062 257.59375 237.621094 256.953125 241.242188 255.710938 C 232.492188 261.425781 217.890625 261.652344 204.371094 255.558594 Z M 252.316406 243.628906 C 251.09375 246.246094 249.222656 248.445312 246.859375 250.203125 C 246.851562 250.207031 246.84375 250.214844 246.835938 250.222656 C 238.28125 256.5625 223.289062 257.105469 209.035156 250.675781 C 198.003906 245.703125 189.449219 237.417969 186.148438 228.519531 C 184.207031 223.28125 184.25 218.21875 186.277344 213.886719 C 189.804688 206.339844 198.6875 202.269531 209.292969 202.269531 C 215.6875 202.269531 222.707031 203.75 229.558594 206.835938 C 240.585938 211.8125 249.144531 220.09375 252.441406 228.996094 C 254.386719 234.234375 254.339844 239.296875 252.316406 243.628906 Z M 252.316406 243.628906 " fill-opacity="1" fill-rule="nonzero"/></g><path fill="#ffffff" d="M 238.273438 232.234375 C 236.167969 233.265625 233.933594 234 231.628906 234.410156 C 228.703125 234.933594 225.722656 234.933594 222.769531 234.410156 C 222.117188 234.289062 221.503906 234.726562 221.390625 235.375 C 221.273438 236.019531 221.707031 236.640625 222.355469 236.753906 C 223.96875 237.039062 225.589844 237.183594 227.210938 237.183594 C 228.828125 237.183594 230.445312 237.039062 232.046875 236.753906 C 234.570312 236.304688 237.015625 235.503906 239.320312 234.375 C 239.910156 234.085938 240.15625 233.371094 239.867188 232.78125 C 239.578125 232.191406 238.867188 231.945312 238.273438 232.234375 Z M 238.273438 232.234375 " fill-opacity="1" fill-rule="nonzero"/><path fill="#ffffff" d="M 235.800781 237.929688 C 234.371094 238.632812 232.847656 239.132812 231.277344 239.410156 C 229.285156 239.769531 227.253906 239.769531 225.242188 239.410156 C 224.589844 239.292969 223.976562 239.730469 223.863281 240.378906 C 223.746094 241.023438 224.179688 241.644531 224.828125 241.757812 C 225.972656 241.957031 227.121094 242.058594 228.269531 242.058594 C 229.414062 242.058594 230.5625 241.957031 231.695312 241.757812 C 233.484375 241.4375 235.21875 240.867188 236.851562 240.066406 C 237.441406 239.777344 237.6875 239.066406 237.394531 238.476562 C 237.105469 237.882812 236.394531 237.640625 235.800781 237.929688 Z M 235.800781 237.929688 " fill-opacity="1" fill-rule="nonzero"/><path fill="#ffffff" d="M 206.695312 232.140625 C 204.464844 231.410156 202.359375 230.375 200.433594 229.0625 C 197.988281 227.402344 195.882812 225.332031 194.175781 222.917969 C 193.796875 222.382812 193.054688 222.253906 192.515625 222.632812 C 191.980469 223.011719 191.851562 223.753906 192.230469 224.292969 C 194.105469 226.941406 196.414062 229.210938 199.09375 231.035156 C 201.203125 232.46875 203.511719 233.601562 205.953125 234.402344 C 206.078125 234.445312 206.203125 234.464844 206.328125 234.464844 C 206.828125 234.464844 207.292969 234.144531 207.457031 233.644531 C 207.660156 233.019531 207.320312 232.34375 206.695312 232.140625 Z M 206.695312 232.140625 " fill-opacity="1" fill-rule="nonzero"/><path fill="#ffffff" d="M 200.847656 234.449219 C 199.332031 233.953125 197.898438 233.25 196.585938 232.355469 C 194.921875 231.226562 193.488281 229.816406 192.324219 228.171875 C 191.945312 227.632812 191.203125 227.507812 190.664062 227.886719 C 190.128906 228.265625 190 229.007812 190.378906 229.546875 C 191.707031 231.425781 193.34375 233.035156 195.246094 234.328125 C 196.742188 235.34375 198.378906 236.148438 200.105469 236.714844 C 200.230469 236.753906 200.355469 236.773438 200.476562 236.773438 C 200.980469 236.773438 201.445312 236.453125 201.609375 235.953125 C 201.8125 235.328125 201.472656 234.65625 200.847656 234.449219 Z M 200.847656 234.449219 " fill-opacity="1" fill-rule="nonzero"/><path fill="#ffffff" d="M 183.71875 186.851562 C 186.8125 190.347656 190.488281 193.164062 194.5625 195.097656 C 194.613281 195.125 194.664062 195.152344 194.71875 195.171875 C 198.660156 197.015625 202.96875 198.042969 207.484375 198.042969 C 226.15625 198.042969 241.34375 180.644531 241.34375 159.257812 C 241.34375 151.9375 239.5625 145.082031 236.472656 139.234375 C 236.464844 139.214844 236.453125 139.199219 236.445312 139.179688 C 234.410156 135.339844 231.800781 131.9375 228.765625 129.121094 C 228.75 129.101562 228.746094 129.078125 228.730469 129.058594 C 228.679688 129.003906 228.613281 128.976562 228.558594 128.933594 C 225.816406 126.429688 222.734375 124.398438 219.398438 122.960938 C 219.355469 122.9375 219.3125 122.917969 219.265625 122.898438 C 215.59375 121.335938 211.625 120.476562 207.484375 120.476562 C 188.8125 120.476562 173.625 137.871094 173.625 159.257812 C 173.625 165.132812 174.777344 170.703125 176.824219 175.695312 C 176.839844 175.75 176.863281 175.796875 176.882812 175.847656 C 178.5625 179.894531 180.835938 183.5625 183.578125 186.695312 C 183.597656 186.726562 183.605469 186.761719 183.632812 186.789062 C 183.660156 186.816406 183.691406 186.828125 183.71875 186.851562 Z M 186.207031 186.054688 L 234.984375 141.566406 C 236.660156 145.035156 237.855469 148.851562 238.472656 152.894531 L 194.917969 192.625 C 191.699219 190.996094 188.757812 188.769531 186.207031 186.054688 Z M 207.484375 195.660156 C 203.917969 195.660156 200.488281 194.960938 197.285156 193.6875 L 238.820312 155.804688 C 238.914062 156.941406 238.964844 158.09375 238.964844 159.257812 C 238.964844 179.328125 224.84375 195.660156 207.484375 195.660156 Z M 233.839844 139.382812 L 184.636719 184.261719 C 182.550781 181.714844 180.78125 178.824219 179.398438 175.664062 L 227.820312 131.5 C 230.140625 133.777344 232.167969 136.429688 233.839844 139.382812 Z M 176.324219 164.394531 L 219.058594 125.414062 C 221.5625 126.5625 223.910156 128.070312 226.054688 129.886719 L 178.449219 173.308594 C 177.425781 170.5 176.707031 167.507812 176.324219 164.394531 Z M 207.484375 122.855469 C 210.660156 122.855469 213.722656 123.40625 216.613281 124.421875 L 176.0625 161.40625 C 176.027344 160.695312 176.003906 159.980469 176.003906 159.257812 C 176.003906 139.1875 190.128906 122.855469 207.484375 122.855469 Z M 207.484375 122.855469 " fill-opacity="1" fill-rule="nonzero"/></svg>