<svg xmlns="http://www.w3.org/2000/svg" xmlns:xlink="http://www.w3.org/1999/xlink" width="500" zoomAndPan="magnify" viewBox="0 0 375 374.999991" height="500" preserveAspectRatio="xMidYMid meet" version="1.0"><defs><clipPath id="b6c6765544"><path d="M 140.5625 112.5 L 234.3125 112.5 L 234.3125 262 L 140.5625 262 Z M 140.5625 112.5 " clip-rule="nonzero"/></clipPath></defs><rect x="-37.5" width="450" fill="#ffffff" y="-37.499999" height="449.999989" fill-opacity="1"/><rect x="-37.5" width="450" fill="#eba4ad" y="-37.499999" height="449.999989" fill-opacity="1"/><g clip-path="url(#b6c6765544)"><path fill="#ffffff" d="M 194.636719 112.5 C 194.484375 112.496094 194.34375 112.511719 194.234375 112.546875 C 193.105469 112.902344 190.722656 119.089844 190.707031 121.707031 C 190.695312 123.929688 188.90625 131.277344 187.089844 136.570312 C 186.445312 138.457031 185.71875 140.578125 185.480469 141.285156 C 185.242188 141.992188 184.410156 144.210938 183.628906 146.210938 C 182.851562 148.214844 181.921875 151.6875 181.570312 153.925781 C 181.21875 156.164062 180.605469 158.867188 180.207031 159.925781 C 179.214844 162.574219 179.867188 167.730469 182.140625 175.285156 C 183.089844 178.425781 183.863281 181.324219 183.863281 181.71875 C 183.863281 182.117188 182.121094 184.175781 179.992188 186.289062 C 177.378906 188.890625 176.160156 190.40625 176.242188 190.964844 C 176.332031 191.578125 177.125 192.019531 179.363281 192.703125 C 182.691406 193.71875 188.128906 196.433594 189.195312 197.609375 C 189.832031 198.3125 189.742188 198.613281 187.933594 201.753906 C 186.863281 203.613281 185.171875 206.3125 184.175781 207.75 C 183.179688 209.1875 180.933594 212.578125 179.1875 215.285156 C 175.5625 220.90625 176.15625 220.5625 167.792969 221.839844 C 156.648438 223.542969 147.289062 226.855469 144.417969 230.117188 C 142.324219 232.496094 140.578125 237.507812 140.585938 241.136719 C 140.59375 247.152344 144.671875 251.472656 149.492188 250.566406 C 153.734375 249.769531 159.3125 244.953125 168.476562 234.171875 C 174.550781 227.027344 176.050781 225.492188 176.964844 225.488281 C 178.878906 225.480469 182.515625 223.46875 184.867188 221.113281 C 187.539062 218.441406 190.492188 213.644531 191.597656 210.179688 L 192.386719 207.707031 L 192.410156 214.011719 C 192.433594 220.429688 192.234375 223.03125 190.648438 237.0625 C 189.175781 250.066406 190.015625 256.65625 193.542969 259.75 C 196.632812 262.460938 201.214844 261.015625 205.882812 255.859375 C 209.648438 251.699219 210.605469 249.359375 210.796875 243.863281 C 211.070312 235.902344 209.296875 232.546875 202.824219 228.78125 C 201 227.71875 198.707031 226.351562 197.734375 225.742188 C 196.761719 225.132812 195.734375 224.636719 195.449219 224.636719 C 195.0625 224.636719 195.003906 223.492188 195.21875 220.027344 C 195.46875 215.96875 195.105469 208.234375 194.324219 201.066406 L 194.066406 198.707031 L 196.839844 195.871094 C 198.363281 194.308594 201.609375 191.488281 204.058594 189.597656 C 209.5625 185.347656 212.335938 182.441406 214.585938 178.566406 C 216.71875 174.894531 219.003906 170.375 219.003906 169.832031 C 219.003906 169.613281 219.746094 168.113281 220.65625 166.5 C 222.738281 162.8125 225.429688 156.109375 225.429688 154.613281 C 225.429688 153.988281 226.105469 152.136719 226.929688 150.5 C 227.757812 148.859375 228.429688 147.289062 228.429688 147.007812 C 228.429688 146.726562 228.710938 146.183594 229.054688 145.804688 C 229.859375 144.917969 231.949219 136.664062 231.601562 135.753906 C 231.453125 135.371094 231.550781 134.796875 231.816406 134.476562 C 232.570312 133.574219 234.429688 127.785156 234.429688 126.351562 C 234.429688 123.644531 231.558594 122.445312 230.429688 124.679688 C 230.101562 125.328125 229.597656 126.628906 229.3125 127.570312 C 229.027344 128.515625 228.71875 129.527344 228.625 129.824219 C 228.507812 130.199219 227.835938 129.984375 226.40625 129.109375 C 221.699219 126.226562 205.449219 120.722656 197.863281 119.441406 C 196.546875 119.21875 196.273438 119.019531 196.5 118.4375 C 196.652344 118.039062 196.886719 116.820312 197.019531 115.726562 C 197.234375 113.929688 197.148438 113.664062 196.152344 113.011719 C 195.691406 112.710938 195.097656 112.519531 194.636719 112.5 Z M 196.253906 122.019531 C 201.261719 122.191406 219.101562 128.171875 225.496094 131.96875 C 229.027344 134.066406 229.300781 135.042969 227.921875 140.640625 C 227.660156 141.703125 227.328125 142.707031 227.183594 142.875 C 227.039062 143.042969 226.324219 142.714844 225.597656 142.144531 C 223.105469 140.195312 216.644531 137.257812 210.003906 135.0625 C 202.804688 132.679688 194.253906 130.355469 192.675781 130.355469 L 191.6875 130.355469 L 192.644531 126.765625 C 193.8125 122.394531 193.816406 122.386719 195.433594 122.066406 C 195.644531 122.023438 195.921875 122.007812 196.253906 122.019531 Z M 192.347656 133.015625 C 194.082031 133.039062 198.808594 134.34375 207.003906 137.050781 C 215.433594 139.839844 221.863281 142.710938 224.515625 144.878906 L 225.957031 146.054688 L 225.042969 147.847656 C 224.042969 149.804688 223.675781 149.933594 221.867188 148.953125 C 214.964844 145.210938 195.433594 138.957031 190.582031 138.933594 C 189.089844 138.929688 188.972656 138.84375 189.238281 137.964844 C 189.917969 135.695312 191.15625 133.328125 191.789062 133.082031 C 191.914062 133.035156 192.101562 133.011719 192.347656 133.015625 Z M 190.851562 141.546875 C 191.730469 141.5625 192.902344 141.769531 194.578125 142.15625 C 202.734375 144.050781 222.195312 151.53125 222.753906 152.984375 C 223.078125 153.828125 222.234375 156.929688 220.808594 160.140625 C 219.113281 163.960938 217.851562 166.058594 217.550781 165.570312 C 216.296875 163.546875 190.214844 154.355469 185.71875 154.355469 L 184.214844 154.355469 L 184.519531 152.535156 C 185.007812 149.597656 187.359375 143.535156 188.417969 142.476562 C 188.992188 141.902344 189.574219 141.601562 190.492188 141.554688 C 190.605469 141.546875 190.726562 141.546875 190.851562 141.546875 Z M 185.660156 156.925781 C 186.636719 156.925781 195.054688 159.378906 200.675781 161.296875 L 203.558594 162.285156 L 195.125 170.746094 C 190.488281 175.402344 186.554688 179.210938 186.382812 179.210938 C 186.214844 179.210938 185.9375 178.582031 185.773438 177.816406 C 185.605469 177.050781 184.917969 174.628906 184.246094 172.433594 C 183.574219 170.238281 182.894531 166.9375 182.742188 165.097656 C 182.492188 162.078125 182.570312 161.515625 183.566406 159.339844 C 184.445312 157.425781 184.878906 156.925781 185.660156 156.925781 Z M 206.792969 163.359375 L 209.570312 164.671875 C 212.910156 166.25 212.722656 166.078125 212.359375 167.214844 C 211.558594 169.742188 204.742188 176.335938 194.085938 184.890625 C 191.8125 186.714844 189.753906 188.210938 189.507812 188.210938 C 189.128906 188.210938 187.292969 184.023438 187.292969 183.15625 C 187.292969 182.984375 191.679688 178.460938 197.042969 173.101562 Z M 215.691406 167.96875 C 215.792969 167.96875 215.898438 168.003906 216.011719 168.074219 C 216.511719 168.382812 216.148438 169.382812 214.066406 173.441406 C 210.757812 179.882812 208.65625 182.453125 202.980469 186.980469 C 200.429688 189.011719 196.953125 192.054688 195.257812 193.742188 L 192.175781 196.804688 L 191.382812 194.160156 C 190.886719 192.503906 190.734375 191.3125 190.976562 190.976562 C 191.1875 190.683594 194.351562 188.074219 198.003906 185.175781 C 205.09375 179.558594 213.660156 171.308594 214.742188 169.058594 C 215.109375 168.304688 215.386719 167.96875 215.691406 167.96875 Z M 184.953125 185.21875 L 186.550781 189 C 187.429688 191.078125 188.148438 192.910156 188.148438 193.066406 C 188.148438 193.523438 187.683594 193.363281 184.503906 191.832031 C 182.855469 191.035156 181.265625 190.378906 180.96875 190.367188 C 180.023438 190.339844 180.386719 189.726562 182.691406 187.449219 Z M 189.75 204.847656 C 189.761719 204.851562 189.769531 204.859375 189.773438 204.875 C 190.046875 205.683594 188.613281 210.449219 187.339844 212.96875 C 185.578125 216.460938 182.859375 219.761719 180.53125 221.238281 C 179.441406 221.929688 178.410156 222.492188 178.234375 222.492188 C 177.902344 222.492188 183.089844 214.132812 187.226562 208 C 188.382812 206.285156 189.40625 204.992188 189.695312 204.859375 C 189.71875 204.851562 189.734375 204.847656 189.75 204.847656 Z M 171.820312 224.207031 C 173.078125 224.207031 172.742188 224.757812 168.414062 229.777344 C 166.484375 232.015625 163.582031 235.421875 161.96875 237.339844 C 159.191406 240.652344 154.191406 245.09375 151.171875 246.933594 C 149.6875 247.839844 147.253906 248.019531 146.042969 247.3125 C 145.097656 246.761719 143.742188 244.144531 143.367188 242.140625 C 143.019531 240.285156 144.457031 235.011719 145.933594 232.738281 C 147.042969 231.027344 149.78125 229.542969 155.367188 227.625 C 159.621094 226.164062 169.050781 224.207031 171.820312 224.207031 Z M 163.941406 226.363281 C 162.972656 226.324219 161.410156 226.773438 159.152344 227.648438 C 153.347656 229.894531 149.097656 232.371094 147.5625 234.402344 C 145.210938 237.519531 144.707031 241.558594 146.460938 243.308594 C 149.441406 246.289062 161.53125 237.890625 164.300781 230.914062 C 165.519531 227.84375 165.554688 226.425781 163.941406 226.363281 Z M 194.628906 227.21875 L 195.78125 228.011719 C 196.414062 228.445312 198.410156 229.625 200.214844 230.628906 C 206.632812 234.203125 208.019531 236.371094 208.027344 242.847656 C 208.03125 246.613281 207.894531 247.417969 206.894531 249.488281 C 205.519531 252.34375 201.792969 256.355469 199.378906 257.589844 C 198.40625 258.085938 197.335938 258.488281 197 258.488281 C 195.8125 258.488281 194.558594 256.960938 193.664062 254.417969 C 192.226562 250.34375 192.339844 246.5 194.414062 229.03125 Z M 161.242188 229.914062 C 161.363281 229.910156 161.441406 229.925781 161.480469 229.964844 C 162.269531 230.753906 156.519531 236.753906 152.546875 239.289062 C 151.230469 240.128906 149.707031 240.957031 149.164062 241.128906 C 148.207031 241.433594 148.179688 241.375 148.394531 239.46875 C 148.722656 236.554688 150.300781 234.785156 154.417969 232.714844 C 157.742188 231.042969 160.417969 229.953125 161.242188 229.914062 Z M 197.84375 230.386719 C 197.707031 230.386719 197.585938 230.402344 197.492188 230.441406 C 195.75 231.140625 194.167969 238.183594 194.15625 245.285156 C 194.148438 249.710938 194.523438 251.273438 195.964844 252.8125 C 196.53125 253.414062 197.371094 253.777344 198.214844 253.777344 C 201.121094 253.777344 204.523438 247.742188 204.792969 242.109375 C 204.9375 239.109375 204.824219 238.523438 203.597656 235.902344 C 202.851562 234.308594 201.914062 232.636719 201.515625 232.1875 C 200.722656 231.296875 198.808594 230.398438 197.84375 230.386719 Z M 198.757812 233.753906 C 199.527344 233.835938 201.832031 238.453125 202.121094 240.554688 C 202.414062 242.699219 201.210938 246.789062 199.484375 249.523438 C 198.898438 250.449219 198.332031 251.203125 198.226562 251.203125 C 198.117188 251.203125 197.707031 250.582031 197.3125 249.824219 C 196.710938 248.664062 196.640625 247.613281 196.859375 243.289062 C 197.132812 237.929688 197.882812 234.023438 198.6875 233.761719 C 198.710938 233.753906 198.730469 233.75 198.757812 233.753906 Z M 198.757812 233.753906 " fill-opacity="1" fill-rule="nonzero"/></g></svg>