<svg xmlns="http://www.w3.org/2000/svg" xmlns:xlink="http://www.w3.org/1999/xlink" width="500" zoomAndPan="magnify" viewBox="0 0 375 374.999991" height="500" preserveAspectRatio="xMidYMid meet" version="1.0"><defs><clipPath id="18de80ebb1"><path d="M 112.5 112.5 L 262.5 112.5 L 262.5 262.5 L 112.5 262.5 Z M 112.5 112.5 " clip-rule="nonzero"/></clipPath></defs><rect x="-37.5" width="450" fill="#ffffff" y="-37.499999" height="449.999989" fill-opacity="1"/><rect x="-37.5" width="450" fill="#eba4ad" y="-37.499999" height="449.999989" fill-opacity="1"/><g clip-path="url(#18de80ebb1)"><path fill="#ffffff" d="M 187.5 112.53125 C 146.097656 112.53125 112.53125 146.097656 112.53125 187.5 C 112.53125 228.902344 146.097656 262.46875 187.5 262.46875 C 228.902344 262.46875 262.46875 228.902344 262.46875 187.5 C 262.46875 146.097656 228.902344 112.53125 187.5 112.53125 Z M 187.5 253.8125 C 150.875 253.8125 121.1875 224.125 121.1875 187.5 C 121.1875 150.875 150.875 121.1875 187.5 121.1875 C 224.125 121.1875 253.8125 150.875 253.8125 187.5 C 253.8125 224.125 224.125 253.8125 187.5 253.8125 Z M 187.5 253.8125 " fill-opacity="1" fill-rule="nonzero"/></g><path fill="#ffffff" d="M 199.417969 187.5 C 199.417969 188.28125 199.339844 189.058594 199.1875 189.824219 C 199.035156 190.59375 198.808594 191.335938 198.507812 192.058594 C 198.210938 192.78125 197.84375 193.46875 197.40625 194.121094 C 196.972656 194.769531 196.480469 195.371094 195.925781 195.925781 C 195.371094 196.480469 194.769531 196.972656 194.121094 197.40625 C 193.46875 197.84375 192.78125 198.210938 192.058594 198.507812 C 191.335938 198.808594 190.59375 199.035156 189.824219 199.1875 C 189.058594 199.339844 188.28125 199.417969 187.5 199.417969 C 186.71875 199.417969 185.941406 199.339844 185.175781 199.1875 C 184.40625 199.035156 183.664062 198.808594 182.941406 198.507812 C 182.21875 198.210938 181.53125 197.84375 180.878906 197.40625 C 180.230469 196.972656 179.628906 196.480469 179.074219 195.925781 C 178.519531 195.371094 178.027344 194.769531 177.59375 194.121094 C 177.15625 193.46875 176.789062 192.78125 176.492188 192.058594 C 176.191406 191.335938 175.964844 190.59375 175.8125 189.824219 C 175.660156 189.058594 175.582031 188.28125 175.582031 187.5 C 175.582031 186.71875 175.660156 185.941406 175.8125 185.175781 C 175.964844 184.40625 176.191406 183.664062 176.492188 182.941406 C 176.789062 182.21875 177.15625 181.53125 177.59375 180.878906 C 178.027344 180.230469 178.519531 179.628906 179.074219 179.074219 C 179.628906 178.519531 180.230469 178.027344 180.878906 177.59375 C 181.53125 177.15625 182.21875 176.789062 182.941406 176.492188 C 183.664062 176.191406 184.40625 175.964844 185.175781 175.8125 C 185.941406 175.660156 186.71875 175.582031 187.5 175.582031 C 188.28125 175.582031 189.058594 175.660156 189.824219 175.8125 C 190.59375 175.964844 191.335938 176.191406 192.058594 176.492188 C 192.78125 176.789062 193.46875 177.15625 194.121094 177.59375 C 194.769531 178.027344 195.371094 178.519531 195.925781 179.074219 C 196.480469 179.628906 196.972656 180.230469 197.40625 180.878906 C 197.84375 181.53125 198.210938 182.21875 198.507812 182.941406 C 198.808594 183.664062 199.035156 184.40625 199.1875 185.175781 C 199.339844 185.941406 199.417969 186.71875 199.417969 187.5 Z M 199.417969 187.5 " fill-opacity="1" fill-rule="nonzero"/><path fill="#ffffff" d="M 158.917969 187.5 C 158.917969 188.28125 158.839844 189.058594 158.6875 189.824219 C 158.535156 190.59375 158.308594 191.335938 158.007812 192.058594 C 157.710938 192.78125 157.34375 193.46875 156.90625 194.121094 C 156.472656 194.769531 155.980469 195.371094 155.425781 195.925781 C 154.871094 196.480469 154.269531 196.972656 153.621094 197.40625 C 152.96875 197.84375 152.28125 198.210938 151.558594 198.507812 C 150.835938 198.808594 150.09375 199.035156 149.324219 199.1875 C 148.558594 199.339844 147.78125 199.417969 147 199.417969 C 146.21875 199.417969 145.441406 199.339844 144.675781 199.1875 C 143.90625 199.035156 143.164062 198.808594 142.441406 198.507812 C 141.71875 198.210938 141.03125 197.84375 140.378906 197.40625 C 139.730469 196.972656 139.128906 196.480469 138.574219 195.925781 C 138.019531 195.371094 137.527344 194.769531 137.09375 194.121094 C 136.65625 193.46875 136.289062 192.78125 135.992188 192.058594 C 135.691406 191.335938 135.464844 190.59375 135.3125 189.824219 C 135.160156 189.058594 135.082031 188.28125 135.082031 187.5 C 135.082031 186.71875 135.160156 185.941406 135.3125 185.175781 C 135.464844 184.40625 135.691406 183.664062 135.992188 182.941406 C 136.289062 182.21875 136.65625 181.53125 137.09375 180.878906 C 137.527344 180.230469 138.019531 179.628906 138.574219 179.074219 C 139.128906 178.519531 139.730469 178.027344 140.378906 177.59375 C 141.03125 177.15625 141.71875 176.789062 142.441406 176.492188 C 143.164062 176.191406 143.90625 175.964844 144.675781 175.8125 C 145.441406 175.660156 146.21875 175.582031 147 175.582031 C 147.78125 175.582031 148.558594 175.660156 149.324219 175.8125 C 150.09375 175.964844 150.835938 176.191406 151.558594 176.492188 C 152.28125 176.789062 152.96875 177.15625 153.621094 177.59375 C 154.269531 178.027344 154.871094 178.519531 155.425781 179.074219 C 155.980469 179.628906 156.472656 180.230469 156.90625 180.878906 C 157.34375 181.53125 157.710938 182.21875 158.007812 182.941406 C 158.308594 183.664062 158.535156 184.40625 158.6875 185.175781 C 158.839844 185.941406 158.917969 186.71875 158.917969 187.5 Z M 158.917969 187.5 " fill-opacity="1" fill-rule="nonzero"/><path fill="#ffffff" d="M 239.917969 187.5 C 239.917969 188.28125 239.839844 189.058594 239.6875 189.824219 C 239.535156 190.59375 239.308594 191.335938 239.007812 192.058594 C 238.710938 192.78125 238.34375 193.46875 237.90625 194.121094 C 237.472656 194.769531 236.980469 195.371094 236.425781 195.925781 C 235.871094 196.480469 235.269531 196.972656 234.621094 197.40625 C 233.96875 197.84375 233.28125 198.210938 232.558594 198.507812 C 231.835938 198.808594 231.09375 199.035156 230.324219 199.1875 C 229.558594 199.339844 228.78125 199.417969 228 199.417969 C 227.21875 199.417969 226.441406 199.339844 225.675781 199.1875 C 224.90625 199.035156 224.164062 198.808594 223.441406 198.507812 C 222.71875 198.210938 222.03125 197.84375 221.378906 197.40625 C 220.730469 196.972656 220.128906 196.480469 219.574219 195.925781 C 219.019531 195.371094 218.527344 194.769531 218.09375 194.121094 C 217.65625 193.46875 217.289062 192.78125 216.992188 192.058594 C 216.691406 191.335938 216.464844 190.59375 216.3125 189.824219 C 216.160156 189.058594 216.082031 188.28125 216.082031 187.5 C 216.082031 186.71875 216.160156 185.941406 216.3125 185.175781 C 216.464844 184.40625 216.691406 183.664062 216.992188 182.941406 C 217.289062 182.21875 217.65625 181.53125 218.09375 180.878906 C 218.527344 180.230469 219.019531 179.628906 219.574219 179.074219 C 220.128906 178.519531 220.730469 178.027344 221.378906 177.59375 C 222.03125 177.15625 222.71875 176.789062 223.441406 176.492188 C 224.164062 176.191406 224.90625 175.964844 225.675781 175.8125 C 226.441406 175.660156 227.21875 175.582031 228 175.582031 C 228.78125 175.582031 229.558594 175.660156 230.324219 175.8125 C 231.09375 175.964844 231.835938 176.191406 232.558594 176.492188 C 233.28125 176.789062 233.96875 177.15625 234.621094 177.59375 C 235.269531 178.027344 235.871094 178.519531 236.425781 179.074219 C 236.980469 179.628906 237.472656 180.230469 237.90625 180.878906 C 238.34375 181.53125 238.710938 182.21875 239.007812 182.941406 C 239.308594 183.664062 239.535156 184.40625 239.6875 185.175781 C 239.839844 185.941406 239.917969 186.71875 239.917969 187.5 Z M 239.917969 187.5 " fill-opacity="1" fill-rule="nonzero"/></svg>