<svg xmlns="http://www.w3.org/2000/svg" xmlns:xlink="http://www.w3.org/1999/xlink" width="500" zoomAndPan="magnify" viewBox="0 0 375 374.999991" height="500" preserveAspectRatio="xMidYMid meet" version="1.0"><defs><clipPath id="9ad227d368"><path d="M 35.277344 186.214844 L 337.5 186.214844 L 337.5 225.25 L 35.277344 225.25 Z M 35.277344 186.214844 " clip-rule="nonzero"/></clipPath><clipPath id="a9c73278b4"><path d="M 87.1875 46 L 287.8125 46 L 287.8125 337.5 L 87.1875 337.5 Z M 87.1875 46 " clip-rule="nonzero"/></clipPath><clipPath id="bdc4a48054"><path d="M 87.1875 51 L 287.8125 51 L 287.8125 337.5 L 87.1875 337.5 Z M 87.1875 51 " clip-rule="nonzero"/></clipPath></defs><rect x="-37.5" width="450" fill="#ffffff" y="-37.499999" height="449.999989" fill-opacity="1"/><rect x="-37.5" width="450" fill="#eba4ad" y="-37.499999" height="449.999989" fill-opacity="1"/><g clip-path="url(#9ad227d368)"><path fill="#eba4ad" d="M 35.277344 186.214844 L 337.5 186.214844 L 337.5 225.25 L 35.277344 225.25 Z M 35.277344 186.214844 " fill-opacity="1" fill-rule="nonzero"/></g><g clip-path="url(#a9c73278b4)"><path fill="#434345" d="M 90.332031 262.425781 C 90.332031 262.484375 90.332031 262.542969 90.332031 262.664062 C 90.332031 262.605469 90.332031 262.484375 90.332031 262.425781 Z M 97.699219 230.457031 C 97.277344 231.175781 96.859375 231.890625 96.5 232.671875 C 96.917969 231.890625 97.277344 231.175781 97.699219 230.457031 Z M 117.273438 211.777344 C 117.09375 211.894531 116.855469 212.015625 116.675781 212.136719 C 116.855469 211.957031 117.035156 211.835938 117.273438 211.777344 Z M 90.332031 262.425781 C 90.332031 262.484375 90.332031 262.542969 90.332031 262.664062 C 90.332031 262.605469 90.332031 262.484375 90.332031 262.425781 Z M 96.558594 232.609375 C 96.917969 231.890625 97.339844 231.113281 97.757812 230.394531 C 97.339844 231.175781 96.917969 231.890625 96.558594 232.609375 Z M 116.675781 212.074219 C 116.617188 212.074219 116.617188 212.074219 116.675781 212.074219 C 116.855469 211.957031 117.09375 211.835938 117.273438 211.714844 C 117.035156 211.835938 116.855469 211.957031 116.675781 212.074219 Z M 97.699219 230.457031 C 97.277344 231.175781 96.859375 231.890625 96.5 232.671875 C 96.917969 231.890625 97.277344 231.175781 97.699219 230.457031 Z M 117.273438 211.777344 C 117.09375 211.894531 116.855469 212.015625 116.675781 212.136719 C 116.855469 211.957031 117.035156 211.835938 117.273438 211.777344 Z M 90.332031 262.425781 C 90.332031 262.484375 90.332031 262.542969 90.332031 262.664062 C 90.332031 262.605469 90.332031 262.484375 90.332031 262.425781 Z M 89.914062 244.523438 C 92.128906 234.347656 97.039062 225.128906 104.582031 217.882812 C 107.875 214.769531 111.585938 212.074219 115.597656 209.921875 C 114.460938 207.585938 113.621094 205.132812 113.742188 201.179688 C 114.101562 189.324219 122.601562 186.570312 124.039062 176.09375 C 125.777344 163.582031 115.058594 156.816406 108.953125 144.902344 C 96.917969 121.554688 104.28125 81.863281 129.847656 60.847656 C 158.222656 37.5 195.460938 48.394531 200.074219 49.832031 C 229.527344 59.050781 257.125 86.832031 254.730469 110.417969 C 253.476562 123.171875 244.195312 127.242188 246.050781 140.890625 C 248.148438 155.980469 260.539062 158.671875 260.777344 172.683594 C 260.957031 185.316406 251.082031 187.890625 252.515625 199.382812 C 253.175781 204.472656 255.511719 207.585938 258.265625 210.578125 C 259.640625 208.902344 261.316406 207.40625 262.992188 206.089844 C 262.8125 201.777344 262.875 197.46875 263.054688 193.15625 C 263.234375 190.105469 263.171875 186.453125 264.96875 183.816406 C 265.867188 182.5 267.246094 181.363281 268.859375 181.304688 C 270.359375 181.242188 271.554688 182.140625 272.273438 183.398438 C 273.050781 184.714844 273.292969 186.332031 273.53125 187.828125 C 273.828125 189.746094 274.070312 191.660156 274.25 193.636719 C 274.308594 194.414062 274.367188 195.253906 274.367188 196.03125 C 274.726562 195.132812 275.148438 194.234375 275.566406 193.335938 C 276.34375 191.71875 277.183594 190.105469 278.140625 188.546875 C 279.039062 187.050781 279.996094 185.375 281.195312 184.117188 C 282.570312 182.679688 284.488281 182.980469 285.625 184.535156 C 286.640625 185.914062 287 187.648438 287.0625 189.324219 C 287.0625 193.039062 285.503906 196.691406 284.425781 200.164062 C 283.769531 202.136719 283.167969 204.113281 282.511719 206.148438 C 282.273438 206.867188 281.972656 207.585938 281.972656 208.363281 C 281.972656 208.605469 281.972656 208.84375 282.03125 208.902344 C 282.332031 208.066406 283.648438 207.707031 284.1875 208.664062 C 284.847656 209.859375 285.382812 211.117188 285.863281 212.375 C 287.660156 217.582031 287.660156 223.332031 287.421875 228.777344 C 287.121094 234.886719 286.640625 241.050781 285.984375 247.160156 C 284.667969 259.371094 282.691406 271.464844 279.9375 283.4375 C 278.558594 289.425781 277.003906 295.414062 275.265625 301.28125 C 273.828125 306.308594 272.394531 311.457031 269.9375 316.128906 C 267.605469 320.558594 264.132812 324.269531 259.34375 326.066406 C 254.671875 327.800781 249.34375 327.382812 244.675781 325.824219 C 235.09375 322.53125 228.808594 314.332031 223.242188 306.25 C 223.242188 307.085938 223.179688 307.984375 223.121094 308.824219 C 222.941406 312.234375 222.523438 315.828125 221.265625 319 C 221.027344 319.058594 220.785156 319.058594 220.546875 319.121094 C 220.425781 318.640625 220.308594 318.222656 220.246094 317.742188 C 220.128906 317.203125 219.949219 316.785156 219.648438 316.367188 C 219.289062 317.683594 218.75 319 218.03125 320.199219 C 215.339844 324.808594 210.25 326.605469 205.402344 327.921875 C 193.546875 331.214844 181.394531 333.191406 169.121094 333.789062 C 156.847656 334.445312 144.515625 333.789062 132.359375 331.8125 C 131.105469 331.632812 129.90625 331.394531 128.710938 331.152344 C 128.710938 331.152344 128.710938 331.09375 128.710938 331.09375 C 127.929688 331.214844 127.152344 331.332031 126.375 331.511719 C 126.375 331.632812 126.433594 331.753906 126.496094 331.871094 C 126.375 332.171875 126.375 332.53125 126.496094 332.832031 C 115.597656 334.085938 104.703125 335.226562 93.804688 336.242188 C 93.625 336.242188 93.507812 336.300781 93.386719 336.363281 C 93.386719 336.363281 93.386719 336.300781 93.386719 336.300781 C 92.550781 336.660156 91.832031 337.019531 91.113281 337.5 C 90.511719 331.511719 90.035156 325.585938 89.617188 319.597656 C 88.71875 306.726562 88.117188 293.796875 87.878906 280.863281 C 87.757812 268.710938 87.339844 256.378906 89.914062 244.523438 Z M 116.675781 212.074219 C 116.855469 211.957031 117.09375 211.835938 117.273438 211.714844 C 117.035156 211.835938 116.855469 211.957031 116.675781 212.074219 C 116.617188 212.074219 116.617188 212.074219 116.675781 212.074219 Z M 97.699219 230.457031 C 97.277344 231.175781 96.859375 231.890625 96.5 232.671875 C 96.917969 231.890625 97.339844 231.175781 97.699219 230.457031 Z M 90.332031 262.664062 C 90.332031 262.605469 90.332031 262.542969 90.332031 262.425781 C 90.332031 262.484375 90.332031 262.605469 90.332031 262.664062 Z M 90.332031 262.664062 " fill-opacity="1" fill-rule="nonzero"/></g><path fill="#434345" d="M 252.515625 199.382812 C 251.082031 187.890625 261.019531 185.316406 260.777344 172.683594 C 260.539062 158.671875 248.148438 155.980469 246.050781 140.890625 C 244.136719 127.242188 253.414062 123.171875 254.730469 110.417969 C 257.125 86.832031 229.527344 59.050781 200.011719 49.894531 C 195.34375 48.457031 158.164062 37.558594 129.785156 60.910156 C 104.222656 81.921875 96.859375 121.613281 108.894531 144.964844 C 115 156.816406 125.714844 163.582031 123.980469 176.15625 C 122.542969 186.632812 114.042969 189.386719 113.683594 201.238281 C 113.382812 210.878906 118.949219 211.777344 120.089844 223.269531 C 121.464844 237.101562 113.980469 241.769531 115.476562 251.769531 C 117.335938 264.519531 131.582031 272.242188 138.648438 276.074219 C 177.082031 297.027344 242.101562 288.828125 261.378906 254.640625 C 264.070312 249.792969 271.316406 236.980469 267.425781 224.109375 C 263.832031 212.253906 253.894531 210.578125 252.515625 199.382812 Z M 252.515625 199.382812 " fill-opacity="1" fill-rule="nonzero"/><path fill="#f9dec2" d="M 238.566406 157.835938 C 234.855469 164.0625 227.972656 167.953125 220.90625 169.148438 C 219.589844 169.390625 218.691406 169.449219 217.554688 169.148438 C 217.3125 168.972656 217.015625 168.851562 216.777344 168.910156 C 215.457031 168.433594 214.140625 167.773438 212.824219 167.234375 C 211.625 166.816406 210.371094 166.457031 209.171875 167.113281 C 208.035156 167.714844 207.136719 168.792969 206.296875 169.75 C 205.28125 170.886719 204.324219 172.144531 203.363281 173.339844 C 202.40625 174.480469 201.328125 175.496094 200.191406 176.453125 C 199.894531 176.695312 199.59375 176.933594 199.355469 177.171875 C 199.234375 177.234375 199.175781 177.234375 199.054688 177.292969 C 198.816406 177.414062 198.636719 177.589844 198.515625 177.832031 C 195.761719 179.988281 192.886719 181.902344 189.65625 183.21875 C 182.769531 186.152344 174.988281 186.8125 167.5625 186.273438 C 153.253906 185.195312 138.46875 179.507812 128.589844 168.851562 C 126.195312 166.277344 124.097656 163.34375 122.601562 160.171875 C 120.808594 156.519531 119.789062 152.445312 119.308594 148.4375 C 118.230469 139.933594 119.429688 131.375 119.191406 122.871094 C 119.128906 121.734375 119.128906 120.597656 119.011719 119.398438 C 118.53125 118.679688 118.230469 117.785156 118.230469 116.707031 C 118.652344 102.039062 128.410156 88.6875 141.042969 81.265625 C 148.046875 75.335938 156.128906 70.964844 165.589844 69.769531 C 173.851562 68.75 182.410156 71.265625 188.457031 76.535156 C 188.339844 75.996094 188.21875 75.515625 188.097656 74.976562 C 186.78125 69.171875 194.804688 67.136719 196.898438 72.523438 C 201.867188 85.515625 206.058594 98.984375 207.617188 112.875 C 210.96875 117.304688 214.261719 121.792969 217.613281 126.226562 C 219.589844 128.859375 218.152344 131.914062 215.757812 133.46875 C 217.3125 136.882812 218.09375 140.59375 217.671875 144.425781 C 217.554688 145.5625 217.195312 146.578125 216.777344 147.65625 C 216.535156 148.257812 216.417969 148.855469 216.238281 149.394531 C 216.058594 149.933594 215.757812 150.410156 215.519531 150.890625 C 214.980469 151.847656 214.082031 152.625 213.363281 153.464844 C 212.585938 154.304688 211.449219 154.601562 210.429688 155.082031 C 210.371094 155.140625 210.308594 155.140625 210.25 155.199219 C 209.710938 155.261719 209.292969 155.859375 209.292969 156.398438 C 209.292969 157.117188 209.832031 157.535156 210.488281 157.597656 C 213.304688 157.894531 215.339844 155.261719 217.015625 153.40625 C 218.929688 151.371094 220.726562 149.214844 221.265625 146.460938 C 221.386719 145.800781 221.503906 145.082031 221.683594 144.425781 C 221.804688 143.945312 221.984375 143.46875 222.105469 142.929688 C 224.378906 141.671875 226.773438 140.59375 229.289062 139.933594 C 231.683594 139.277344 234.4375 139.035156 236.652344 140.234375 C 239.285156 141.671875 240.542969 144.902344 240.902344 147.71875 C 241.320312 151.191406 240.363281 154.722656 238.566406 157.835938 Z M 233.300781 154.003906 C 233.238281 153.34375 233 152.804688 232.402344 152.445312 C 232.222656 152.328125 231.980469 152.265625 231.800781 152.207031 C 231.800781 152.207031 231.683594 152.148438 231.683594 152.148438 C 231.621094 152.085938 231.5625 152.085938 231.441406 152.027344 C 230.546875 151.488281 229.648438 151.070312 228.628906 150.949219 C 228.03125 150.890625 227.492188 150.832031 226.894531 150.832031 C 226.292969 150.832031 225.695312 150.769531 225.097656 150.949219 C 224.199219 151.191406 223.121094 151.609375 222.523438 152.386719 C 222.105469 152.867188 222.042969 153.585938 222.523438 154.0625 C 222.941406 154.484375 223.839844 154.601562 224.199219 154.0625 C 224.4375 153.765625 224.5 153.765625 224.859375 153.585938 C 224.859375 153.585938 224.859375 153.585938 224.917969 153.585938 C 224.976562 153.523438 225.097656 153.523438 225.21875 153.464844 C 225.398438 153.40625 225.515625 153.34375 225.695312 153.285156 C 225.996094 153.226562 226.414062 153.226562 226.773438 153.285156 C 227.191406 153.285156 227.613281 153.285156 227.972656 153.34375 C 228.570312 153.40625 229.289062 153.585938 229.828125 153.945312 C 230.1875 154.183594 230.546875 154.421875 230.964844 154.542969 C 230.964844 154.542969 231.023438 154.542969 231.023438 154.542969 C 231.203125 154.960938 231.621094 155.199219 232.101562 155.199219 C 232.761719 155.199219 233.359375 154.601562 233.300781 154.003906 Z M 285.144531 224.949219 C 285.085938 230.695312 284.605469 236.441406 284.128906 242.191406 C 283.050781 254.042969 281.253906 265.777344 278.859375 277.390625 C 277.660156 283.199219 276.285156 288.945312 274.726562 294.632812 C 273.292969 299.902344 271.855469 305.230469 269.9375 310.378906 C 268.320312 314.570312 266.105469 318.882812 262.394531 321.636719 C 258.5625 324.449219 253.714844 325.167969 249.164062 324.328125 C 238.867188 322.472656 231.921875 314.152344 226.234375 306.007812 C 225.515625 304.929688 224.738281 303.855469 224.019531 302.777344 C 223.839844 302.535156 223.660156 302.417969 223.480469 302.296875 C 223.539062 297.988281 223.539062 293.617188 223.539062 289.304688 C 223.601562 282.480469 223.660156 275.65625 223.78125 268.832031 C 223.839844 262.066406 223.898438 255.300781 224.019531 248.476562 C 224.019531 245.960938 224.140625 243.445312 223.359375 241.050781 C 222.824219 239.195312 221.804688 237.101562 219.949219 236.203125 C 218.992188 235.722656 217.972656 235.664062 216.894531 235.84375 C 216.714844 235.84375 216.597656 235.902344 216.476562 236.023438 C 216.476562 236.023438 216.417969 236.023438 216.355469 236.023438 C 206.539062 234.824219 196.78125 232.609375 187.378906 229.558594 C 185.464844 228.957031 183.546875 228.300781 181.691406 227.582031 C 180.015625 230.636719 178.519531 233.75 176.722656 236.683594 C 174.03125 241.113281 171.515625 245.660156 169 250.152344 C 166.546875 245.902344 163.972656 241.652344 161.335938 237.519531 C 159.960938 235.363281 158.523438 233.269531 157.148438 231.113281 C 154.992188 227.640625 152.957031 224.050781 151.21875 220.398438 C 150.621094 219.199219 150.082031 218.003906 149.601562 216.804688 C 149.363281 216.265625 149.183594 215.726562 148.824219 215.25 C 147.988281 213.871094 147.449219 212.316406 147.386719 210.699219 C 147.386719 210.160156 147.386719 209.679688 147.507812 209.203125 C 147.988281 209.261719 148.464844 209.023438 148.765625 208.605469 C 148.765625 208.542969 148.824219 208.484375 148.886719 208.425781 C 149.003906 208.304688 149.125 208.183594 149.246094 208.066406 C 149.484375 207.824219 149.664062 207.644531 149.902344 207.40625 C 150.382812 206.988281 150.859375 206.566406 151.339844 206.089844 C 151.820312 205.550781 152.175781 204.890625 152.476562 204.234375 C 152.476562 204.171875 152.535156 204.113281 152.535156 204.054688 C 152.535156 204.054688 152.535156 204.054688 152.535156 203.992188 C 153.375 202.917969 153.792969 201.597656 154.214844 200.28125 C 155.050781 197.347656 155.410156 194.175781 155.351562 191.121094 C 155.289062 189.625 155.230469 187.890625 154.753906 186.332031 C 157.265625 187.050781 160.019531 187.648438 163.015625 188.007812 C 173.371094 189.386719 182.230469 187.890625 188.519531 186.152344 C 185.464844 192.199219 187.140625 199.265625 189.59375 205.492188 C 192.707031 206.867188 196.121094 207.40625 199.472656 207.707031 C 203.425781 208.003906 207.375 208.066406 211.328125 208.601562 C 214.859375 209.140625 218.390625 209.921875 221.746094 211.179688 C 224.917969 212.375 227.910156 214.113281 230.425781 216.445312 C 233.238281 219.082031 235.214844 222.433594 236.472656 226.085938 C 237.847656 229.976562 238.566406 234.046875 239.105469 238.117188 C 239.707031 242.308594 240.0625 246.5 240.484375 250.75 C 241.441406 260.269531 242.640625 269.789062 246.589844 278.589844 C 246.949219 279.367188 248.328125 279.367188 248.683594 278.589844 C 254.371094 265.539062 258.382812 251.769531 260.417969 237.699219 C 260.957031 233.988281 261.378906 230.277344 261.617188 226.503906 C 263.773438 226.625 265.808594 225.425781 266.527344 223.210938 C 267.605469 219.917969 265.386719 216.867188 262.992188 214.828125 C 261.796875 213.871094 260.121094 215.546875 261.316406 216.507812 C 262.933594 217.824219 264.730469 219.621094 264.429688 221.894531 C 264.132812 223.929688 262.214844 224.648438 260.480469 223.75 C 258.625 222.792969 257.785156 220.695312 257.785156 218.722656 C 257.785156 216.445312 258.625 214.289062 260 212.496094 C 261.675781 210.28125 263.953125 208.484375 266.105469 206.808594 C 266.644531 206.386719 266.527344 205.550781 266.105469 205.132812 C 265.988281 205.011719 265.867188 204.953125 265.746094 204.890625 C 265.6875 201.898438 265.628906 198.84375 265.746094 195.792969 C 265.808594 194.054688 265.867188 192.320312 265.988281 190.644531 C 266.046875 189.324219 266.167969 188.070312 266.527344 186.8125 C 266.824219 185.675781 267.363281 184.597656 268.320312 183.9375 C 269.339844 183.21875 270.179688 183.578125 270.65625 184.597656 C 271.253906 185.734375 271.375 187.171875 271.613281 188.429688 C 271.914062 190.105469 272.09375 191.78125 272.214844 193.457031 C 272.511719 197.347656 272.453125 201.179688 272.035156 205.070312 C 271.914062 206.386719 274.128906 206.6875 274.367188 205.371094 C 275.746094 198.664062 278.5 192.320312 282.390625 186.75 C 282.570312 186.453125 283.167969 185.375 283.589844 185.316406 C 284.066406 185.316406 284.546875 186.570312 284.667969 186.871094 C 285.144531 188.308594 285.085938 189.925781 284.785156 191.421875 C 284.488281 193.097656 283.949219 194.652344 283.410156 196.269531 C 282.808594 198.125 282.210938 199.984375 281.671875 201.777344 C 281.3125 202.796875 281.015625 203.875 280.65625 204.890625 C 280.355469 205.730469 280.054688 206.566406 279.9375 207.464844 C 279.757812 208.902344 280.234375 210.640625 281.851562 211 C 282.332031 211.117188 282.75 210.9375 282.988281 210.640625 C 284.785156 215.1875 285.203125 220.097656 285.144531 224.949219 Z M 281.492188 227.523438 C 280.835938 227.34375 280.234375 227.761719 279.996094 228.359375 C 279.515625 229.617188 278.917969 230.933594 278.019531 232.011719 C 277.601562 232.492188 277.121094 232.910156 276.585938 233.148438 C 276.34375 233.269531 276.046875 233.328125 275.746094 233.328125 C 275.386719 233.328125 275.445312 233.449219 275.445312 233.089844 C 275.804688 229.378906 276.882812 225.90625 278.859375 222.734375 C 279.21875 222.195312 278.980469 221.414062 278.441406 221.117188 C 277.839844 220.757812 277.183594 221.054688 276.824219 221.535156 C 275.207031 223.628906 273.589844 225.726562 272.035156 227.820312 C 271.433594 228.539062 270.957031 229.316406 270.238281 229.855469 C 270.296875 229.617188 270.296875 229.257812 270.359375 229.136719 C 270.417969 228.898438 270.476562 228.660156 270.539062 228.421875 C 271.734375 224.109375 273.828125 220.097656 276.703125 216.625 C 277.660156 215.429688 275.984375 213.753906 275.027344 214.949219 C 272.214844 218.363281 270 222.253906 268.679688 226.445312 C 268.144531 228.121094 266.824219 231.175781 268.921875 232.3125 C 270.898438 233.390625 272.574219 231.175781 273.589844 229.796875 C 273.472656 230.515625 273.351562 231.234375 273.230469 232.011719 C 273.113281 233.089844 272.992188 234.285156 273.828125 235.066406 C 275.386719 236.5625 278.019531 235.363281 279.339844 234.109375 C 280.773438 232.730469 281.613281 230.816406 282.332031 229.019531 C 282.570312 228.359375 282.09375 227.640625 281.492188 227.523438 Z M 126.613281 332.710938 C 115.71875 333.96875 104.820312 335.105469 93.925781 336.121094 C 93.746094 336.121094 93.625 336.183594 93.507812 336.242188 C 93.148438 332.410156 92.789062 328.519531 92.488281 324.6875 C 91.472656 312.054688 90.8125 299.421875 90.511719 286.792969 C 90.332031 280.503906 90.273438 274.277344 90.273438 267.992188 C 90.273438 262.125 90.453125 256.257812 91.292969 250.511719 C 92.070312 244.945312 93.445312 239.375 95.78125 234.226562 C 97.757812 229.917969 100.390625 225.964844 103.503906 222.433594 C 109.789062 215.429688 118.113281 210.21875 127.273438 207.824219 C 127.992188 207.644531 128.710938 207.464844 129.429688 207.347656 C 129.1875 222.613281 128.648438 238 125.058594 252.90625 C 123.140625 260.867188 119.730469 268.53125 119.191406 276.792969 C 118.949219 280.984375 119.308594 285.234375 119.910156 289.425781 C 120.449219 293.734375 121.164062 298.046875 121.824219 302.296875 C 123.320312 311.996094 124.816406 321.695312 126.433594 331.394531 C 126.433594 331.511719 126.496094 331.632812 126.613281 331.753906 C 126.496094 332.050781 126.496094 332.410156 126.613281 332.710938 Z M 126.613281 332.710938 " fill-opacity="1" fill-rule="nonzero"/><path fill="#e0838f" d="M 204.203125 144.605469 C 201.03125 140.890625 195.28125 138.917969 190.671875 141.011719 C 189.414062 141.609375 188.339844 142.449219 187.441406 143.46875 C 184.925781 144.84375 183.011719 147.117188 182.171875 150.050781 C 180.195312 157.417969 186.363281 164.480469 193.847656 163.820312 C 194.207031 163.761719 194.566406 163.761719 194.921875 163.640625 C 199.234375 164 203.425781 161.488281 205.640625 157.714844 C 208.214844 153.40625 207.4375 148.316406 204.203125 144.605469 Z M 145.171875 153.882812 C 142.957031 157.65625 138.765625 160.171875 134.457031 159.8125 C 134.097656 159.871094 133.738281 159.929688 133.378906 159.992188 C 125.894531 160.648438 119.730469 153.585938 121.703125 146.222656 C 122.484375 143.226562 124.457031 141.011719 126.972656 139.636719 C 127.871094 138.617188 128.949219 137.78125 130.207031 137.179688 C 134.816406 135.085938 140.5625 137.121094 143.734375 140.773438 C 146.96875 144.484375 147.746094 149.574219 145.171875 153.882812 Z M 145.171875 153.882812 " fill-opacity="1" fill-rule="nonzero"/><path fill="#e1cbb9" d="M 91.832031 264.402344 C 92.726562 266.078125 94.523438 266.855469 96.261719 266.855469 L 102.308594 270.027344 C 103.683594 270.6875 105 270.746094 106.140625 270.386719 C 106.859375 270.808594 107.753906 271.105469 108.773438 271.105469 C 109.550781 271.105469 110.328125 271.164062 111.109375 271.164062 C 113.683594 271.824219 116.195312 272.363281 118.832031 272.84375 C 120.027344 273.082031 121.164062 272.84375 122.183594 272.363281 C 121.765625 274.699219 121.523438 277.09375 121.523438 279.488281 C 121.523438 283.738281 122.0625 287.988281 122.722656 292.179688 C 123.320312 296.371094 123.980469 300.621094 124.636719 304.8125 C 125.957031 313.433594 127.332031 322.054688 128.769531 330.675781 C 128.769531 330.792969 128.769531 330.855469 128.769531 330.972656 C 129.964844 331.214844 131.222656 331.453125 132.421875 331.632812 C 144.574219 333.609375 156.90625 334.265625 169.179688 333.609375 C 181.453125 332.949219 193.667969 330.972656 205.460938 327.742188 C 210.308594 326.425781 215.398438 324.628906 218.09375 320.019531 C 220.605469 315.707031 220.785156 310.378906 220.847656 305.46875 C 221.027344 292.480469 221.144531 279.429688 221.265625 266.4375 C 221.324219 259.910156 221.386719 253.386719 221.445312 246.859375 C 221.445312 244.765625 221.386719 242.609375 220.546875 240.632812 C 220.308594 239.972656 219.890625 239.316406 219.410156 238.835938 C 220.726562 238.539062 221.804688 237.460938 221.863281 235.605469 C 221.925781 227.640625 221.503906 219.679688 221.324219 211.714844 C 221.265625 209.5 219.109375 208.785156 217.613281 209.5625 C 216.835938 209.140625 215.816406 209.261719 215.277344 210.21875 C 213.421875 213.511719 214.441406 218.542969 214.5 222.195312 C 214.558594 226.683594 214.679688 231.113281 215.039062 235.605469 C 215.097656 236.863281 215.757812 237.757812 216.535156 238.296875 C 216.476562 238.296875 216.355469 238.296875 216.296875 238.296875 C 210.429688 237.578125 204.621094 236.5625 198.933594 235.183594 C 188.757812 232.789062 178.878906 229.316406 169.359375 224.949219 C 166.964844 223.871094 164.628906 222.671875 162.296875 221.476562 C 160.082031 220.335938 157.863281 219.140625 155.828125 217.761719 C 152.355469 215.367188 149.421875 211.714844 149.421875 207.464844 C 149.304688 207.464844 149.183594 207.40625 149.066406 207.347656 C 148.945312 207.347656 148.824219 207.347656 148.765625 207.347656 C 148.585938 207.105469 148.285156 206.925781 147.925781 206.746094 C 144.09375 205.3125 139.90625 204.652344 135.832031 204.953125 C 132.242188 205.191406 127.632812 205.609375 124.878906 208.125 C 124.757812 208.246094 124.636719 208.425781 124.519531 208.542969 C 121.34375 209.023438 117.8125 210.519531 115.898438 211.417969 C 111.886719 213.273438 108.714844 216.027344 106.019531 219.378906 C 105.0625 219.738281 104.164062 220.335938 103.503906 221.234375 C 99.195312 227.042969 95.960938 233.570312 93.867188 240.511719 C 92.90625 242.96875 92.191406 245.542969 91.832031 248.175781 C 91.652344 249.375 91.472656 250.691406 91.351562 251.949219 C 91.113281 252.847656 90.933594 253.683594 90.691406 254.582031 C 90.453125 255.539062 90.511719 256.679688 90.871094 257.753906 C 90.8125 257.816406 90.8125 257.875 90.753906 257.933594 C 89.4375 260.03125 89.914062 262.964844 91.832031 264.402344 Z M 171.753906 202.019531 C 171.636719 202.136719 171.515625 202.257812 171.335938 202.316406 C 171.15625 202.4375 170.976562 202.496094 170.855469 202.558594 C 170.796875 202.558594 170.675781 202.617188 170.617188 202.617188 C 170.316406 202.675781 170.078125 202.675781 169.777344 202.675781 C 169.539062 202.675781 169.300781 202.617188 169.121094 202.496094 C 169 202.4375 168.882812 202.378906 168.820312 202.257812 C 168.703125 202.136719 168.640625 202.019531 168.523438 201.898438 C 168.460938 201.777344 168.402344 201.71875 168.402344 201.597656 C 168.34375 201.480469 168.34375 201.417969 168.28125 201.300781 C 168.222656 201.058594 168.222656 200.878906 168.222656 200.640625 C 168.222656 200.582031 168.222656 200.582031 168.222656 200.519531 C 168.222656 200.28125 168.28125 199.984375 168.402344 199.742188 C 168.460938 199.625 168.523438 199.445312 168.582031 199.324219 C 168.820312 198.90625 169.121094 198.605469 169.480469 198.367188 C 169.539062 198.304688 169.597656 198.304688 169.660156 198.304688 C 169.777344 198.246094 169.957031 198.1875 170.078125 198.125 C 170.257812 198.066406 170.378906 198.066406 170.558594 198.066406 C 170.617188 198.066406 170.675781 198.066406 170.738281 198.066406 C 170.976562 198.066406 171.15625 198.125 171.335938 198.246094 C 171.515625 198.367188 171.636719 198.484375 171.753906 198.664062 C 171.875 198.84375 171.933594 199.023438 171.933594 199.265625 C 171.933594 199.382812 171.933594 199.503906 171.875 199.5625 C 171.933594 199.625 171.992188 199.742188 172.054688 199.804688 C 172.351562 200.339844 172.351562 201.058594 172.054688 201.660156 C 171.992188 201.777344 171.875 201.898438 171.753906 202.019531 Z M 171.753906 202.019531 " fill-opacity="1" fill-rule="nonzero"/><g clip-path="url(#bdc4a48054)"><path fill="#434345" d="M 262.457031 244.34375 C 264.011719 244.34375 264.011719 241.949219 262.457031 241.949219 C 260.898438 241.949219 260.898438 244.34375 262.457031 244.34375 Z M 169.71875 202.019531 C 169.660156 202.019531 169.660156 201.957031 169.597656 201.957031 C 169.539062 201.957031 169.597656 201.957031 169.71875 202.019531 Z M 186.480469 155.621094 C 188.039062 155.621094 188.039062 158.015625 186.480469 158.015625 C 184.925781 158.015625 184.925781 155.621094 186.480469 155.621094 Z M 169.480469 201.898438 C 169.480469 201.898438 169.417969 201.839844 169.417969 201.839844 C 169.417969 201.839844 169.417969 201.839844 169.480469 201.898438 Z M 171.277344 201.179688 C 171.277344 201.238281 171.277344 201.238281 171.277344 201.179688 C 171.277344 201.179688 171.277344 201.121094 171.277344 201.121094 C 171.277344 201.179688 171.277344 201.179688 171.277344 201.179688 Z M 171.335938 200.699219 C 171.335938 200.640625 171.335938 200.640625 171.335938 200.582031 C 171.335938 200.640625 171.335938 200.699219 171.335938 200.699219 Z M 176.125 139.574219 C 176.125 139.515625 176.125 139.457031 176.125 139.335938 C 176.125 138.796875 176.542969 138.257812 177.082031 138.136719 C 177.441406 137.960938 177.921875 137.898438 178.28125 138.136719 C 178.640625 138.378906 178.820312 138.675781 179 139.097656 C 179.058594 139.335938 179.117188 139.574219 179.117188 139.816406 C 179.117188 140.113281 179.117188 140.414062 179.058594 140.714844 C 179.058594 141.132812 179.058594 141.550781 179 141.96875 C 178.9375 142.148438 178.878906 142.328125 178.820312 142.507812 C 178.820312 142.507812 178.820312 142.570312 178.820312 142.570312 C 178.578125 143.167969 178.101562 143.707031 177.382812 143.707031 C 176.84375 143.707031 176.363281 143.347656 176.246094 142.808594 C 175.945312 141.910156 175.886719 141.011719 176.003906 140.113281 C 176.066406 139.933594 176.066406 139.753906 176.125 139.574219 Z M 185.945312 148.078125 C 187.5 148.078125 187.5 150.472656 185.945312 150.472656 C 184.386719 150.472656 184.386719 148.078125 185.945312 148.078125 Z M 178.160156 199.203125 C 179.71875 199.203125 179.71875 201.597656 178.160156 201.597656 C 176.664062 201.597656 176.664062 199.203125 178.160156 199.203125 Z M 281.734375 240.753906 C 283.289062 240.753906 283.289062 243.148438 281.734375 243.148438 C 280.175781 243.148438 280.175781 240.753906 281.734375 240.753906 Z M 169.238281 201.660156 C 169.238281 201.597656 169.179688 201.597656 169.179688 201.539062 C 169.179688 201.539062 169.179688 201.597656 169.238281 201.660156 Z M 171.277344 200.460938 C 171.277344 200.519531 171.277344 200.519531 171.277344 200.460938 Z M 166.90625 199.085938 C 166.304688 200.222656 166.367188 201.539062 167.023438 202.675781 C 167.683594 203.753906 168.882812 204.53125 170.136719 204.472656 C 171.457031 204.414062 172.710938 203.632812 173.3125 202.4375 C 173.671875 201.71875 173.789062 201 173.671875 200.222656 C 173.550781 199.5625 173.25 199.023438 172.832031 198.546875 C 171.933594 197.46875 170.316406 196.929688 169 197.347656 C 168.523438 197.527344 168.101562 197.945312 168.101562 198.484375 C 167.683594 198.425781 167.144531 198.605469 166.90625 199.085938 Z M 168.882812 200.761719 C 168.882812 200.761719 168.882812 201.121094 168.882812 200.878906 C 168.882812 200.878906 168.882812 200.820312 168.882812 200.761719 C 168.882812 200.699219 168.882812 200.640625 168.882812 200.582031 C 168.882812 200.582031 168.882812 200.640625 168.882812 200.640625 C 168.882812 200.640625 168.882812 200.582031 168.882812 200.582031 C 168.882812 200.519531 168.882812 200.460938 168.941406 200.460938 C 168.941406 200.460938 168.941406 200.402344 168.941406 200.402344 C 168.941406 200.402344 168.941406 200.339844 168.941406 200.339844 C 169.0625 200.164062 169.0625 199.984375 169.0625 199.742188 C 169.660156 199.984375 170.199219 200.222656 170.796875 200.460938 C 170.917969 200.519531 171.097656 200.519531 171.214844 200.519531 C 171.15625 200.460938 171.15625 200.460938 171.214844 200.460938 C 171.214844 200.519531 171.277344 200.519531 171.277344 200.582031 C 171.277344 200.582031 171.277344 200.519531 171.214844 200.519531 C 171.214844 200.582031 171.214844 200.582031 171.214844 200.640625 C 171.214844 200.582031 171.214844 200.582031 171.214844 200.699219 C 171.214844 200.699219 171.214844 200.761719 171.214844 200.761719 C 171.214844 200.761719 171.214844 200.820312 171.214844 200.820312 C 171.214844 200.820312 171.214844 200.761719 171.214844 200.761719 C 171.214844 200.820312 171.214844 200.820312 171.214844 200.878906 C 171.214844 200.941406 171.214844 200.941406 171.214844 201 C 171.214844 201.058594 171.214844 201.121094 171.15625 201.179688 C 171.15625 201.121094 171.15625 201.179688 171.15625 201.238281 C 171.15625 201.300781 171.15625 201.300781 171.097656 201.359375 C 171.097656 201.300781 171.097656 201.300781 171.15625 201.238281 C 171.097656 201.300781 171.035156 201.417969 170.976562 201.480469 C 170.976562 201.539062 170.917969 201.539062 170.917969 201.597656 C 170.917969 201.597656 170.917969 201.597656 170.917969 201.539062 C 170.855469 201.597656 170.796875 201.71875 170.675781 201.777344 C 170.675781 201.777344 170.617188 201.777344 170.617188 201.777344 C 170.558594 201.839844 170.496094 201.898438 170.378906 201.898438 C 170.316406 201.898438 170.316406 201.957031 170.257812 201.957031 C 170.199219 201.957031 170.078125 202.019531 170.019531 202.019531 C 170.019531 202.019531 170.078125 202.019531 170.078125 202.019531 C 170.019531 202.019531 170.019531 202.019531 169.957031 202.019531 C 169.957031 202.019531 169.898438 202.019531 169.898438 202.019531 C 169.839844 202.019531 169.839844 202.019531 169.777344 202.019531 C 169.71875 202.019531 169.71875 202.019531 169.660156 202.019531 C 169.597656 202.019531 169.597656 202.019531 169.539062 201.957031 C 169.539062 201.957031 169.539062 201.957031 169.597656 201.957031 C 169.597656 201.957031 169.539062 201.957031 169.539062 201.957031 C 169.480469 201.957031 169.480469 201.898438 169.417969 201.898438 C 169.417969 201.898438 169.359375 201.898438 169.359375 201.839844 C 169.359375 201.839844 169.300781 201.839844 169.300781 201.777344 C 169.300781 201.777344 169.300781 201.777344 169.359375 201.839844 C 169.359375 201.839844 169.300781 201.839844 169.300781 201.777344 C 169.300781 201.777344 169.238281 201.777344 169.238281 201.71875 C 169.179688 201.660156 169.179688 201.660156 169.238281 201.660156 C 169.238281 201.660156 169.179688 201.597656 169.179688 201.597656 C 169.179688 201.597656 169.121094 201.539062 169.121094 201.539062 C 169.121094 201.539062 169.121094 201.539062 169.121094 201.597656 C 169.121094 201.597656 169.121094 201.539062 169.0625 201.539062 C 169 201.480469 169 201.417969 169 201.417969 C 169 201.359375 168.941406 201.359375 168.941406 201.300781 C 168.941406 201.238281 168.882812 201.238281 168.882812 201.179688 C 168.882812 201.179688 168.882812 201.238281 168.882812 201.238281 C 168.882812 201.238281 168.882812 201.179688 168.820312 201.121094 C 168.761719 200.941406 168.761719 200.941406 168.761719 201 C 168.941406 201.058594 168.882812 200.878906 168.882812 200.761719 Z M 156.546875 196.871094 C 158.105469 196.871094 158.105469 199.265625 156.546875 199.265625 C 154.992188 199.265625 154.992188 196.871094 156.546875 196.871094 Z M 87.9375 280.746094 C 88.179688 293.675781 88.71875 306.546875 89.675781 319.417969 C 90.09375 325.40625 90.632812 331.394531 91.171875 337.320312 C 91.890625 336.839844 92.667969 336.480469 93.445312 336.121094 C 93.085938 332.292969 92.726562 328.460938 92.429688 324.628906 C 91.410156 311.996094 90.753906 299.363281 90.453125 286.730469 C 90.273438 280.445312 90.214844 274.21875 90.214844 267.933594 C 90.214844 267.453125 90.214844 267.035156 90.214844 266.554688 C 94.285156 269.609375 99.914062 271.464844 104.640625 272.722656 C 109.371094 273.980469 114.160156 274.398438 119.011719 274.21875 C 119.070312 275.058594 119.128906 275.894531 119.191406 276.734375 C 118.949219 280.925781 119.308594 285.175781 119.847656 289.367188 C 120.449219 293.675781 121.105469 297.988281 121.765625 302.238281 C 123.261719 311.9375 124.757812 321.636719 126.375 331.332031 C 127.152344 331.152344 127.929688 331.035156 128.710938 330.914062 C 128.710938 330.855469 128.710938 330.734375 128.710938 330.675781 C 127.273438 322.054688 125.894531 313.433594 124.578125 304.8125 C 123.917969 300.621094 123.320312 296.371094 122.664062 292.179688 C 122.0625 287.988281 121.464844 283.738281 121.464844 279.488281 C 121.464844 278.648438 121.523438 277.871094 121.523438 277.09375 C 120.386719 266.675781 121.40625 255.960938 120.449219 245.484375 C 120.449219 245.484375 120.386719 245.542969 120.386719 245.542969 C 120.386719 245.484375 120.386719 245.421875 120.386719 245.363281 C 120.386719 244.765625 119.550781 244.824219 119.488281 245.363281 C 118.589844 252.964844 118.292969 260.570312 118.589844 268.230469 C 118.652344 269.371094 118.710938 270.507812 118.769531 271.644531 C 114.460938 271.40625 110.148438 270.628906 106.019531 269.488281 C 103.207031 268.710938 100.511719 267.753906 97.878906 266.496094 C 95.421875 265.359375 93.148438 263.800781 90.691406 262.722656 C 90.574219 262.664062 90.394531 262.605469 90.273438 262.605469 C 90.394531 258.535156 90.632812 254.460938 91.171875 250.453125 C 91.949219 244.882812 93.328125 239.316406 95.660156 234.167969 C 97.636719 229.855469 100.273438 225.90625 103.386719 222.433594 C 108.472656 216.746094 114.941406 212.253906 122.0625 209.5 C 122.242188 209.441406 122.421875 209.382812 122.601562 209.320312 C 124.097656 208.78125 125.597656 208.304688 127.152344 207.886719 C 127.75 207.707031 128.410156 207.585938 129.070312 207.464844 C 129.128906 207.226562 129.1875 207.046875 129.1875 206.808594 C 130.207031 206.566406 131.164062 206.328125 132.183594 206.148438 C 137.089844 205.3125 142.058594 205.609375 146.847656 206.867188 C 146.96875 206.925781 147.148438 206.925781 147.269531 206.867188 C 147.507812 207.226562 147.925781 207.527344 148.347656 207.527344 C 148.40625 207.527344 148.464844 207.527344 148.527344 207.527344 C 148.527344 207.585938 148.585938 207.644531 148.585938 207.644531 C 148.585938 207.707031 148.644531 207.765625 148.644531 207.765625 C 148.765625 208.003906 148.824219 208.304688 148.886719 208.605469 C 148.886719 208.664062 148.886719 208.722656 148.945312 208.78125 C 148.945312 208.902344 148.945312 209.082031 148.945312 209.203125 C 148.945312 209.621094 149.183594 210.039062 149.542969 210.21875 C 150.441406 213.332031 152.835938 215.90625 155.53125 217.824219 C 157.566406 219.261719 159.78125 220.398438 161.996094 221.535156 C 164.332031 222.734375 166.664062 223.929688 169.0625 225.007812 C 178.519531 229.378906 188.457031 232.851562 198.636719 235.246094 C 204.382812 236.621094 210.191406 237.640625 215.996094 238.359375 C 216.238281 238.417969 216.476562 238.296875 216.714844 238.117188 C 216.835938 238.117188 217.015625 238.117188 217.136719 238.117188 C 218.691406 237.820312 219.710938 239.257812 220.308594 240.574219 C 221.144531 242.550781 221.265625 244.703125 221.207031 246.800781 C 221.144531 253.324219 221.085938 259.851562 221.027344 266.375 C 220.90625 279.367188 220.785156 292.417969 220.605469 305.410156 C 220.546875 308.941406 220.488281 312.714844 219.46875 316.128906 C 219.710938 316.484375 219.890625 316.964844 220.070312 317.503906 C 220.1875 317.984375 220.308594 318.402344 220.367188 318.882812 C 220.605469 318.820312 220.847656 318.761719 221.085938 318.761719 C 222.34375 315.589844 222.761719 311.996094 222.941406 308.582031 C 223 307.746094 223 306.847656 223.0625 306.007812 C 228.628906 314.089844 234.914062 322.292969 244.496094 325.585938 C 249.164062 327.203125 254.492188 327.5625 259.164062 325.824219 C 263.953125 324.089844 267.425781 320.316406 269.757812 315.886719 C 272.214844 311.21875 273.652344 306.070312 275.085938 301.039062 C 276.824219 295.113281 278.378906 289.1875 279.757812 283.199219 C 282.511719 271.226562 284.488281 259.132812 285.804688 246.917969 C 286.460938 240.8125 286.941406 234.707031 287.242188 228.539062 C 287.480469 223.089844 287.539062 217.34375 285.683594 212.136719 C 285.203125 210.820312 284.667969 209.621094 284.007812 208.425781 C 283.46875 207.40625 282.152344 207.824219 281.851562 208.664062 C 281.792969 208.542969 281.792969 208.363281 281.792969 208.125 C 281.792969 207.347656 282.09375 206.628906 282.332031 205.910156 C 282.988281 203.933594 283.589844 201.957031 284.246094 199.921875 C 285.382812 196.449219 286.941406 192.796875 286.882812 189.085938 C 286.882812 187.410156 286.460938 185.675781 285.445312 184.296875 C 284.308594 182.742188 282.390625 182.441406 281.015625 183.878906 C 279.816406 185.136719 278.859375 186.8125 277.960938 188.308594 C 277.003906 189.863281 276.164062 191.480469 275.386719 193.097656 C 274.96875 193.996094 274.609375 194.894531 274.1875 195.792969 C 274.1875 195.011719 274.128906 194.175781 274.070312 193.398438 C 273.949219 191.480469 273.710938 189.503906 273.351562 187.589844 C 273.113281 186.09375 272.871094 184.535156 272.09375 183.160156 C 271.375 181.902344 270.179688 181.003906 268.679688 181.0625 C 267.066406 181.125 265.6875 182.320312 264.789062 183.578125 C 262.992188 186.210938 263.054688 189.863281 262.875 192.917969 C 262.632812 197.230469 262.632812 201.539062 262.8125 205.851562 C 258.5625 209.261719 254.253906 213.632812 254.851562 219.5 C 255.152344 222.132812 256.410156 224.527344 258.742188 225.726562 C 257.785156 239.496094 254.972656 253.207031 250.421875 266.257812 C 249.402344 269.128906 248.328125 272.003906 247.128906 274.816406 C 244.433594 267.753906 243.355469 260.148438 242.578125 252.667969 C 241.742188 244.34375 241.320312 235.84375 239.046875 227.761719 C 237.96875 223.929688 236.351562 220.21875 233.839844 217.105469 C 231.621094 214.351562 228.808594 212.136719 225.695312 210.460938 C 219.289062 207.105469 211.984375 205.910156 204.863281 205.492188 C 201.210938 205.25 197.378906 205.25 193.785156 204.414062 L 189.835938 200.820312 C 190.015625 201.417969 190.3125 202.019531 190.554688 202.617188 C 190.492188 202.558594 190.433594 202.496094 190.375 202.4375 C 190.375 202.4375 190.375 202.378906 190.3125 202.378906 C 190.253906 202.316406 190.195312 202.199219 190.132812 202.136719 C 189.953125 201.839844 189.773438 201.539062 189.65625 201.238281 C 189.65625 201.179688 189.59375 201.058594 189.59375 201 C 189.535156 200.820312 189.476562 200.699219 189.476562 200.519531 C 189.476562 200.519531 189.476562 200.519531 189.476562 200.460938 L 187.980469 199.085938 C 188.878906 199.921875 189.054688 201.417969 189.535156 202.558594 C 189.054688 202.019531 188.578125 201.417969 188.21875 200.761719 C 187.859375 200.101562 187.679688 199.382812 187.441406 198.664062 C 187.621094 198.484375 187.917969 198.425781 188.160156 198.425781 C 188.816406 198.425781 189.355469 199.023438 189.355469 199.625 C 189.355469 199.742188 189.355469 199.804688 189.355469 199.921875 C 189.355469 199.984375 189.355469 199.984375 189.355469 199.984375 C 189.355469 200.164062 189.414062 200.28125 189.476562 200.460938 L 189.835938 200.820312 C 188.636719 197.167969 188.578125 193.15625 189.835938 189.445312 C 189.953125 189.027344 189.894531 188.667969 189.65625 188.367188 C 189.835938 187.890625 190.074219 187.351562 190.3125 186.871094 C 190.554688 186.09375 190.972656 185.375 191.453125 184.777344 C 191.453125 184.714844 191.453125 184.714844 191.453125 184.65625 C 191.511719 184.65625 191.570312 184.597656 191.632812 184.597656 C 192.347656 183.699219 193.308594 182.921875 194.324219 182.320312 C 194.566406 182.203125 194.804688 182.082031 195.042969 182.082031 C 197.199219 180.40625 199.652344 178.96875 201.929688 177.351562 C 202.289062 176.992188 202.648438 176.632812 203.007812 176.214844 C 205.761719 173.101562 208.515625 169.390625 212.824219 170.046875 C 214.441406 169.988281 216.058594 170.40625 217.613281 170.828125 C 220.246094 171.066406 222.882812 170.46875 225.578125 170.40625 C 225.578125 170.347656 225.636719 170.347656 225.636719 170.289062 C 227.191406 169.75 228.6875 169.152344 230.125 168.433594 C 233.539062 166.695312 236.652344 164.179688 238.988281 161.128906 C 241.320312 158.132812 242.9375 154.542969 243.238281 150.710938 C 243.238281 150.410156 243.296875 150.050781 243.296875 149.753906 C 242.878906 147.417969 242.460938 145.082031 241.921875 142.808594 C 241.5 141.851562 240.960938 140.953125 240.304688 140.175781 C 240.242188 140.054688 240.125 139.996094 240.0625 139.875 C 240.183594 139.753906 240.304688 139.636719 240.421875 139.574219 C 240.242188 139.335938 240.125 139.097656 240.125 138.738281 C 239.226562 130.476562 242.640625 122.332031 242.640625 114.011719 C 242.640625 106.347656 241.140625 98.746094 238.6875 91.5 C 238.6875 91.5 238.6875 91.5 238.6875 91.441406 C 237.308594 88.207031 235.8125 85.15625 234.078125 82.101562 C 229.226562 75.277344 223.121094 69.351562 216.117188 64.738281 C 208.695312 59.832031 200.371094 56.417969 191.691406 54.621094 C 191.691406 54.621094 191.691406 54.621094 191.632812 54.621094 C 187.859375 53.722656 183.96875 53.007812 180.078125 52.527344 C 176.183594 52.046875 172.171875 51.808594 168.222656 52.046875 C 166.246094 52.167969 164.210938 52.40625 162.296875 52.765625 C 160.378906 53.125 158.523438 53.84375 156.667969 54.503906 C 152.957031 55.761719 149.125 56.957031 145.59375 58.753906 C 142.179688 60.488281 138.886719 62.40625 135.535156 64.261719 C 134.695312 64.738281 133.796875 65.160156 133.019531 65.757812 C 132.359375 66.238281 131.761719 66.835938 131.042969 67.253906 C 129.726562 68.152344 128.648438 69.171875 127.691406 70.425781 C 126.675781 71.683594 125.777344 73 124.757812 74.257812 C 123.5 75.636719 122.722656 77.3125 121.585938 78.75 C 120.988281 79.527344 120.507812 80.304688 120.027344 81.144531 C 119.609375 81.800781 119.070312 82.402344 118.769531 83.121094 C 118.410156 83.898438 118.230469 84.675781 117.992188 85.515625 C 117.753906 86.234375 117.394531 86.832031 117.035156 87.488281 C 116.4375 88.746094 116.015625 90.125 115.476562 91.382812 C 114.941406 92.640625 114.402344 93.957031 113.863281 95.214844 C 112.425781 98.683594 111.527344 102.398438 110.808594 106.109375 C 110.808594 106.167969 110.808594 106.167969 110.808594 106.167969 C 110.089844 109.101562 109.550781 112.035156 108.773438 114.96875 C 108.292969 116.585938 107.933594 118.203125 107.636719 119.878906 C 107.335938 121.433594 106.917969 122.992188 106.859375 124.546875 C 106.859375 125.027344 106.917969 125.445312 106.859375 125.867188 C 106.796875 126.285156 106.738281 126.703125 106.679688 127.121094 C 106.617188 127.902344 106.617188 128.679688 106.617188 129.457031 C 106.617188 131.015625 106.679688 132.570312 106.917969 134.066406 C 107.457031 137.0625 108.714844 139.875 110.449219 142.390625 C 111.347656 143.648438 112.367188 144.84375 113.441406 145.921875 C 113.980469 146.460938 114.519531 147.058594 115.121094 147.597656 C 115.359375 147.835938 115.65625 148.015625 115.957031 148.136719 C 116.136719 148.195312 116.375 148.257812 116.617188 148.257812 L 116.675781 148.257812 C 116.734375 148.316406 116.855469 148.375 116.914062 148.4375 C 117.273438 151.191406 117.8125 153.882812 118.652344 156.457031 C 119.789062 160.050781 121.523438 163.402344 123.742188 166.457031 C 128.109375 172.441406 134.097656 177.171875 140.625 180.644531 C 140.625 180.703125 140.625 180.703125 140.625 180.765625 C 141.460938 181.183594 142.238281 181.542969 143.078125 181.902344 L 143.078125 181.84375 C 145.773438 183.160156 148.585938 184.238281 151.398438 185.195312 C 151.460938 185.253906 151.460938 185.253906 151.519531 185.316406 C 151.578125 185.433594 151.699219 185.554688 151.757812 185.675781 C 151.9375 186.035156 151.9375 186.035156 152.058594 186.390625 C 152.296875 187.050781 152.476562 187.769531 152.535156 188.488281 C 152.597656 188.90625 152.65625 189.324219 152.65625 189.746094 C 152.476562 190.042969 152.476562 190.34375 152.535156 190.703125 C 152.65625 191.363281 152.714844 192.078125 152.714844 192.796875 C 152.714844 193.097656 152.714844 193.398438 152.65625 193.695312 C 152.597656 194.832031 152.417969 195.972656 152.238281 197.109375 C 151.820312 198.84375 151.101562 200.519531 150.203125 202.078125 C 150.382812 201.957031 150.5625 201.957031 150.800781 201.957031 C 150.742188 202.019531 150.621094 202.078125 150.5625 202.136719 C 150.203125 202.4375 149.902344 202.738281 149.542969 203.09375 C 149.78125 202.738281 150.023438 202.4375 150.203125 202.078125 C 150.140625 202.078125 150.140625 202.078125 150.082031 202.136719 C 149.78125 202.316406 149.664062 202.558594 149.542969 202.855469 C 149.484375 202.976562 149.484375 203.09375 149.421875 203.214844 C 149.183594 203.394531 149.003906 203.632812 148.765625 203.8125 C 148.464844 203.574219 148.105469 203.394531 147.808594 203.214844 C 147.507812 203.753906 147.089844 204.171875 146.667969 204.59375 C 141.878906 203.214844 136.910156 202.738281 132.003906 203.394531 C 128.289062 203.875 122.183594 204.710938 119.667969 207.886719 C 114.101562 210.28125 108.953125 213.691406 104.582031 217.824219 C 97.039062 225.007812 92.128906 234.285156 89.914062 244.464844 C 87.339844 256.378906 87.757812 268.710938 87.9375 280.746094 Z M 116.4375 143.289062 C 116.4375 143.46875 116.4375 143.644531 116.4375 143.765625 C 116.375 143.644531 116.375 143.527344 116.316406 143.46875 C 116.078125 142.988281 115.65625 142.570312 115.359375 142.089844 C 114.640625 141.011719 114.222656 139.636719 113.683594 138.496094 C 113.144531 137.300781 112.722656 136.042969 112.425781 134.785156 C 112.125 133.589844 111.765625 132.449219 111.765625 131.195312 C 111.707031 128.980469 112.246094 126.882812 112.84375 124.789062 C 113.023438 124.1875 113.203125 123.652344 113.441406 123.113281 C 114.519531 123.351562 115.65625 123.472656 116.734375 123.652344 C 116.796875 130.175781 116.195312 136.761719 116.4375 143.289062 Z M 221.445312 211.296875 C 224.617188 212.496094 227.613281 214.230469 230.125 216.566406 C 232.941406 219.199219 234.914062 222.554688 236.171875 226.203125 C 237.550781 230.097656 238.269531 234.167969 238.808594 238.238281 C 239.40625 242.429688 239.765625 246.621094 240.183594 250.871094 C 241.140625 260.390625 242.339844 269.910156 246.289062 278.710938 C 246.648438 279.488281 248.027344 279.488281 248.386719 278.710938 C 254.074219 265.65625 258.085938 251.886719 260.121094 237.820312 C 260.660156 234.109375 261.078125 230.394531 261.316406 226.625 C 263.472656 226.742188 265.507812 225.546875 266.226562 223.332031 C 267.304688 219.980469 265.148438 216.925781 262.695312 214.949219 C 261.496094 213.992188 259.820312 215.667969 261.019531 216.625 C 262.632812 217.941406 264.429688 219.738281 264.132812 222.015625 C 263.832031 224.050781 261.917969 224.769531 260.179688 223.871094 C 258.324219 222.910156 257.546875 220.816406 257.484375 218.839844 C 257.484375 216.566406 258.382812 214.410156 259.699219 212.613281 C 261.378906 210.398438 263.652344 208.605469 265.808594 206.925781 C 266.347656 206.507812 266.226562 205.671875 265.808594 205.25 C 265.6875 205.132812 265.566406 205.070312 265.449219 205.011719 C 265.328125 202.019531 265.328125 198.964844 265.449219 195.972656 C 265.507812 194.234375 265.566406 192.5 265.6875 190.824219 C 265.746094 189.503906 265.867188 188.25 266.226562 186.992188 C 266.527344 185.855469 267.066406 184.777344 268.023438 184.117188 C 269.039062 183.398438 269.878906 183.757812 270.417969 184.777344 C 271.015625 185.914062 271.136719 187.351562 271.375 188.609375 C 271.613281 190.285156 271.855469 191.960938 271.972656 193.636719 C 272.273438 197.46875 272.214844 201.359375 271.792969 205.25 C 271.675781 206.566406 273.890625 206.867188 274.128906 205.550781 C 275.507812 198.84375 278.261719 192.5 282.152344 186.871094 C 282.332031 186.570312 282.929688 185.496094 283.347656 185.433594 C 283.828125 185.433594 284.308594 186.691406 284.425781 186.992188 C 284.90625 188.488281 284.847656 190.042969 284.546875 191.542969 C 284.246094 193.21875 283.707031 194.773438 283.167969 196.390625 C 282.570312 198.246094 281.972656 200.101562 281.433594 201.898438 C 281.074219 202.917969 280.773438 203.992188 280.414062 205.011719 C 280.117188 205.851562 279.816406 206.6875 279.757812 207.585938 C 279.578125 209.023438 280.054688 210.757812 281.671875 211.117188 C 282.152344 211.238281 282.570312 211.058594 282.808594 210.757812 C 284.90625 215.128906 285.324219 220.097656 285.265625 224.886719 C 285.203125 230.636719 284.726562 236.382812 284.1875 242.128906 C 283.109375 253.984375 281.3125 265.71875 278.917969 277.332031 C 277.722656 283.140625 276.34375 288.886719 274.789062 294.574219 C 273.351562 299.84375 271.914062 305.171875 270 310.320312 C 268.382812 314.511719 266.167969 318.820312 262.457031 321.574219 C 258.683594 324.390625 253.773438 325.105469 249.222656 324.269531 C 238.925781 322.414062 231.980469 314.089844 226.292969 305.949219 C 225.578125 304.871094 224.796875 303.792969 224.078125 302.714844 C 223.898438 302.476562 223.71875 302.355469 223.539062 302.238281 C 223.601562 297.925781 223.539062 293.558594 223.601562 289.246094 C 223.660156 282.421875 223.71875 275.597656 223.839844 268.769531 C 223.898438 262.007812 223.960938 255.242188 224.019531 248.414062 C 224.078125 245.902344 224.140625 243.386719 223.421875 240.992188 C 223.121094 240.035156 222.761719 239.015625 222.164062 238.179688 C 222.464844 238 222.703125 237.640625 222.703125 237.160156 C 222.582031 228.597656 221.925781 219.917969 221.445312 211.296875 Z M 170.136719 84.796875 C 166.066406 93.597656 159.722656 101.558594 152.175781 107.246094 C 146.25 111.738281 139.367188 114.910156 132.121094 116.585938 C 128.710938 117.363281 125.296875 117.785156 121.882812 117.902344 C 122.664062 117.605469 123.382812 117.246094 124.097656 117.003906 C 127.09375 115.808594 130.027344 114.550781 132.960938 113.113281 C 138.707031 110.300781 144.214844 107.007812 149.421875 103.234375 C 154.753906 99.464844 159.78125 95.273438 164.449219 90.722656 C 166.367188 88.808594 168.28125 86.832031 170.136719 84.796875 Z M 167.503906 186.152344 C 153.253906 185.074219 138.40625 179.386719 128.53125 168.730469 C 126.136719 166.15625 124.039062 163.222656 122.542969 160.050781 C 120.746094 156.398438 119.730469 152.328125 119.25 148.316406 C 118.230469 140.175781 119.25 131.972656 119.191406 123.828125 C 132.121094 124.488281 145.832031 119.28125 155.710938 111.738281 C 163.671875 105.628906 169.300781 97.847656 172.773438 88.925781 C 172.832031 92.339844 173.132812 95.75 173.671875 99.105469 C 174.867188 106.945312 177.382812 114.492188 180.972656 121.554688 C 181.691406 123.050781 183.789062 121.734375 183.128906 120.296875 C 179.957031 113.292969 177.859375 105.808594 177.023438 98.148438 C 176.664062 95.09375 176.542969 91.980469 176.605469 88.925781 C 177.082031 89.882812 177.621094 90.902344 178.160156 91.800781 C 179.117188 95.75 180.496094 99.582031 182.230469 103.234375 C 186.78125 112.695312 193.847656 120.476562 202.945312 125.746094 C 204.023438 126.34375 204.921875 124.789062 203.902344 124.070312 C 195.820312 118.621094 189.296875 110.777344 185.105469 102.039062 C 184.984375 101.859375 184.925781 101.617188 184.867188 101.4375 C 190.492188 108.265625 197.140625 113.832031 204.863281 118.082031 C 207.375 120.777344 209.890625 123.589844 212.105469 126.523438 C 212.703125 127.78125 213.242188 129.039062 214.023438 130.234375 C 216.65625 134.425781 218.152344 139.335938 217.671875 144.304688 C 217.554688 145.503906 217.195312 146.460938 216.777344 147.539062 C 216.535156 148.136719 216.417969 148.734375 216.238281 149.273438 C 216.058594 149.8125 215.757812 150.292969 215.519531 150.769531 C 214.980469 151.730469 214.140625 152.507812 213.363281 153.34375 C 212.585938 154.183594 211.449219 154.484375 210.429688 154.960938 C 210.371094 154.960938 210.308594 155.019531 210.25 155.082031 C 209.710938 155.140625 209.292969 155.738281 209.292969 156.277344 C 209.292969 156.996094 209.832031 157.417969 210.488281 157.476562 C 213.304688 157.773438 215.339844 155.140625 217.015625 153.285156 C 218.929688 151.25 220.726562 149.09375 221.265625 146.339844 C 221.386719 145.683594 221.503906 144.964844 221.683594 144.304688 C 221.804688 143.824219 221.984375 143.289062 222.105469 142.808594 C 224.378906 141.550781 226.773438 140.472656 229.289062 139.816406 C 231.683594 139.15625 234.4375 138.917969 236.652344 140.113281 C 238.566406 141.132812 239.707031 143.109375 240.363281 145.144531 C 240.421875 145.203125 240.421875 145.324219 240.421875 145.382812 C 240.664062 146.101562 240.78125 146.820312 240.902344 147.539062 C 241.382812 151.128906 240.484375 154.664062 238.628906 157.773438 C 234.914062 164 228.03125 167.953125 220.964844 169.089844 C 219.648438 169.328125 218.75 169.390625 217.613281 169.089844 C 217.375 168.910156 217.074219 168.792969 216.835938 168.851562 C 215.519531 168.3125 214.203125 167.714844 212.882812 167.175781 C 211.6875 166.753906 210.429688 166.394531 209.230469 167.054688 C 208.09375 167.652344 207.195312 168.730469 206.359375 169.6875 C 205.339844 170.828125 204.382812 172.082031 203.425781 173.28125 C 202.46875 174.417969 201.390625 175.4375 200.253906 176.394531 C 199.953125 176.632812 199.652344 176.875 199.414062 177.113281 C 199.292969 177.171875 199.234375 177.171875 199.113281 177.234375 C 198.875 177.351562 198.695312 177.53125 198.574219 177.769531 C 195.820312 179.925781 192.949219 181.84375 189.714844 183.160156 C 182.652344 186.035156 174.925781 186.75 167.503906 186.152344 Z M 214.800781 235.785156 C 215.878906 231.59375 215.9375 226.863281 215.996094 222.554688 C 216.058594 218.121094 215.699219 213.753906 215.097656 209.382812 C 216.65625 209.742188 218.210938 210.101562 219.710938 210.640625 C 219.589844 219.140625 219.351562 227.703125 219.828125 236.203125 C 219.828125 236.203125 219.769531 236.203125 219.769531 236.144531 C 218.8125 235.664062 217.792969 235.605469 216.714844 235.785156 C 216.535156 235.84375 216.417969 235.84375 216.296875 235.964844 C 216.296875 235.964844 216.238281 235.964844 216.175781 235.964844 C 215.757812 235.902344 215.277344 235.84375 214.800781 235.785156 Z M 152 206.449219 C 151.820312 206.027344 151.640625 205.550781 151.460938 205.070312 C 151.757812 204.773438 152.058594 204.472656 152.296875 204.171875 C 152.714844 203.753906 152.714844 203.273438 152.597656 202.855469 C 153.496094 201.300781 154.09375 199.5625 154.511719 197.828125 C 154.511719 197.828125 154.574219 197.828125 154.574219 197.828125 C 154.632812 197.40625 154.691406 196.988281 154.753906 196.628906 C 154.753906 196.511719 154.8125 196.390625 154.8125 196.332031 C 154.8125 196.210938 154.8125 196.152344 154.871094 196.03125 C 154.933594 195.613281 154.992188 195.253906 154.992188 194.832031 C 155.109375 193.636719 155.171875 192.378906 155.109375 191.183594 C 155.050781 189.683594 154.992188 187.949219 154.511719 186.390625 C 157.027344 187.109375 159.78125 187.710938 162.773438 188.070312 C 173.132812 189.445312 181.992188 187.949219 188.277344 186.210938 C 186.722656 189.265625 186.421875 192.5 186.78125 195.851562 C 186.78125 196.269531 186.839844 196.628906 186.839844 197.050781 C 186.542969 196.808594 186.0625 196.871094 185.945312 197.289062 C 185.523438 198.785156 186.480469 200.640625 187.320312 201.957031 C 187.558594 202.378906 187.859375 202.796875 188.21875 203.15625 C 188.398438 203.453125 188.519531 203.695312 188.757812 203.992188 C 188.699219 203.875 188.636719 203.695312 188.578125 203.515625 C 188.878906 203.8125 189.175781 204.171875 189.535156 204.472656 C 189.476562 204.53125 189.414062 204.53125 189.355469 204.59375 C 189.355469 204.59375 189.355469 204.652344 189.296875 204.652344 C 189.296875 204.652344 189.355469 204.710938 189.355469 204.710938 C 190.613281 206.027344 192.289062 206.867188 194.085938 207.105469 C 194.144531 207.105469 194.207031 207.105469 194.265625 207.105469 C 195.941406 207.464844 197.617188 207.707031 199.355469 207.824219 C 203.304688 208.125 207.257812 208.183594 211.207031 208.722656 C 211.925781 208.84375 212.585938 208.960938 213.304688 209.082031 C 213.304688 209.082031 213.304688 209.140625 213.304688 209.140625 C 213.664062 213.632812 213.722656 218.121094 213.601562 222.613281 C 213.484375 226.921875 212.644531 231.175781 212.40625 235.484375 C 203.902344 234.226562 195.582031 232.25 187.441406 229.558594 C 178.039062 226.503906 168.882812 222.492188 160.261719 217.644531 C 156.308594 215.429688 151.160156 211.777344 152 206.628906 C 151.820312 206.566406 151.9375 206.507812 152 206.449219 Z M 160.621094 199.203125 C 162.175781 199.203125 162.175781 201.597656 160.621094 201.597656 C 159.0625 201.597656 159.0625 199.203125 160.621094 199.203125 Z M 168.882812 200.582031 C 168.882812 200.519531 168.882812 200.460938 168.941406 200.460938 C 168.941406 200.460938 168.941406 200.460938 168.882812 200.582031 Z M 171.097656 201.539062 C 171.15625 201.359375 171.15625 201.480469 171.097656 201.539062 Z M 170.199219 202.078125 C 170.199219 202.078125 170.136719 202.078125 170.199219 202.078125 C 170.136719 202.078125 170.078125 202.078125 170.078125 202.078125 C 170.019531 202.078125 170.078125 202.078125 170.199219 202.078125 Z M 183.429688 198.664062 C 184.984375 198.664062 184.984375 201.058594 183.429688 201.058594 C 181.933594 201.058594 181.933594 198.664062 183.429688 198.664062 Z M 133.796875 149.214844 C 132.242188 149.214844 132.242188 146.820312 133.796875 146.820312 C 135.355469 146.820312 135.355469 149.214844 133.796875 149.214844 Z M 127.691406 153.164062 C 126.136719 153.164062 126.136719 150.769531 127.691406 150.769531 C 129.25 150.769531 129.25 153.164062 127.691406 153.164062 Z M 130.746094 143.945312 C 129.1875 143.945312 129.1875 141.550781 130.746094 141.550781 C 132.300781 141.550781 132.300781 143.945312 130.746094 143.945312 Z M 135.117188 156.21875 C 133.558594 156.21875 133.558594 153.824219 135.117188 153.824219 C 136.671875 153.824219 136.671875 156.21875 135.117188 156.21875 Z M 268.023438 246.378906 C 268.144531 246.261719 268.261719 246.199219 268.382812 246.140625 C 268.5 246.082031 268.679688 246.019531 268.859375 246.019531 L 269.460938 246.019531 C 269.699219 246.019531 269.878906 246.082031 270.058594 246.199219 C 270.117188 246.261719 270.238281 246.320312 270.296875 246.378906 C 270.417969 246.5 270.539062 246.679688 270.597656 246.917969 C 270.597656 247.039062 270.597656 247.160156 270.65625 247.21875 C 270.65625 247.398438 270.65625 247.519531 270.539062 247.699219 C 270.476562 247.816406 270.417969 247.996094 270.296875 248.058594 C 270.179688 248.175781 270.058594 248.238281 269.9375 248.296875 C 269.820312 248.355469 269.640625 248.414062 269.460938 248.414062 L 268.859375 248.414062 C 268.621094 248.414062 268.441406 248.355469 268.261719 248.238281 C 268.203125 248.175781 268.082031 248.117188 268.023438 248.058594 C 267.902344 247.9375 267.785156 247.757812 267.722656 247.519531 L 267.664062 247.21875 C 267.664062 247.039062 267.664062 246.917969 267.785156 246.738281 C 267.84375 246.621094 267.902344 246.5 268.023438 246.378906 Z M 276.464844 244.285156 C 278.019531 244.285156 278.019531 246.679688 276.464844 246.679688 C 274.90625 246.679688 274.90625 244.285156 276.464844 244.285156 Z M 268.921875 232.3125 C 266.886719 231.234375 268.144531 228.121094 268.679688 226.445312 C 270.058594 222.253906 272.214844 218.363281 275.027344 214.949219 C 275.984375 213.753906 277.722656 215.488281 276.703125 216.625 C 273.828125 220.039062 271.734375 224.109375 270.539062 228.421875 C 270.476562 228.660156 270.417969 228.898438 270.359375 229.136719 C 270.296875 229.257812 270.296875 229.617188 270.238281 229.855469 C 270.957031 229.257812 271.496094 228.539062 272.035156 227.820312 C 273.652344 225.726562 275.265625 223.628906 276.824219 221.476562 C 277.183594 220.9375 277.839844 220.695312 278.441406 221.054688 C 278.980469 221.355469 279.21875 222.132812 278.859375 222.671875 C 276.882812 225.84375 275.804688 229.316406 275.445312 233.03125 C 275.386719 233.390625 275.386719 233.269531 275.746094 233.269531 C 276.046875 233.269531 276.285156 233.210938 276.585938 233.089844 C 277.183594 232.851562 277.660156 232.429688 278.019531 231.953125 C 278.917969 230.933594 279.457031 229.617188 279.996094 228.359375 C 280.234375 227.761719 280.773438 227.34375 281.492188 227.523438 C 282.09375 227.703125 282.570312 228.421875 282.332031 229.019531 C 281.613281 230.816406 280.773438 232.730469 279.339844 234.109375 C 278.082031 235.363281 275.386719 236.5625 273.828125 235.066406 C 272.992188 234.226562 273.050781 233.089844 273.230469 232.011719 C 273.292969 231.292969 273.410156 230.574219 273.589844 229.796875 C 272.574219 231.113281 270.898438 233.328125 268.921875 232.3125 Z M 139.546875 144.363281 C 137.988281 144.363281 137.988281 141.96875 139.546875 141.96875 C 141.042969 141.96875 141.042969 144.363281 139.546875 144.363281 Z M 199.175781 154.304688 C 200.730469 154.304688 200.730469 156.699219 199.175781 156.699219 C 197.617188 156.699219 197.675781 154.304688 199.175781 154.304688 Z M 142.597656 150.949219 C 141.042969 150.949219 141.042969 148.554688 142.597656 148.554688 C 144.15625 148.554688 144.15625 150.949219 142.597656 150.949219 Z M 192.527344 149.871094 C 194.085938 149.871094 194.085938 152.265625 192.527344 152.265625 C 190.972656 152.265625 190.972656 149.871094 192.527344 149.871094 Z M 225.097656 150.949219 C 225.695312 150.832031 226.292969 150.832031 226.894531 150.832031 C 227.492188 150.832031 228.03125 150.890625 228.628906 150.949219 C 229.707031 151.128906 230.546875 151.488281 231.441406 152.027344 C 231.503906 152.089844 231.5625 152.148438 231.683594 152.148438 C 231.742188 152.148438 231.800781 152.207031 231.800781 152.207031 C 232.042969 152.265625 232.222656 152.328125 232.402344 152.445312 C 233 152.746094 233.300781 153.34375 233.300781 153.945312 C 233.359375 154.601562 232.699219 155.140625 232.101562 155.140625 C 231.621094 155.140625 231.203125 154.84375 231.023438 154.484375 C 231.023438 154.484375 230.964844 154.484375 230.964844 154.484375 C 230.546875 154.363281 230.1875 154.125 229.828125 153.882812 C 229.289062 153.523438 228.511719 153.34375 227.972656 153.285156 C 227.550781 153.226562 227.132812 153.226562 226.773438 153.226562 C 226.414062 153.226562 225.996094 153.164062 225.695312 153.226562 C 225.515625 153.285156 225.335938 153.34375 225.21875 153.40625 C 225.15625 153.464844 225.039062 153.464844 224.917969 153.523438 C 224.917969 153.523438 224.859375 153.523438 224.859375 153.523438 C 224.5 153.703125 224.378906 153.765625 224.199219 154.003906 C 223.78125 154.542969 222.941406 154.421875 222.523438 154.003906 C 222.042969 153.523438 222.105469 152.804688 222.523438 152.328125 C 223.0625 151.609375 224.199219 151.128906 225.097656 150.949219 Z M 193.066406 157.058594 C 194.625 157.058594 194.625 159.453125 193.066406 159.453125 C 191.511719 159.453125 191.511719 157.058594 193.066406 157.058594 Z M 198.097656 146.402344 C 199.652344 146.402344 199.652344 148.796875 198.097656 148.796875 C 196.539062 148.796875 196.539062 146.402344 198.097656 146.402344 Z M 150.859375 140.472656 C 150.800781 140.652344 150.742188 140.832031 150.679688 141.011719 C 150.679688 141.011719 150.679688 141.070312 150.679688 141.070312 C 150.441406 141.730469 149.960938 142.210938 149.246094 142.210938 C 148.707031 142.210938 148.226562 141.851562 148.105469 141.3125 C 147.808594 140.414062 147.746094 139.515625 147.867188 138.617188 C 147.925781 138.4375 147.925781 138.257812 147.988281 138.078125 C 147.988281 138.019531 147.988281 137.898438 147.988281 137.839844 C 147.988281 137.300781 148.40625 136.703125 149.003906 136.640625 C 149.363281 136.460938 149.84375 136.402344 150.203125 136.640625 C 150.5625 136.882812 150.742188 137.179688 150.921875 137.539062 C 150.980469 137.78125 151.039062 138.019531 151.039062 138.257812 C 151.039062 138.558594 151.039062 138.855469 150.980469 139.15625 C 150.921875 139.574219 150.921875 139.996094 150.859375 140.472656 Z M 160.976562 161.726562 C 160.441406 161.605469 159.902344 161.425781 159.421875 161.1875 C 158.941406 160.949219 158.464844 160.769531 158.042969 160.46875 C 157.625 160.171875 157.265625 159.8125 156.847656 159.453125 C 156.367188 159.09375 156.070312 158.734375 155.890625 158.195312 C 155.648438 157.597656 156.128906 156.878906 156.726562 156.699219 C 157.386719 156.519531 157.984375 156.9375 158.222656 157.535156 C 158.105469 157.296875 158.164062 157.417969 158.34375 157.535156 C 158.464844 157.65625 158.582031 157.714844 158.703125 157.835938 C 158.941406 158.074219 159.183594 158.3125 159.480469 158.492188 C 160.082031 158.914062 160.859375 159.273438 161.578125 159.390625 C 162.296875 159.511719 162.894531 159.390625 163.492188 159.273438 C 164.152344 159.09375 164.691406 158.851562 165.109375 158.375 C 166.1875 157.296875 167.863281 158.972656 166.785156 160.050781 C 165.347656 161.546875 163.015625 162.085938 160.976562 161.726562 Z M 163.492188 150.472656 C 163.492188 150.832031 163.492188 151.191406 163.492188 151.550781 C 163.492188 152.207031 162.953125 152.804688 162.296875 152.746094 C 161.636719 152.746094 161.097656 152.207031 161.097656 151.550781 C 161.097656 151.128906 161.039062 150.769531 161.097656 150.351562 C 161.15625 149.933594 161.277344 149.574219 161.335938 149.214844 C 161.398438 148.554688 161.335938 147.898438 161.277344 147.238281 C 161.277344 146.640625 161.816406 146.042969 162.476562 146.042969 C 163.132812 146.042969 163.671875 146.578125 163.671875 147.238281 C 163.671875 147.777344 163.730469 148.316406 163.730469 148.855469 C 163.730469 149.214844 163.671875 149.511719 163.613281 149.871094 C 163.613281 150.050781 163.550781 150.230469 163.492188 150.472656 Z M 163.492188 150.472656 " fill-opacity="1" fill-rule="nonzero"/></g></svg>