<svg xmlns="http://www.w3.org/2000/svg" xmlns:xlink="http://www.w3.org/1999/xlink" width="500" zoomAndPan="magnify" viewBox="0 0 375 374.999991" height="500" preserveAspectRatio="xMidYMid meet" version="1.0"><defs><clipPath id="d360a1cdb4"><path d="M 129.03125 112.5 L 246 112.5 L 246 262.5 L 129.03125 262.5 Z M 129.03125 112.5 " clip-rule="nonzero"/></clipPath></defs><rect x="-37.5" width="450" fill="#ffffff" y="-37.499999" height="449.999989" fill-opacity="1"/><rect x="-37.5" width="450" fill="#eba4ad" y="-37.499999" height="449.999989" fill-opacity="1"/><g clip-path="url(#d360a1cdb4)"><path fill="#ffffff" d="M 230.613281 112.5 C 229.488281 112.5 228.722656 113.8125 223.238281 125.128906 C 219.875 132.078125 216.003906 139.976562 214.640625 142.683594 C 212.347656 147.226562 212.214844 147.691406 212.914062 148.761719 C 213.613281 149.824219 213.488281 150.339844 211.40625 155.039062 C 210.160156 157.851562 207.460938 163.671875 205.402344 167.96875 C 203.347656 172.265625 199.191406 180.957031 196.171875 187.28125 L 190.675781 198.785156 L 188.519531 199.261719 C 185.574219 199.914062 184.746094 201.59375 185.839844 204.691406 C 186.824219 207.488281 186.882812 207.292969 185.058594 207.292969 C 182.03125 207.292969 180.464844 210.398438 182.222656 212.90625 C 182.988281 214 182.96875 214.066406 181.871094 214.066406 C 180.144531 214.066406 178.804688 215.550781 178.804688 217.46875 C 178.804688 219.425781 179.324219 219.925781 183.953125 222.464844 C 185.851562 223.503906 188.035156 224.382812 188.816406 224.417969 C 191.789062 224.550781 194.953125 222.050781 194.953125 219.570312 C 194.953125 219.1875 195.539062 218.488281 196.253906 218.019531 C 196.972656 217.550781 197.558594 216.804688 197.558594 216.367188 C 197.558594 215.925781 198.378906 214.492188 199.378906 213.175781 C 201.335938 210.617188 201.753906 208.03125 200.621094 205.542969 C 200.117188 204.4375 200.429688 203.347656 202.914062 197.574219 C 207.8125 186.191406 220.96875 156.230469 221.539062 155.167969 C 222.039062 154.234375 222.1875 154.21875 223.59375 154.945312 C 224.429688 155.375 225.460938 155.730469 225.890625 155.730469 C 226.96875 155.730469 230.632812 149.894531 234.113281 142.640625 C 235.710938 139.3125 238.410156 134.15625 240.113281 131.183594 C 244.472656 123.574219 245.707031 120.855469 245.09375 120.246094 C 244.417969 119.566406 241.972656 118.210938 236.773438 115.632812 C 234.421875 114.464844 232.355469 113.285156 232.183594 113.003906 C 232.011719 112.726562 231.304688 112.5 230.613281 112.5 Z M 231.859375 117.394531 C 231.972656 117.386719 232.105469 117.398438 232.261719 117.429688 C 232.882812 117.570312 233.90625 118.070312 235.859375 119.050781 C 238.097656 120.175781 240.175781 121.5 240.480469 121.996094 C 240.890625 122.667969 240.835938 123.085938 240.257812 123.644531 C 239.585938 124.296875 238.988281 124.09375 235.578125 122.0625 C 233.429688 120.785156 231.378906 119.5625 231.015625 119.351562 C 230.496094 119.042969 230.507812 118.761719 231.074219 117.984375 C 231.332031 117.632812 231.519531 117.417969 231.859375 117.394531 Z M 229.105469 122.394531 C 229.867188 122.394531 237.664062 127.382812 237.664062 127.871094 C 237.664062 128.167969 236.632812 130.214844 235.375 132.421875 C 234.117188 134.628906 231.984375 138.726562 230.636719 141.523438 C 229.285156 144.324219 227.445312 147.722656 226.542969 149.074219 C 225.640625 150.429688 224.785156 151.519531 224.640625 151.5 C 223.914062 151.402344 216.828125 147.652344 216.828125 147.367188 C 216.828125 146.722656 228.789062 122.394531 229.105469 122.394531 Z M 181.371094 129.167969 C 180.496094 129.167969 179.328125 129.40625 178.777344 129.703125 C 177.460938 130.40625 176.203125 132.898438 176.203125 134.800781 C 176.203125 135.632812 175.765625 136.875 175.234375 137.558594 C 174.699219 138.242188 174.085938 139.386719 173.867188 140.105469 C 173.652344 140.820312 173.167969 141.757812 172.792969 142.1875 C 172.417969 142.617188 162.464844 167.449219 150.675781 197.367188 C 131.113281 247.003906 129.265625 251.957031 129.5625 253.933594 C 130.042969 257.140625 133.507812 259.878906 139.480469 261.773438 C 140.628906 262.136719 143.230469 262.449219 145.261719 262.46875 C 149.785156 262.511719 149.914062 262.390625 152.386719 255.734375 C 153.398438 253.011719 155.511719 247.503906 157.089844 243.492188 C 158.664062 239.484375 161.59375 231.980469 163.601562 226.824219 C 172.75 203.300781 174.867188 197.851562 178.238281 189.195312 C 180.214844 184.109375 183.753906 175.027344 186.101562 169.011719 C 191.199219 155.933594 192.914062 151.015625 192.566406 150.449219 C 192.421875 150.21875 192.6875 149.289062 193.15625 148.382812 C 193.636719 147.453125 193.90625 146.042969 193.777344 145.144531 C 193.605469 143.996094 193.964844 142.878906 195.050781 141.175781 C 196.570312 138.785156 196.664062 137.109375 195.367188 135.546875 C 194.378906 134.359375 182.992188 129.167969 181.371094 129.167969 Z M 181.464844 132.8125 C 182.386719 132.8125 191.75 137.074219 192.519531 137.84375 C 192.6875 138.015625 192.480469 138.828125 192.054688 139.648438 C 191.121094 141.453125 190.214844 141.488281 187.140625 139.84375 C 185.851562 139.15625 183.546875 138.214844 182.023438 137.757812 C 179.292969 136.941406 179.261719 136.90625 179.613281 135.261719 C 180.089844 133.03125 180.257812 132.8125 181.464844 132.8125 Z M 178.648438 140.507812 C 179.152344 140.519531 179.8125 140.667969 180.773438 140.953125 C 184.382812 142.015625 189.964844 144.929688 190.140625 145.84375 C 190.226562 146.277344 189.996094 147.03125 189.628906 147.515625 C 189.015625 148.324219 188.476562 148.191406 182.976562 145.914062 C 176.824219 143.367188 175.582031 142.226562 177.460938 140.851562 C 177.796875 140.605469 178.144531 140.492188 178.648438 140.507812 Z M 174.734375 147.1875 C 174.761719 147.183594 174.800781 147.183594 174.851562 147.1875 C 176.289062 147.308594 185.644531 150.835938 187.578125 152.03125 C 188.386719 152.53125 188.160156 153.203125 181.394531 170.574219 C 175.132812 186.660156 170.183594 199.410156 167.347656 206.773438 C 165.96875 210.355469 162.6875 218.792969 160.054688 225.523438 C 157.425781 232.253906 154.148438 240.695312 152.773438 244.273438 C 151.402344 247.855469 149.980469 251.429688 149.613281 252.21875 C 149.25 253.003906 148.578125 253.640625 148.121094 253.628906 C 146.828125 253.59375 137.238281 250.1875 135.824219 249.261719 L 134.554688 248.429688 L 135.53125 245.960938 C 136.070312 244.605469 136.761719 242.90625 137.066406 242.191406 C 137.585938 240.972656 142.523438 228.4375 149.378906 210.941406 C 152.539062 202.875 154.9375 196.777344 162.90625 176.5625 C 165.675781 169.546875 169.367188 160.167969 171.109375 155.730469 C 172.851562 151.289062 174.457031 147.457031 174.671875 147.210938 C 174.683594 147.199219 174.703125 147.191406 174.734375 147.1875 Z M 217.914062 152.011719 C 218.449219 152.03125 217.289062 155.140625 213.945312 162.832031 C 206.59375 179.738281 202.820312 188.367188 199.28125 196.355469 C 195.921875 203.9375 195.808594 204.515625 197.085938 207.660156 C 197.683594 209.125 197.652344 209.449219 196.824219 210.363281 C 196.308594 210.933594 195.382812 211.472656 194.769531 211.5625 C 193.992188 211.671875 193.601562 212.152344 193.488281 213.121094 C 193.355469 214.277344 193.03125 214.554688 191.664062 214.683594 C 190.371094 214.808594 189.964844 215.121094 189.832031 216.078125 C 189.734375 216.757812 189.910156 217.5625 190.222656 217.875 C 190.53125 218.1875 190.785156 218.835938 190.785156 219.316406 C 190.785156 220.730469 189.148438 220.753906 186.40625 219.382812 C 184.148438 218.25 183.96875 218.042969 184.84375 217.578125 C 187.367188 216.246094 188.429688 213.269531 186.851562 211.957031 C 186.140625 211.371094 186.234375 211.203125 187.613281 210.625 C 189.792969 209.710938 190.367188 206.753906 188.992188 203.550781 C 188.675781 202.8125 188.980469 202.644531 190.855469 202.507812 C 192.632812 202.378906 193.234375 202.074219 193.761719 201.042969 C 194.128906 200.328125 199.460938 189.214844 205.609375 176.347656 C 211.757812 163.484375 217.027344 152.71875 217.320312 152.425781 C 217.511719 152.234375 217.667969 152.105469 217.78125 152.046875 C 217.832031 152.023438 217.878906 152.007812 217.914062 152.011719 Z M 133.324219 252.15625 C 133.363281 252.15625 133.410156 252.15625 133.460938 252.167969 C 133.757812 252.214844 134.230469 252.433594 134.949219 252.800781 C 135.722656 253.195312 138.703125 254.285156 141.566406 255.222656 C 147.210938 257.070312 148.050781 257.527344 147.253906 258.328125 C 145.671875 259.90625 141.023438 259.144531 136.097656 256.492188 C 133.828125 255.273438 133.199219 254.652344 133.066406 253.519531 C 132.972656 252.699219 132.960938 252.273438 133.214844 252.179688 C 133.25 252.167969 133.285156 252.160156 133.324219 252.15625 Z M 133.324219 252.15625 " fill-opacity="1" fill-rule="nonzero"/></g></svg>