<svg xmlns="http://www.w3.org/2000/svg" xmlns:xlink="http://www.w3.org/1999/xlink" width="500" zoomAndPan="magnify" viewBox="0 0 375 374.999991" height="500" preserveAspectRatio="xMidYMid meet" version="1.0"><defs><clipPath id="06c176a4b8"><path d="M 129.09375 112.5 L 245 112.5 L 245 262.5 L 129.09375 262.5 Z M 129.09375 112.5 " clip-rule="nonzero"/></clipPath></defs><rect x="-37.5" width="450" fill="#ffffff" y="-37.499999" height="449.999989" fill-opacity="1"/><rect x="-37.5" width="450" fill="#eba4ad" y="-37.499999" height="449.999989" fill-opacity="1"/><g clip-path="url(#06c176a4b8)"><path fill="#ffffff" d="M 185.238281 112.742188 C 174.175781 112.683594 167.652344 114.152344 158.355469 118.785156 C 142.585938 126.652344 132.558594 142.078125 132.558594 158.46875 C 132.558594 163.113281 134.171875 170.628906 136.160156 175.261719 L 138.078125 179.734375 L 136.398438 182.675781 C 133.984375 186.894531 131.746094 192.554688 130.3125 198.054688 C 129.277344 202.039062 129.074219 204.1875 129.09375 210.980469 C 129.117188 217.984375 129.316406 219.863281 130.53125 224.398438 C 133.707031 236.261719 141.046875 246.664062 151.023438 253.4375 C 156.683594 257.28125 165.378906 260.648438 172.476562 261.742188 C 174.269531 262.019531 178.667969 262.148438 182.253906 262.03125 C 207.375 261.203125 229.394531 243.824219 236.617188 219.125 C 238.550781 212.511719 239.019531 201.675781 237.6875 194.28125 L 236.773438 189.207031 L 238.988281 185.429688 C 242.636719 179.207031 244.015625 174.140625 244.296875 165.902344 C 244.570312 157.992188 243.9375 154.246094 241.171875 147.335938 C 235.839844 134.023438 223.019531 122.1875 207.976562 116.695312 C 200.199219 113.851562 194.070312 112.789062 185.238281 112.742188 Z M 185.238281 116.554688 C 195.15625 116.492188 199.71875 117.300781 207.960938 120.585938 C 223.539062 126.789062 236.171875 140.230469 239.804688 154.460938 C 245.847656 178.148438 229.589844 200.402344 202.480469 205.542969 C 197.238281 206.539062 187.015625 206.539062 181.535156 205.546875 C 169.972656 203.449219 159.007812 197.9375 150.828125 190.109375 C 146.867188 186.316406 142.335938 180.425781 142.335938 179.070312 C 142.335938 178.621094 141.996094 177.972656 141.578125 177.628906 C 139.199219 175.65625 136.324219 165.074219 136.324219 158.300781 C 136.324219 139.417969 149.984375 123.480469 170.847656 118.027344 C 175.578125 116.792969 177.4375 116.601562 185.238281 116.554688 Z M 175.753906 122.25 C 175.578125 122.261719 175.394531 122.304688 175.199219 122.378906 C 174.171875 122.773438 174.03125 129.222656 175.027344 130.222656 C 175.386719 130.582031 175.828125 130.875 176.007812 130.875 C 177.015625 130.875 177.636719 129.207031 177.636719 126.488281 C 177.636719 123.652344 176.96875 122.171875 175.753906 122.25 Z M 219.492188 129.503906 C 219.234375 129.453125 218.976562 129.460938 218.753906 129.546875 C 217.476562 130.039062 214.941406 133.992188 215.300781 134.933594 C 215.859375 136.394531 217.683594 135.824219 219.410156 133.648438 C 220.328125 132.484375 221.082031 131.292969 221.082031 131 C 221.082031 130.328125 220.273438 129.65625 219.492188 129.503906 Z M 179.652344 130.375 C 178.238281 130.382812 178.179688 130.644531 178.179688 131.617188 C 178.179688 132.355469 178.484375 133.078125 178.859375 133.230469 C 179.984375 133.683594 183.832031 133.605469 184.613281 133.109375 C 185.015625 132.851562 185.257812 132.183594 185.152344 131.625 C 184.988281 130.777344 184.382812 130.574219 181.566406 130.441406 C 180.746094 130.402344 180.125 130.375 179.652344 130.375 Z M 176.078125 131.417969 C 174.777344 131.417969 174.160156 132.238281 174.597656 133.382812 C 175.0625 134.59375 176.792969 134.054688 176.996094 132.632812 C 177.125 131.71875 176.898438 131.417969 176.078125 131.417969 Z M 206.242188 132.269531 C 204.703125 132.859375 204.757812 134.183594 206.378906 135.804688 C 208.125 137.550781 209.921875 137.871094 210.4375 136.523438 C 210.878906 135.378906 207.382812 131.832031 206.242188 132.269531 Z M 170.980469 132.273438 C 170.480469 132.273438 169.882812 132.308594 169.3125 132.378906 C 167.191406 132.636719 166.414062 133.492188 166.96875 134.949219 C 167.332031 135.890625 170.125 136.042969 171.699219 135.199219 C 172.875 134.570312 173.113281 132.753906 172.070312 132.371094 C 171.882812 132.304688 171.480469 132.269531 170.980469 132.273438 Z M 176.320312 134.675781 C 175.878906 134.675781 175.289062 135.082031 175.011719 135.582031 C 174.554688 136.394531 174.675781 139.839844 175.21875 141.601562 C 175.484375 142.460938 176.679688 142.476562 177.527344 141.628906 C 178.890625 140.261719 177.921875 134.675781 176.320312 134.675781 Z M 215.042969 136.953125 C 213.601562 136.789062 212.585938 138.011719 213.257812 139.101562 C 213.4375 139.390625 214.234375 139.550781 215.027344 139.457031 C 217.039062 139.226562 217.054688 137.1875 215.042969 136.953125 Z M 217.546875 138.675781 C 216.058594 139.246094 216.660156 141.125 218.773438 142.523438 C 221.214844 144.132812 222.917969 144.105469 223.152344 142.457031 C 223.28125 141.550781 222.746094 140.941406 220.835938 139.820312 C 219.472656 139.019531 217.992188 138.507812 217.546875 138.675781 Z M 211.628906 141.734375 C 210.558594 141.734375 210.167969 142.195312 209.460938 144.265625 C 208.820312 146.148438 208.753906 146.980469 209.207031 147.523438 C 209.539062 147.925781 210.007812 148.253906 210.25 148.253906 C 211.234375 148.253906 212.9375 145.28125 212.9375 143.5625 C 212.9375 141.996094 212.75 141.734375 211.628906 141.734375 Z M 167.53125 172.800781 C 165.679688 172.535156 162.660156 177.085938 163.878906 178.304688 C 164.730469 179.15625 166.203125 178.535156 167.5625 176.753906 C 169.214844 174.585938 169.203125 173.042969 167.53125 172.800781 Z M 154.226562 172.839844 C 153.425781 173.074219 152.652344 173.96875 152.652344 174.890625 C 152.652344 175.425781 153.285156 176.621094 154.058594 177.539062 C 155.527344 179.285156 157.375 179.734375 157.859375 178.46875 C 158.210938 177.550781 156.023438 173.246094 155.011719 172.855469 C 154.765625 172.761719 154.496094 172.765625 154.226562 172.839844 Z M 217.546875 173.582031 C 216.355469 174.042969 214.507812 177.339844 214.890625 178.332031 C 215.417969 179.714844 217.058594 179.363281 218.589844 177.539062 C 219.363281 176.621094 219.996094 175.660156 219.996094 175.40625 C 219.996094 174.523438 218.332031 173.285156 217.546875 173.582031 Z M 191.773438 177.722656 C 191.496094 177.769531 191.234375 177.882812 191.066406 178.054688 C 190.269531 178.847656 189.074219 183.546875 189.429688 184.472656 C 189.785156 185.410156 191.460938 185.382812 192.25 184.425781 C 192.597656 184.007812 193.027344 182.425781 193.207031 180.90625 C 193.476562 178.617188 193.375 178.085938 192.609375 177.789062 C 192.355469 177.691406 192.054688 177.675781 191.773438 177.722656 Z M 161.910156 178.28125 C 161.628906 178.210938 161.34375 178.214844 161.078125 178.316406 C 159.828125 178.796875 160.03125 181.425781 161.34375 181.765625 C 161.941406 181.921875 162.429688 182.464844 162.429688 182.96875 C 162.429688 183.472656 163.257812 184.789062 164.265625 185.890625 C 165.277344 186.996094 166.234375 187.898438 166.394531 187.898438 C 167.382812 187.898438 168.402344 187.109375 168.398438 186.347656 C 168.394531 185.386719 164.863281 181.382812 164.023438 181.382812 C 163.742188 181.382812 163.515625 180.921875 163.515625 180.363281 C 163.515625 179.382812 162.742188 178.492188 161.910156 178.28125 Z M 207.527344 178.796875 C 205.769531 178.6875 203.703125 179.367188 203.703125 180.332031 C 203.703125 180.960938 204.179688 181.464844 204.925781 181.621094 C 205.597656 181.765625 206.636719 181.984375 207.234375 182.113281 C 207.832031 182.238281 208.363281 182.371094 208.410156 182.40625 C 208.460938 182.4375 208.890625 182.320312 209.363281 182.136719 C 210.585938 181.667969 210.425781 179.898438 209.09375 179.1875 C 208.664062 178.957031 208.113281 178.832031 207.527344 178.796875 Z M 212.386719 181.382812 C 211.171875 181.382812 210.546875 182.910156 211.363281 183.894531 C 212.171875 184.867188 213.179688 184.839844 214.023438 183.824219 C 214.855469 182.824219 213.890625 181.382812 212.386719 181.382812 Z M 217.773438 181.382812 C 214.792969 181.382812 215.222656 184.332031 218.273438 184.796875 C 221.800781 185.339844 222.167969 185.246094 222.167969 183.8125 C 222.167969 182.285156 220.535156 181.382812 217.773438 181.382812 Z M 180.679688 181.589844 C 180.15625 181.558594 179.824219 181.6875 179.492188 181.964844 C 178.320312 182.933594 178.757812 184.765625 180.351562 185.570312 C 182.152344 186.476562 184.953125 186.453125 185.726562 185.523438 C 186.765625 184.273438 185.820312 183.109375 183 182.175781 C 181.914062 181.8125 181.203125 181.621094 180.679688 181.589844 Z M 157.507812 182.589844 C 156.277344 182.355469 153.738281 184.753906 153.738281 186.152344 C 153.738281 187.050781 154.0625 187.355469 155.003906 187.355469 C 157.582031 187.355469 159.847656 183.042969 157.507812 182.589844 Z M 140.585938 183.90625 C 140.875 184.050781 141.234375 184.558594 141.890625 185.539062 C 142.660156 186.6875 144.605469 189.0625 146.210938 190.816406 L 149.132812 194.003906 L 147.351562 197.605469 C 138.921875 214.675781 147.355469 234.265625 166.078125 241.097656 C 191.601562 250.414062 220.265625 232.738281 220.214844 207.71875 L 220.207031 203.371094 L 223.765625 201.097656 C 225.726562 199.851562 228.746094 197.5625 230.476562 196.015625 C 232.207031 194.464844 233.71875 193.292969 233.832031 193.410156 C 234.492188 194.066406 235.28125 203.878906 234.964844 207.414062 C 233.824219 219.996094 229.542969 230.089844 221.164062 239.945312 C 215.136719 247.035156 203.363281 254.296875 193.65625 256.90625 C 187.863281 258.46875 175.777344 258.851562 170.390625 257.648438 C 160.546875 255.449219 153.328125 251.535156 146.421875 244.652344 C 139.476562 237.726562 135.207031 229.859375 133.339844 220.527344 C 132.007812 213.871094 132.476562 203.433594 134.402344 196.976562 C 135.859375 192.089844 138.34375 186.238281 139.722656 184.453125 C 140.085938 183.980469 140.296875 183.761719 140.585938 183.90625 Z M 188.210938 186.078125 C 187.105469 186.503906 187.207031 188.816406 188.355469 189.460938 C 189.410156 190.050781 190.671875 189.332031 190.671875 188.140625 C 190.671875 187.050781 189.105469 185.738281 188.210938 186.078125 Z M 212.785156 186.335938 C 211.863281 186.265625 211.019531 187.382812 210.867188 189.175781 C 210.722656 190.882812 210.859375 191.15625 211.84375 191.15625 C 213.476562 191.15625 214.839844 187.980469 213.703125 186.820312 C 213.40625 186.515625 213.089844 186.359375 212.785156 186.335938 Z M 194.136719 187.972656 C 193.46875 188 192.855469 188.195312 192.433594 188.617188 C 191.402344 189.648438 192.207031 190.953125 194.105469 191.320312 C 196.582031 191.804688 197.777344 191.671875 198.078125 190.878906 C 198.667969 189.347656 196.144531 187.894531 194.136719 187.972656 Z M 186.792969 191.261719 C 185.5625 191.414062 184.695312 193 184.695312 195.269531 C 184.695312 197.46875 184.8125 197.675781 186.042969 197.675781 C 187.484375 197.675781 187.984375 196.621094 188.144531 193.234375 C 188.203125 191.996094 187.964844 191.414062 187.34375 191.285156 C 187.152344 191.246094 186.96875 191.238281 186.792969 191.261719 Z M 152.097656 196.589844 C 152.304688 196.589844 153.800781 197.535156 155.417969 198.691406 C 157.035156 199.84375 160.398438 201.816406 162.894531 203.070312 C 178.363281 210.835938 196.65625 212.175781 212.351562 206.6875 C 214.570312 205.910156 216.464844 205.277344 216.5625 205.277344 C 217.074219 205.277344 216.628906 211.457031 215.914062 214.261719 C 213.152344 225.097656 203.894531 234.378906 192.027344 238.207031 C 188.746094 239.261719 186.21875 239.65625 181.710938 239.8125 C 174.375 240.066406 170.300781 239.238281 164.261719 236.253906 C 149.6875 229.058594 143.925781 213.964844 150.316406 199.710938 C 151.085938 197.992188 151.886719 196.589844 152.097656 196.589844 Z M 152.097656 196.589844 " fill-opacity="1" fill-rule="nonzero"/></g></svg>