<svg xmlns="http://www.w3.org/2000/svg" xmlns:xlink="http://www.w3.org/1999/xlink" width="500" zoomAndPan="magnify" viewBox="0 0 375 374.999991" height="500" preserveAspectRatio="xMidYMid meet" version="1.0"><defs><clipPath id="a387bf3cc6"><path d="M 119.375 112.5 L 255 112.5 L 255 262.5 L 119.375 262.5 Z M 119.375 112.5 " clip-rule="nonzero"/></clipPath></defs><rect x="-37.5" width="450" fill="#ffffff" y="-37.499999" height="449.999989" fill-opacity="1"/><rect x="-37.5" width="450" fill="#eba4ad" y="-37.499999" height="449.999989" fill-opacity="1"/><g clip-path="url(#a387bf3cc6)"><path fill="#ffffff" d="M 152.773438 112.609375 C 152.214844 112.726562 152.078125 114.972656 151.9375 126.261719 C 151.847656 133.691406 151.65625 140.714844 151.515625 141.871094 C 151.375 143.023438 150.921875 147.316406 150.503906 151.414062 L 149.75 158.867188 L 147.117188 162.589844 C 145.667969 164.636719 143.316406 168.203125 141.886719 170.511719 C 134.484375 182.480469 132.625 185.328125 129.554688 189.390625 C 127.714844 191.824219 125.113281 195.703125 123.769531 198.011719 C 122.425781 200.316406 120.917969 202.648438 120.417969 203.195312 C 119.699219 203.972656 119.535156 204.71875 119.648438 206.6875 L 119.792969 209.191406 L 125.617188 212.222656 C 128.820312 213.890625 133.429688 216.429688 135.867188 217.863281 C 140.152344 220.386719 152.183594 227.195312 167.082031 235.519531 C 171.054688 237.742188 177.132812 240.980469 180.59375 242.71875 C 190.09375 247.492188 201.121094 253.25 202.972656 254.40625 C 205.539062 256.007812 210.203125 258.316406 215.304688 260.503906 C 217.867188 261.605469 220.402344 262.511719 220.9375 262.519531 C 221.851562 262.539062 222.988281 260.941406 222.988281 259.648438 C 222.988281 259.363281 223.5 258.464844 224.121094 257.652344 C 224.742188 256.835938 226.449219 254.089844 227.914062 251.550781 C 229.378906 249.011719 231.351562 245.777344 232.300781 244.367188 C 233.25 242.960938 234.933594 240.023438 236.046875 237.84375 C 238.121094 233.789062 240.550781 229.363281 249.246094 213.820312 C 254.0625 205.210938 254.234375 204.804688 254.75 200.804688 C 255.503906 194.96875 254.207031 160.15625 253.015625 154.152344 C 252.875 153.4375 252.34375 153.066406 251.152344 152.84375 C 249.417969 152.519531 236.71875 147.570312 233.472656 145.953125 C 232.449219 145.445312 229.828125 144.011719 227.648438 142.769531 C 225.472656 141.53125 219.183594 138.695312 213.671875 136.472656 C 190.496094 127.117188 183.324219 124.175781 178.074219 121.882812 C 175.023438 120.550781 170.203125 118.644531 167.359375 117.644531 C 164.515625 116.644531 160.222656 115.074219 157.816406 114.152344 C 155.410156 113.226562 153.144531 112.535156 152.773438 112.609375 Z M 154.65625 115.46875 C 154.753906 115.375 156.277344 115.90625 158.042969 116.648438 C 159.8125 117.394531 163.460938 118.785156 166.148438 119.742188 C 168.839844 120.699219 173.8125 122.703125 177.195312 124.199219 C 180.582031 125.695312 185.71875 127.855469 188.609375 129 C 191.503906 130.144531 196.492188 132.164062 199.695312 133.488281 C 202.898438 134.8125 209.1875 137.363281 213.671875 139.152344 C 218.15625 140.945312 224.027344 143.640625 226.71875 145.140625 C 231.890625 148.023438 233.34375 148.703125 241.160156 151.871094 C 243.851562 152.960938 246.886719 154.300781 247.910156 154.851562 C 248.929688 155.398438 250.003906 155.847656 250.296875 155.847656 C 250.585938 155.847656 250.949219 156.632812 251.097656 157.59375 C 252.132812 164.222656 253.011719 199.238281 252.21875 202.085938 C 252.019531 202.792969 251.601562 203.363281 251.285156 203.359375 C 250.550781 203.347656 241.328125 199.402344 230.910156 194.640625 C 223.226562 191.128906 204.003906 181.480469 177.566406 167.859375 C 166.449219 162.132812 156.566406 157.480469 154.042969 156.78125 C 152.683594 156.40625 152.671875 156.167969 153.585938 145.597656 C 153.882812 142.136719 154.210938 133.980469 154.304688 127.472656 C 154.402344 120.96875 154.5625 115.566406 154.65625 115.46875 Z M 159.171875 122.765625 C 157.96875 122.765625 157.25 124.101562 157.898438 125.136719 C 158.257812 125.714844 158.1875 127.648438 157.640625 132.15625 C 156.675781 140.082031 155.894531 149.285156 155.894531 152.609375 C 155.894531 155.148438 156.4375 156.3125 157.609375 156.3125 C 158.261719 156.3125 167.25 160.582031 183.15625 168.4375 C 188.792969 171.222656 194.558594 173.949219 195.96875 174.496094 C 197.378906 175.042969 201.253906 176.828125 204.585938 178.464844 C 216.628906 184.371094 225.839844 188.308594 238.832031 193.089844 C 245.121094 195.40625 248.113281 195.976562 248.1875 194.867188 C 248.425781 191.355469 248.003906 167.03125 247.640625 163.3125 C 247.179688 158.570312 246.773438 157.550781 245.546875 158.023438 C 245.222656 158.148438 243.734375 157.605469 242.242188 156.816406 C 240.75 156.027344 236.804688 154.148438 233.472656 152.636719 C 230.140625 151.125 224.902344 148.6875 221.824219 147.21875 C 215.554688 144.21875 209.511719 141.867188 200.269531 138.824219 C 196.820312 137.6875 192.917969 136.257812 191.605469 135.644531 C 190.289062 135.03125 187.324219 133.785156 185.019531 132.878906 C 182.710938 131.96875 179.148438 130.457031 177.097656 129.515625 C 172.019531 127.191406 160.273438 122.765625 159.171875 122.765625 Z M 160.835938 125.640625 C 160.976562 125.441406 172.355469 129.988281 178.496094 132.695312 C 189.957031 137.75 194.707031 139.667969 199.929688 141.351562 C 208.40625 144.089844 214.632812 146.550781 221.824219 150.003906 C 225.414062 151.726562 230.445312 154.070312 233.007812 155.214844 C 235.570312 156.359375 239.371094 158.160156 241.449219 159.21875 L 245.234375 161.136719 L 245.523438 164.199219 C 245.683594 165.882812 245.816406 173.078125 245.816406 180.191406 C 245.816406 187.300781 245.660156 193.109375 245.46875 193.101562 C 245.121094 193.082031 239.050781 190.742188 229.046875 186.761719 C 223.359375 184.5 215.859375 181.128906 204.820312 175.878906 C 201.105469 174.113281 195.234375 171.390625 191.773438 169.832031 C 188.316406 168.273438 184.542969 166.46875 183.386719 165.820312 C 181.21875 164.59375 175.832031 161.988281 167.78125 158.269531 C 165.21875 157.085938 162.597656 155.773438 161.957031 155.351562 C 161.316406 154.929688 160.214844 154.445312 159.511719 154.273438 C 158.589844 154.050781 158.222656 153.671875 158.222656 152.925781 C 158.199219 149.03125 160.378906 126.285156 160.835938 125.640625 Z M 153.027344 159.265625 C 153.292969 159.222656 153.585938 159.253906 153.960938 159.308594 C 155.613281 159.542969 169.308594 166.132812 179.429688 171.5625 C 199.597656 182.386719 235.984375 200.066406 248.382812 205.066406 C 249.664062 205.585938 250.675781 206.199219 250.628906 206.433594 C 250.582031 206.671875 248.195312 210.953125 245.324219 215.949219 C 242.449219 220.945312 238.011719 228.910156 235.464844 233.652344 C 232.914062 238.394531 230.558594 242.585938 230.226562 242.972656 C 229.898438 243.355469 228.109375 246.289062 226.253906 249.492188 C 224.398438 252.695312 222.121094 256.273438 221.1875 257.4375 L 219.496094 259.558594 L 216 258.097656 C 211.988281 256.425781 207.90625 254.386719 204.300781 252.253906 C 202.921875 251.4375 196.445312 248.042969 189.910156 244.710938 C 175.542969 237.382812 169.519531 234.136719 154.035156 225.375 C 147.5 221.675781 139.640625 217.226562 136.566406 215.488281 C 133.488281 213.746094 128.613281 211.144531 125.726562 209.703125 L 120.480469 207.082031 L 122.285156 204.796875 C 123.28125 203.539062 125.101562 200.761719 126.332031 198.628906 C 127.558594 196.496094 129.992188 192.90625 131.730469 190.652344 C 133.46875 188.402344 137.550781 182.214844 140.796875 176.910156 C 144.042969 171.601562 147.984375 165.421875 149.554688 163.171875 C 151.621094 160.210938 152.21875 159.394531 153.027344 159.265625 Z M 164.105469 169.363281 C 159.871094 169.347656 155.128906 172.820312 153.757812 176.941406 C 151.5625 183.539062 153.96875 190.429688 159.339844 192.929688 C 162.460938 194.382812 164.894531 194.351562 167.964844 192.824219 C 174.71875 189.457031 176.636719 179.378906 171.671875 173.375 C 170.03125 171.390625 166.21875 169.367188 164.105469 169.363281 Z M 162.75 172.179688 C 163.175781 172.171875 163.671875 172.199219 164.28125 172.242188 C 166.695312 172.417969 167.316406 172.664062 168.699219 174.003906 C 170.984375 176.21875 171.855469 178.34375 171.855469 181.683594 C 171.855469 186.140625 169.804688 189.429688 166.042969 191 C 164.078125 191.820312 163.234375 191.847656 161.257812 191.160156 C 154.394531 188.765625 153.359375 177.410156 159.625 173.261719 C 160.832031 172.464844 161.472656 172.191406 162.75 172.179688 Z M 194.671875 184.320312 C 193.988281 184.277344 193.300781 184.316406 192.605469 184.445312 C 189.898438 184.953125 186.675781 187.445312 185.300781 190.089844 C 183.59375 193.367188 183.585938 197.996094 185.277344 201.28125 C 186.578125 203.804688 189.289062 206.023438 191.832031 206.640625 L 191.84375 206.640625 C 198.660156 208.292969 204.933594 202.132812 204.238281 194.46875 C 203.738281 188.957031 199.449219 184.621094 194.675781 184.320312 Z M 194.417969 186.984375 C 197.183594 186.984375 199.390625 188.515625 200.867188 191.464844 C 202.203125 194.125 202.3125 195.914062 201.308594 198.753906 C 200.511719 201.019531 199.148438 202.667969 197.273438 203.644531 C 195.335938 204.652344 192.167969 204.472656 190.371094 203.253906 C 183.285156 198.429688 186.132812 186.984375 194.417969 186.984375 Z M 150.023438 192.710938 C 145.171875 192.5625 140.503906 195.472656 139.074219 200.761719 C 138.285156 203.675781 138.804688 208.09375 140.21875 210.507812 C 142.1875 213.871094 144.835938 215.875 148.679688 216.910156 C 151.964844 217.792969 156.296875 216.386719 159.019531 213.542969 C 161.054688 211.421875 161.957031 209.039062 161.957031 205.796875 C 161.957031 201.914062 160.835938 199.054688 158.289062 196.441406 C 155.90625 193.996094 152.933594 192.800781 150.023438 192.710938 Z M 149.375 194.996094 C 153.441406 194.96875 158.105469 198.515625 159.160156 202.4375 C 160.375 206.929688 158.570312 211.773438 154.976562 213.6875 C 153.070312 214.699219 149.339844 214.804688 147.265625 213.898438 C 145.546875 213.148438 143.082031 210.75 142.117188 208.886719 C 141.101562 206.917969 140.777344 203.328125 141.441406 201.324219 C 142.542969 197.976562 146.257812 195.015625 149.375 194.996094 Z M 220.652344 197.695312 C 216.019531 197.976562 211.566406 201.335938 211.003906 207.550781 C 210.855469 209.175781 210.992188 211.207031 211.335938 212.421875 C 212.070312 215.050781 214.679688 218.136719 217.140625 219.289062 C 219.910156 220.582031 224.128906 220.28125 226.660156 218.605469 C 230.484375 216.074219 232.363281 211.15625 231.359375 206.3125 C 230.09375 200.210938 225.285156 197.414062 220.652344 197.695312 Z M 221.734375 200.039062 C 225.503906 200.308594 229.046875 203.4375 229.046875 208.621094 C 229.046875 210.054688 228.824219 211.820312 228.550781 212.539062 C 227.945312 214.148438 225.984375 216.273438 224.292969 217.15625 C 220.871094 218.941406 216.507812 217.175781 214.488281 213.1875 C 212.980469 210.210938 212.855469 207.679688 214.082031 204.980469 C 215.730469 201.347656 218.800781 199.828125 221.734375 200.039062 Z M 184.910156 207.867188 C 181.851562 207.78125 178.585938 209.085938 175.953125 212.074219 C 170.511719 218.257812 171.136719 227.46875 177.25 231.203125 C 178.597656 232.027344 179.664062 232.25 182.25 232.253906 C 185.0625 232.253906 185.835938 232.0625 187.625 230.929688 C 192.117188 228.082031 194.585938 223.664062 194.5625 218.511719 C 194.53125 212.003906 190.011719 208.007812 184.910156 207.867188 Z M 185.371094 210.398438 C 186.507812 210.449219 187.5625 210.734375 188.402344 211.257812 C 194.140625 214.859375 192.96875 225.144531 186.394531 228.867188 C 184.039062 230.199219 180.476562 230.277344 178.449219 229.039062 C 173.003906 225.71875 173.703125 216.070312 179.683594 212.011719 C 181.367188 210.871094 183.480469 210.3125 185.371094 210.398438 Z M 211.082031 222.128906 C 210.554688 222.109375 210.035156 222.144531 209.535156 222.242188 C 203.449219 223.382812 199.285156 229.191406 199.8125 235.792969 C 200.1875 240.433594 202.410156 243.566406 206.449219 245.148438 L 206.441406 245.148438 C 211.734375 247.21875 218.410156 243.757812 220.402344 237.90625 C 221.328125 235.21875 221.324219 230.839844 220.402344 228.628906 C 218.902344 225.023438 214.78125 222.261719 211.085938 222.128906 Z M 211.160156 224.800781 C 220.164062 224.800781 221.582031 238.660156 212.976562 242.566406 C 209.800781 244.011719 207.265625 243.554688 204.808594 241.09375 C 199.078125 235.367188 203.199219 224.800781 211.160156 224.800781 Z M 211.160156 224.800781 " fill-opacity="1" fill-rule="nonzero"/></g></svg>