<svg xmlns="http://www.w3.org/2000/svg" xmlns:xlink="http://www.w3.org/1999/xlink" width="500" zoomAndPan="magnify" viewBox="0 0 375 374.999991" height="500" preserveAspectRatio="xMidYMid meet" version="1.0"><defs><clipPath id="ca0077c8b6"><path d="M 114 113 L 260.96875 113 L 260.96875 262.5 L 114 262.5 Z M 114 113 " clip-rule="nonzero"/></clipPath></defs><rect x="-37.5" width="450" fill="#ffffff" y="-37.499999" height="449.999989" fill-opacity="1"/><rect x="-37.5" width="450" fill="#eba4ad" y="-37.499999" height="449.999989" fill-opacity="1"/><path fill="#ffffff" d="M 231.507812 151.617188 C 230.917969 148.960938 229.09375 146.691406 226.625 145.539062 L 198.71875 132.503906 C 196.578125 131.503906 194.105469 131.804688 192.265625 133.28125 C 190.425781 134.757812 189.601562 137.105469 190.113281 139.410156 L 197.339844 171.878906 C 197.929688 174.535156 199.753906 176.804688 202.21875 177.957031 L 230.128906 190.992188 C 230.96875 191.382812 231.859375 191.574219 232.742188 191.574219 C 234.109375 191.574219 235.460938 191.113281 236.578125 190.214844 C 238.421875 188.738281 239.246094 186.390625 238.730469 184.085938 Z M 192.421875 138.894531 C 192.105469 137.457031 192.597656 136.046875 193.746094 135.125 C 194.445312 134.566406 195.261719 134.28125 196.097656 134.28125 C 196.640625 134.28125 197.191406 134.402344 197.714844 134.648438 L 209.011719 139.921875 L 195.765625 153.917969 Z M 196.386719 156.707031 L 211.269531 140.976562 L 217.984375 144.113281 L 198.230469 164.984375 Z M 235.097656 188.371094 C 233.949219 189.292969 232.464844 189.472656 231.132812 188.847656 L 218.546875 182.972656 L 226.316406 174.761719 C 226.765625 174.285156 226.746094 173.535156 226.269531 173.089844 C 225.796875 172.640625 225.046875 172.660156 224.597656 173.132812 L 216.289062 181.914062 L 203.222656 175.8125 C 201.417969 174.972656 200.082031 173.308594 199.648438 171.363281 L 198.851562 167.773438 L 220.242188 145.167969 L 225.625 147.683594 C 227.429688 148.523438 228.765625 150.1875 229.199219 152.132812 L 236.421875 184.601562 C 236.742188 186.039062 236.25 187.449219 235.097656 188.371094 Z M 235.097656 188.371094 " fill-opacity="1" fill-rule="nonzero"/><g clip-path="url(#ca0077c8b6)"><path fill="#ffffff" d="M 260.464844 188.5625 L 249.898438 141.074219 C 248.875 136.476562 245.714844 132.539062 241.445312 130.546875 L 207.085938 114.5 C 202.992188 112.585938 198.109375 113.226562 194.644531 116.128906 L 185.203125 124.039062 C 181.847656 126.851562 180.351562 131.25 181.304688 135.527344 L 189.769531 173.566406 C 190.542969 177.046875 192.542969 180.144531 195.320312 182.3125 C 190.207031 182 185.046875 183.074219 180.40625 185.511719 L 180.101562 184.058594 C 178.886719 178.292969 173.207031 174.59375 167.445312 175.804688 L 123.429688 185.070312 C 117.664062 186.28125 113.960938 191.960938 115.175781 197.726562 L 121.613281 228.3125 C 122.199219 231.105469 123.839844 233.5 126.230469 235.058594 C 127.988281 236.207031 129.996094 236.800781 132.046875 236.800781 L 141.1875 235.109375 C 142.199219 239.511719 145.160156 243.207031 149.296875 245.140625 L 180.640625 259.777344 C 184.445312 261.554688 188.542969 262.429688 192.628906 262.429688 C 198.351562 262.429688 204.046875 260.710938 208.875 257.34375 L 242.496094 233.902344 C 245.675781 231.683594 247.574219 228.046875 247.574219 224.171875 L 247.574219 212.082031 C 247.574219 209.410156 246.65625 206.867188 245.074219 204.824219 C 246.375 204.667969 247.632812 204.148438 248.671875 203.277344 L 258.167969 195.324219 C 260.144531 193.667969 261.023438 191.078125 260.464844 188.5625 Z M 169.648438 177.941406 C 173.496094 177.941406 176.964844 180.632812 177.785156 184.546875 L 184.222656 215.132812 C 185.167969 219.621094 182.285156 224.042969 177.796875 224.988281 L 168.273438 226.992188 L 158.40625 180.125 Z M 186.539062 214.644531 L 182.632812 196.085938 L 185.859375 193.835938 C 189.039062 191.621094 193.199219 191.261719 196.714844 192.902344 L 224.667969 205.957031 C 226.5625 206.84375 227.804688 208.617188 227.984375 210.703125 C 228.164062 212.789062 227.246094 214.75 225.527344 215.945312 L 195.667969 236.765625 C 192.488281 238.984375 188.328125 239.34375 184.8125 237.703125 L 167.433594 229.585938 L 178.285156 227.300781 C 184.050781 226.089844 187.753906 220.410156 186.539062 214.644531 Z M 156.09375 180.613281 L 165.957031 227.480469 L 145.621094 231.757812 L 135.757812 184.890625 Z M 133.78125 234.25 C 131.609375 234.707031 129.386719 234.292969 127.523438 233.078125 C 125.664062 231.863281 124.386719 230 123.925781 227.824219 L 117.488281 197.238281 C 116.546875 192.75 119.429688 188.328125 123.917969 187.382812 L 133.441406 185.378906 L 143.304688 232.246094 Z M 245.207031 224.171875 C 245.207031 227.273438 243.6875 230.183594 241.144531 231.960938 L 207.523438 255.402344 C 199.9375 260.691406 190.019531 261.546875 181.640625 257.632812 L 150.300781 242.996094 C 146.839844 241.378906 144.359375 238.296875 143.5 234.625 L 148.625 233.546875 L 179.925781 248.1875 C 183.730469 249.964844 187.828125 250.839844 191.910156 250.839844 C 197.632812 250.839844 203.332031 249.121094 208.160156 245.753906 L 242.496094 221.8125 C 243.550781 221.078125 244.457031 220.183594 245.207031 219.183594 Z M 245.207031 212.082031 C 245.207031 215.183594 243.6875 218.097656 241.144531 219.871094 L 206.804688 243.8125 C 199.222656 249.101562 189.304688 249.957031 180.925781 246.042969 L 152.441406 232.742188 L 163.578125 230.398438 L 183.8125 239.847656 C 185.59375 240.679688 187.511719 241.085938 189.421875 241.085938 C 192.097656 241.085938 194.761719 240.28125 197.023438 238.707031 L 226.882812 217.886719 C 229.300781 216.199219 230.59375 213.4375 230.339844 210.5 C 230.085938 207.5625 228.339844 205.0625 225.667969 203.8125 L 197.714844 190.757812 C 193.4375 188.761719 188.378906 189.199219 184.507812 191.898438 L 182.105469 193.574219 L 180.914062 187.925781 C 188.207031 183.855469 196.992188 183.523438 204.597656 187.074219 L 239.734375 203.484375 C 243.058594 205.039062 245.207031 208.414062 245.207031 212.082031 Z M 247.15625 201.464844 C 245.816406 202.585938 243.933594 202.832031 242.351562 202.09375 L 199.222656 181.949219 C 195.613281 180.265625 192.941406 176.9375 192.078125 173.050781 L 183.613281 135.011719 C 182.855469 131.605469 184.046875 128.09375 186.722656 125.851562 C 189.484375 123.539062 193.378906 123.027344 196.644531 124.550781 L 230.929688 140.566406 C 234.539062 142.25 237.210938 145.578125 238.074219 149.464844 L 248.660156 197.03125 C 249.027344 198.679688 248.449219 200.378906 247.15625 201.464844 Z M 256.648438 193.511719 L 251.128906 198.136719 C 251.140625 197.597656 251.089844 197.058594 250.96875 196.515625 L 240.382812 148.949219 C 239.359375 144.351562 236.199219 140.414062 231.929688 138.421875 L 197.644531 122.410156 C 195.886719 121.589844 193.984375 121.242188 192.109375 121.335938 L 196.164062 117.941406 C 198.925781 115.628906 202.820312 115.117188 206.085938 116.644531 L 240.441406 132.6875 C 244.050781 134.375 246.722656 137.699219 247.585938 141.589844 L 258.15625 189.078125 C 258.523438 190.726562 257.945312 192.425781 256.648438 193.511719 Z M 256.648438 193.511719 " fill-opacity="1" fill-rule="nonzero"/></g></svg>