<svg xmlns="http://www.w3.org/2000/svg" xmlns:xlink="http://www.w3.org/1999/xlink" width="500" zoomAndPan="magnify" viewBox="0 0 375 374.999991" height="500" preserveAspectRatio="xMidYMid meet" version="1.0"><defs><clipPath id="195a631671"><path d="M 129.3125 112.5 L 245.5625 112.5 L 245.5625 262.5 L 129.3125 262.5 Z M 129.3125 112.5 " clip-rule="nonzero"/></clipPath></defs><rect x="-37.5" width="450" fill="#ffffff" y="-37.499999" height="449.999989" fill-opacity="1"/><rect x="-37.5" width="450" fill="#eba4ad" y="-37.499999" height="449.999989" fill-opacity="1"/><g clip-path="url(#195a631671)"><path fill="#ffffff" d="M 240.9375 112.5 C 239.710938 112.488281 237.730469 112.664062 234.214844 113.023438 C 230.605469 113.390625 222.023438 113.894531 210.554688 114.414062 C 188.703125 115.398438 189.960938 115.28125 189.539062 116.367188 C 189.167969 117.3125 189.3125 128.179688 189.984375 149.632812 C 190.304688 159.804688 190.804688 191.394531 191.34375 235.199219 C 191.609375 256.980469 191.640625 257.742188 192.328125 258.242188 C 192.714844 258.527344 193.359375 258.683594 193.757812 258.589844 C 194.152344 258.496094 201.710938 258.316406 210.554688 258.1875 C 237.835938 257.792969 236.128906 257.875 238.207031 256.824219 C 240.769531 255.527344 243.667969 252.804688 244.738281 250.6875 L 245.648438 248.890625 L 245.230469 197.90625 C 244.644531 125.804688 244.539062 116.367188 244.316406 115.058594 C 244.207031 114.398438 243.703125 113.566406 243.144531 113.121094 C 242.636719 112.71875 242.160156 112.515625 240.9375 112.5 Z M 239.851562 114.359375 C 240.429688 114.328125 240.871094 114.328125 241.058594 114.375 C 241.769531 114.554688 241.902344 114.882812 242.101562 117.027344 C 242.230469 118.371094 242.335938 125.179688 242.335938 132.15625 L 242.34375 144.84375 L 240.894531 145.078125 C 240.097656 145.203125 238.246094 145.410156 236.78125 145.535156 L 234.117188 145.757812 L 233.90625 139.476562 C 233.789062 136.023438 233.601562 129.1875 233.488281 124.285156 C 233.296875 115.929688 233.324219 115.363281 233.929688 115.1875 C 235.085938 114.851562 238.101562 114.457031 239.851562 114.359375 Z M 230.953125 115.726562 C 231.226562 116 231.859375 132.574219 231.863281 139.429688 C 231.863281 145.640625 231.863281 145.660156 231.054688 145.691406 C 230.609375 145.707031 223.171875 145.878906 214.527344 146.074219 C 205.882812 146.265625 197.332031 146.507812 195.523438 146.609375 L 192.238281 146.792969 L 192.007812 143.246094 C 191.882812 141.296875 191.671875 134.703125 191.539062 128.589844 L 191.296875 117.484375 L 192.164062 117.476562 C 192.96875 117.46875 199.890625 117.125 222.203125 115.992188 C 226.921875 115.75 230.859375 115.632812 230.953125 115.726562 Z M 242.507812 147.152344 C 242.578125 147.226562 242.6875 148.730469 242.75 150.5 C 242.878906 154.285156 243.089844 154.097656 238.253906 154.480469 C 236.503906 154.621094 234.835938 154.824219 234.550781 154.929688 C 234.125 155.09375 234.035156 154.503906 234.035156 151.523438 L 234.035156 147.914062 L 238.203125 147.464844 C 240.496094 147.21875 242.433594 147.078125 242.507812 147.152344 Z M 229.089844 147.730469 C 231.050781 147.769531 231.578125 147.898438 231.777344 148.140625 C 232.246094 148.710938 232.382812 151.667969 232.019531 153.472656 L 231.8125 154.511719 L 226.511719 154.222656 C 220.550781 153.894531 204.667969 154.164062 198.089844 154.703125 C 195.707031 154.898438 193.414062 155.136719 192.992188 155.230469 C 192.285156 155.390625 192.210938 155.210938 191.988281 152.753906 C 191.855469 151.296875 191.839844 149.871094 191.953125 149.578125 C 192.25 148.796875 201.667969 148.167969 217.8125 147.855469 C 223.738281 147.738281 227.128906 147.691406 229.089844 147.730469 Z M 241.449219 156.222656 C 242.277344 156.167969 242.847656 156.160156 242.910156 156.222656 C 242.976562 156.289062 243.082031 177.238281 243.140625 202.773438 L 243.246094 249.203125 L 242.246094 250.714844 C 241.699219 251.546875 240.480469 252.789062 239.539062 253.472656 C 238.597656 254.15625 237.234375 254.945312 236.515625 255.230469 L 235.199219 255.75 L 234.96875 243.421875 C 234.253906 205.414062 233.695312 157.414062 233.960938 157.148438 C 234.1875 156.921875 238.96875 156.378906 241.449219 156.222656 Z M 215.058594 156.3125 C 223.117188 156.246094 230.425781 156.414062 231.152344 156.863281 C 231.527344 157.097656 231.683594 161.695312 231.917969 179.496094 C 232.082031 191.78125 232.375 213.851562 232.574219 228.542969 C 232.773438 243.230469 232.867188 255.320312 232.785156 255.402344 C 232.703125 255.488281 226.894531 255.691406 219.878906 255.855469 C 212.863281 256.019531 204.164062 256.25 200.554688 256.363281 C 196.941406 256.476562 193.910156 256.445312 193.824219 256.292969 C 193.734375 256.144531 193.5625 247.648438 193.441406 237.417969 C 193.117188 210.492188 192.671875 166.679688 192.671875 161.6875 L 192.671875 157.402344 L 194.476562 157.164062 C 198.199219 156.679688 207.003906 156.382812 215.058594 156.3125 Z M 154.714844 175.28125 C 153.0625 175.28125 151.527344 176.746094 150.957031 178.859375 C 150.730469 179.699219 150.570312 181.960938 150.601562 183.886719 C 150.632812 185.808594 150.542969 187.667969 150.402344 188.019531 C 150.183594 188.5625 150.910156 202.714844 151.558594 210.574219 C 151.757812 212.996094 151.726562 213.160156 151.089844 213 C 149.445312 212.582031 130.476562 215.503906 129.683594 216.292969 C 129.355469 216.625 129.335938 243.289062 129.660156 248.433594 C 130.144531 256.078125 130.285156 256.816406 131.511719 258.214844 C 132.851562 259.738281 135.894531 261.242188 138.78125 261.800781 C 142.226562 262.46875 167.894531 262.46875 172.082031 261.796875 C 173.871094 261.511719 176.550781 261.113281 178.042969 260.914062 C 179.53125 260.710938 181.34375 260.378906 182.070312 260.171875 C 184.5625 259.464844 184.480469 260.410156 184.039062 238.5 L 183.640625 218.8125 L 182.09375 216.558594 C 181.246094 215.316406 179.914062 213.636719 179.136719 212.816406 L 177.722656 211.332031 L 169.15625 211.597656 C 164.445312 211.746094 160.332031 211.882812 160.015625 211.90625 C 159.511719 211.941406 159.402344 211.03125 159.167969 204.902344 C 159.019531 201.027344 158.722656 195.582031 158.507812 192.800781 C 158.292969 190.019531 158.007812 185.304688 157.871094 182.328125 C 157.621094 176.8125 157.449219 176.003906 156.527344 176.003906 C 156.242188 176.003906 156.007812 175.84375 156.007812 175.644531 C 156.007812 175.445312 155.425781 175.28125 154.714844 175.28125 Z M 153.757812 189.707031 C 153.996094 189.710938 154.277344 189.738281 154.597656 189.738281 L 155.902344 189.734375 L 156.304688 192.894531 C 156.664062 195.699219 157.859375 219.398438 157.65625 219.625 C 157.382812 219.925781 154.199219 220.117188 154.199219 219.832031 C 154.199219 219.644531 153.964844 215.925781 153.675781 211.566406 C 152.304688 190.816406 152.070312 189.675781 153.757812 189.707031 Z M 175.046875 213.4375 C 176.367188 213.453125 176.878906 213.566406 177.222656 213.789062 C 178.03125 214.304688 181.652344 219.199219 181.652344 219.773438 C 181.652344 219.941406 181.207031 220.039062 180.660156 219.992188 C 180.113281 219.945312 175.15625 219.863281 169.640625 219.804688 L 159.617188 219.703125 L 159.617188 214.070312 L 168.015625 213.671875 C 171.59375 213.5 173.726562 213.417969 175.046875 213.4375 Z M 151.503906 214.53125 C 151.90625 214.679688 152.03125 215.601562 152.03125 217.742188 L 152.03125 220.042969 L 150.859375 220.222656 C 150.210938 220.320312 148.140625 220.488281 146.253906 220.597656 C 144.363281 220.707031 141.683594 220.886719 140.292969 220.992188 L 137.761719 221.191406 L 135.324219 219.519531 C 133.984375 218.601562 132.886719 217.710938 132.886719 217.546875 C 132.886719 216.972656 138.683594 215.972656 145.53125 215.363281 C 148.210938 215.121094 150.675781 214.789062 151.003906 214.617188 C 151.203125 214.515625 151.367188 214.480469 151.503906 214.53125 Z M 131.179688 218.75 C 131.457031 218.578125 132.839844 219.59375 135.210938 221.703125 L 136.425781 222.785156 L 136.835938 235.972656 C 137.058594 243.222656 137.34375 251.472656 137.464844 254.304688 C 137.71875 260.058594 137.765625 259.964844 135.253906 258.710938 C 132.492188 257.332031 132.3125 256.988281 131.800781 252.121094 C 131.277344 247.097656 130.753906 219.011719 131.179688 218.75 Z M 162.363281 221.675781 C 165.191406 221.652344 168.386719 221.675781 171.503906 221.75 L 182.015625 221.996094 L 182.015625 233.984375 C 182.015625 240.578125 182.121094 248.65625 182.25 251.9375 L 182.488281 257.910156 L 180.714844 258.304688 C 179.742188 258.527344 177.644531 258.878906 176.054688 259.09375 C 174.464844 259.308594 172.351562 259.632812 171.359375 259.816406 C 168.957031 260.257812 141.230469 260.585938 140.246094 260.183594 C 139.535156 259.890625 139.46875 259.582031 139.421875 256.136719 C 139.394531 254.085938 139.128906 245.839844 138.835938 237.808594 C 138.542969 229.78125 138.347656 223.164062 138.40625 223.105469 C 138.464844 223.050781 141.066406 222.832031 144.1875 222.621094 C 147.308594 222.414062 152.367188 222.078125 155.425781 221.875 C 157.078125 221.761719 159.535156 221.695312 162.363281 221.675781 Z M 162.363281 221.675781 " fill-opacity="1" fill-rule="nonzero"/></g></svg>