<svg xmlns="http://www.w3.org/2000/svg" xmlns:xlink="http://www.w3.org/1999/xlink" preserveAspectRatio="xMidYMid meet" version="1.0" viewBox="-0.2 -14.4 334.6 501.1" zoomAndPan="magnify" style="fill: rgb(67, 67, 69);" original_string_length="26449">
    <g>
        <g id="__id301_saavl8uvg3">
            <path d="M329.4,361.3c0,0.1,0,0.2,0,0.4c0,0,0,0,0,0C329.4,361.6,329.4,361.4,329.4,361.3z M317.1,307.9c0.7,1.2,1.4,2.4,2,3.7 C318.4,310.3,317.8,309.1,317.1,307.9z M284.4,276.7c0.3,0.2,0.7,0.4,1,0.6c0,0,0,0,0,0C285.1,277,284.8,276.8,284.4,276.7z M329.4,361.3c0,0.1,0,0.2,0,0.4c0,0,0,0,0,0C329.4,361.6,329.4,361.4,329.4,361.3z M319,311.5c-0.6-1.2-1.3-2.5-2-3.7 C317.7,309.1,318.4,310.3,319,311.5z M285.4,277.2C285.5,277.2,285.5,277.2,285.4,277.2c-0.3-0.2-0.7-0.4-1-0.6 C284.8,276.8,285.1,277,285.4,277.2z M317.1,307.9c0.7,1.2,1.4,2.4,2,3.7C318.4,310.3,317.8,309.1,317.1,307.9z M284.4,276.7 c0.3,0.2,0.7,0.4,1,0.6c0,0,0,0,0,0C285.1,277,284.8,276.8,284.4,276.7z M329.4,361.3c0,0.1,0,0.2,0,0.4c0,0,0,0,0,0 C329.4,361.6,329.4,361.4,329.4,361.3z M330.1,331.4c-3.7-17-11.9-32.4-24.5-44.5c-5.5-5.2-11.7-9.7-18.4-13.3 c1.9-3.9,3.3-8,3.1-14.6c-0.6-19.8-14.8-24.4-17.2-41.9c-2.9-20.9,15-32.2,25.2-52.1c20.1-39,7.8-105.3-34.9-140.4 c-47.4-39-109.6-20.8-117.3-18.4C96.9,21.6,50.8,68,54.8,107.4c2.1,21.3,17.6,28.1,14.5,50.9c-3.5,25.2-24.2,29.7-24.6,53.1 c-0.3,21.1,16.2,25.4,13.8,44.6c-1.1,8.5-5,13.7-9.6,18.7c-2.3-2.8-5.1-5.3-7.9-7.5c0.3-7.2,0.2-14.4-0.1-21.6 c-0.3-5.1-0.2-11.2-3.2-15.6c-1.5-2.2-3.8-4.1-6.5-4.2c-2.5-0.1-4.5,1.4-5.7,3.5c-1.3,2.2-1.7,4.9-2.1,7.4 c-0.5,3.2-0.9,6.4-1.2,9.7c-0.1,1.3-0.2,2.7-0.2,4c-0.6-1.5-1.3-3-2-4.5c-1.3-2.7-2.7-5.4-4.3-8c-1.5-2.5-3.1-5.3-5.1-7.4 c-2.3-2.4-5.5-1.9-7.4,0.7c-1.7,2.3-2.3,5.2-2.4,8c0,6.2,2.6,12.3,4.4,18.1c1.1,3.3,2.1,6.6,3.2,10c0.4,1.2,0.9,2.4,0.9,3.7 c0,0.4,0,0.8-0.1,0.9c-0.5-1.4-2.7-2-3.6-0.4c-1.1,2-2,4.1-2.8,6.2c-3,8.7-3,18.3-2.6,27.4c0.5,10.2,1.3,20.5,2.4,30.7 c2.2,20.4,5.5,40.6,10.1,60.6c2.3,10,4.9,20,7.8,29.8c2.4,8.4,4.8,17,8.9,24.8c3.9,7.4,9.7,13.6,17.7,16.6 c7.8,2.9,16.7,2.2,24.5-0.4c16-5.5,26.5-19.2,35.8-32.7c0,1.4,0.1,2.9,0.2,4.3c0.3,5.7,1,11.7,3.1,17c0.4,0.1,0.8,0.1,1.2,0.2 c0.2-0.8,0.4-1.5,0.5-2.3c0.2-0.9,0.5-1.6,1-2.3c0.6,2.2,1.5,4.4,2.7,6.4c4.5,7.7,13,10.7,21.1,12.9c19.8,5.5,40.1,8.8,60.6,9.8 c20.5,1.1,41.1,0,61.4-3.3c2.1-0.3,4.1-0.7,6.1-1.1c0,0,0-0.1,0-0.1c1.3,0.2,2.6,0.4,3.9,0.7c0,0.2-0.1,0.4-0.2,0.6 c0.2,0.5,0.2,1.1,0,1.6c18.2,2.1,36.4,4,54.6,5.7c0.3,0,0.5,0.1,0.7,0.2c0,0,0-0.1,0-0.1c1.4,0.6,2.6,1.2,3.8,2 c1-10,1.8-19.9,2.5-29.9c1.5-21.5,2.5-43.1,2.9-64.7C333.7,371.8,334.4,351.2,330.1,331.4z M285.4,277.2c-0.3-0.2-0.7-0.4-1-0.6 C284.8,276.8,285.1,277,285.4,277.2C285.5,277.2,285.5,277.2,285.4,277.2z M317.1,307.9c0.7,1.2,1.4,2.4,2,3.7 C318.4,310.3,317.7,309.1,317.1,307.9z M329.4,361.7c0-0.1,0-0.2,0-0.4C329.4,361.4,329.4,361.6,329.4,361.7 C329.4,361.7,329.4,361.7,329.4,361.7z" style="fill: inherit;"/>
        </g>
        <g id="__id302_saavl8uvg3">
            <path d="M58.5,256c2.4-19.2-14.2-23.5-13.8-44.6c0.4-23.4,21.1-27.9,24.6-53.1c3.2-22.8-12.3-29.6-14.5-50.9 C50.8,68,96.9,21.6,146.2,6.3c7.8-2.4,69.9-20.6,117.3,18.4c42.7,35.1,55,101.4,34.9,140.4c-10.2,19.8-28.1,31.1-25.2,52.1 c2.4,17.5,16.6,22.1,17.2,41.9c0.5,16.1-8.8,17.6-10.7,36.8c-2.3,23.1,10.2,30.9,7.7,47.6c-3.1,21.3-26.9,34.2-38.7,40.6 c-64.2,35-172.8,21.3-205-35.8c-4.5-8.1-16.6-29.5-10.1-51C39.6,277.5,56.2,274.7,58.5,256z" style="fill: inherit;"/>
        </g>
        <g id="__id303_saavl8uvg3">
            <path d="M81.8,186.6c6.2,10.4,17.7,16.9,29.5,18.9c2.2,0.4,3.7,0.5,5.6,0c0,0,0,0,0,0c0.4-0.3,0.9-0.5,1.3-0.4 c2.2-0.8,4.4-1.9,6.6-2.8c2-0.7,4.1-1.3,6.1-0.2c1.9,1,3.4,2.8,4.8,4.4c1.7,1.9,3.3,4,4.9,6c1.6,1.9,3.4,3.6,5.3,5.2 c0.5,0.4,1,0.8,1.4,1.2c0.2,0.1,0.3,0.1,0.5,0.2c0.4,0.2,0.7,0.5,0.9,0.9c4.6,3.6,9.4,6.8,14.8,9c11.5,4.9,24.5,6,36.9,5.1 c23.9-1.8,48.6-11.3,65.1-29.1c4-4.3,7.5-9.2,10-14.5c3-6.1,4.7-12.9,5.5-19.6c1.8-14.2-0.2-28.5,0.2-42.7c0.1-1.9,0.1-3.8,0.3-5.8 c0.8-1.2,1.3-2.7,1.3-4.5c-0.7-24.5-17-46.8-38.1-59.2c-11.7-9.9-25.2-17.2-41-19.2c-13.8-1.7-28.1,2.5-38.2,11.3 c0.2-0.9,0.4-1.7,0.6-2.6c2.2-9.7-11.2-13.1-14.7-4.1c-8.3,21.7-15.3,44.2-17.9,67.4c-5.6,7.4-11.1,14.9-16.7,22.3 c-3.3,4.4-0.9,9.5,3.1,12.1c-2.6,5.7-3.9,11.9-3.2,18.3c0.2,1.9,0.8,3.6,1.5,5.4c0.4,1,0.6,2,0.9,2.9c0.3,0.9,0.8,1.7,1.2,2.5 c0.9,1.6,2.4,2.9,3.6,4.3c1.3,1.4,3.2,1.9,4.9,2.7c0.1,0.1,0.2,0.1,0.3,0.2c0.9,0.1,1.6,1.1,1.6,2c0,1.2-0.9,1.9-2,2 c-4.7,0.5-8.1-3.9-10.9-7c-3.2-3.4-6.2-7-7.1-11.6c-0.2-1.1-0.4-2.3-0.7-3.4c-0.2-0.8-0.5-1.6-0.7-2.5c-3.8-2.1-7.8-3.9-12-5 c-4-1.1-8.6-1.5-12.3,0.5c-4.4,2.4-6.5,7.8-7.1,12.5C77.2,175.5,78.8,181.4,81.8,186.6z M90.6,180.2c0.1-1.1,0.5-2,1.5-2.6 c0.3-0.2,0.7-0.3,1-0.4c0,0,0.2-0.1,0.2-0.1c0,0,0,0,0,0c0,0,0,0,0,0c0.1-0.1,0.2-0.1,0.4-0.2c1.5-0.9,3-1.6,4.7-1.8 c1-0.1,1.9-0.2,2.9-0.2c1,0,2-0.1,3,0.2c1.5,0.4,3.3,1.1,4.3,2.4c0.7,0.8,0.8,2,0,2.8c-0.7,0.7-2.2,0.9-2.8,0 c-0.4-0.5-0.5-0.5-1.1-0.8c0,0,0,0,0,0c0,0,0,0-0.1,0c-0.1-0.1-0.3-0.1-0.5-0.2c-0.3-0.1-0.5-0.2-0.8-0.3c-0.5-0.1-1.2-0.1-1.8,0 c-0.7,0-1.4,0-2,0.1c-1,0.1-2.2,0.4-3.1,1c-0.6,0.4-1.2,0.8-1.9,1c0,0-0.1,0-0.1,0c-0.3,0.7-1,1.1-1.8,1.1 C91.5,182.2,90.5,181.2,90.6,180.2z M4,298.7c0.1,9.6,0.9,19.2,1.7,28.8c1.8,19.8,4.8,39.4,8.8,58.8c2,9.7,4.3,19.3,6.9,28.8 c2.4,8.8,4.8,17.7,8,26.3c2.7,7,6.4,14.2,12.6,18.8c6.4,4.7,14.5,5.9,22.1,4.5c17.2-3.1,28.8-17,38.3-30.6c1.2-1.8,2.5-3.6,3.7-5.4 c0.3-0.4,0.6-0.6,0.9-0.8c-0.1-7.2-0.1-14.5-0.1-21.7c-0.1-11.4-0.2-22.8-0.4-34.2c-0.1-11.3-0.2-22.6-0.4-34 c0-4.2-0.2-8.4,1.1-12.4c0.9-3.1,2.6-6.6,5.7-8.1c1.6-0.8,3.3-0.9,5.1-0.6c0.3,0,0.5,0.1,0.7,0.3c0,0,0.1,0,0.2,0 c16.4-2,32.7-5.7,48.4-10.8c3.2-1,6.4-2.1,9.5-3.3c2.8,5.1,5.3,10.3,8.3,15.2c4.5,7.4,8.7,15,12.9,22.5c4.1-7.1,8.4-14.2,12.8-21.1 c2.3-3.6,4.7-7.1,7-10.7c3.6-5.8,7-11.8,9.9-17.9c1-2,1.9-4,2.7-6c0.4-0.9,0.7-1.8,1.3-2.6c1.4-2.3,2.3-4.9,2.4-7.6 c0-0.9,0-1.7-0.2-2.5c-0.8,0.1-1.6-0.3-2.1-1c0-0.1-0.1-0.2-0.2-0.3c0,0,0,0,0,0c-0.2-0.2-0.4-0.4-0.6-0.6 c-0.4-0.4-0.7-0.7-1.1-1.1c-0.8-0.7-1.6-1.4-2.4-2.2c-0.8-0.9-1.4-2-1.9-3.1c0-0.1-0.1-0.2-0.1-0.3c0,0,0,0,0-0.1 c-1.4-1.8-2.1-4-2.8-6.2c-1.4-4.9-2-10.2-1.9-15.3c0.1-2.5,0.2-5.4,1-8c-4.2,1.2-8.8,2.2-13.8,2.8c-17.3,2.3-32.1-0.2-42.6-3.1 c5.1,10.1,2.3,21.9-1.8,32.3c-5.2,2.3-10.9,3.2-16.5,3.7c-6.6,0.5-13.2,0.6-19.8,1.5c-5.9,0.9-11.8,2.2-17.4,4.3 c-5.3,2-10.3,4.9-14.5,8.8c-4.7,4.4-8,10-10.1,16.1c-2.3,6.5-3.5,13.3-4.4,20.1c-1,7-1.6,14-2.3,21.1c-1.6,15.9-3.6,31.8-10.2,46.5 c-0.6,1.3-2.9,1.3-3.5,0c-9.5-21.8-16.2-44.8-19.6-68.3c-0.9-6.2-1.6-12.4-2-18.7c-3.6,0.2-7-1.8-8.2-5.5c-1.8-5.5,1.9-10.6,5.9-14 c2-1.6,4.8,1.2,2.8,2.8c-2.7,2.2-5.7,5.2-5.2,9c0.5,3.4,3.7,4.6,6.6,3.1c3.1-1.6,4.5-5.1,4.5-8.4c0-3.8-1.4-7.4-3.7-10.4 c-2.8-3.7-6.6-6.7-10.2-9.5c-0.9-0.7-0.7-2.1,0-2.8c0.2-0.2,0.4-0.3,0.6-0.4c0.1-5,0.2-10.1,0-15.2c-0.1-2.9-0.2-5.8-0.4-8.6 c-0.1-2.2-0.3-4.3-0.9-6.4c-0.5-1.9-1.4-3.7-3-4.8c-1.7-1.2-3.1-0.6-3.9,1.1c-1,1.9-1.2,4.3-1.6,6.4c-0.5,2.8-0.8,5.6-1,8.4 c-0.5,6.5-0.4,12.9,0.3,19.4c0.2,2.2-3.5,2.7-3.9,0.5c-2.3-11.2-6.9-21.8-13.4-31.1c-0.3-0.5-1.3-2.3-2-2.4c-0.8,0-1.6,2.1-1.8,2.6 c-0.8,2.4-0.7,5.1-0.2,7.6c0.5,2.8,1.4,5.4,2.3,8.1c1,3.1,2,6.2,2.9,9.2c0.6,1.7,1.1,3.5,1.7,5.2c0.5,1.4,1,2.8,1.2,4.3 c0.3,2.4-0.5,5.3-3.2,5.9c-0.8,0.2-1.5-0.1-1.9-0.6C4.6,282.4,3.9,290.6,4,298.7z M10.1,303c1.1-0.3,2.1,0.4,2.5,1.4 c0.8,2.1,1.8,4.3,3.3,6.1c0.7,0.8,1.5,1.5,2.4,1.9c0.4,0.2,0.9,0.3,1.4,0.3c0.6,0,0.5,0.2,0.5-0.4c-0.6-6.2-2.4-12-5.7-17.3 c-0.6-0.9-0.2-2.2,0.7-2.7c1-0.6,2.1-0.1,2.7,0.7c2.7,3.5,5.4,7,8,10.5c1,1.2,1.8,2.5,3,3.4c-0.1-0.4-0.1-1-0.2-1.2 c-0.1-0.4-0.2-0.8-0.3-1.2c-2-7.2-5.5-13.9-10.3-19.7c-1.6-2,1.2-4.8,2.8-2.8c4.7,5.7,8.4,12.2,10.6,19.2c0.9,2.8,3.1,7.9-0.4,9.8 c-3.3,1.8-6.1-1.9-7.8-4.2c0.2,1.2,0.4,2.4,0.6,3.7c0.2,1.8,0.4,3.8-1,5.1c-2.6,2.5-7,0.5-9.2-1.6c-2.4-2.3-3.8-5.5-5-8.5 C8.3,304.4,9.1,303.2,10.1,303z M268.8,478.7c18.2,2.1,36.4,4,54.6,5.7c0.3,0,0.5,0.1,0.7,0.2c0.6-6.4,1.2-12.9,1.7-19.3 c1.7-21.1,2.8-42.2,3.3-63.3c0.3-10.5,0.4-20.9,0.4-31.4c0-9.8-0.3-19.6-1.7-29.2c-1.3-9.3-3.6-18.6-7.5-27.2 c-3.3-7.2-7.7-13.8-12.9-19.7c-10.5-11.7-24.4-20.4-39.7-24.4c-1.2-0.3-2.4-0.6-3.6-0.8c0.4,25.5,1.3,51.2,7.3,76.1 c3.2,13.3,8.9,26.1,9.8,39.9c0.4,7-0.2,14.1-1.2,21.1c-0.9,7.2-2.1,14.4-3.2,21.5c-2.5,16.2-5,32.4-7.7,48.6c0,0.2-0.1,0.4-0.3,0.6 C269,477.6,269,478.2,268.8,478.7z" style="fill: rgb(249, 222, 194);"/>
        </g>
        <g id="__id304_saavl8uvg3">
            <path d="M139.2,164.5c5.3-6.2,14.9-9.5,22.6-6c2.1,1,3.9,2.4,5.4,4.1c4.2,2.3,7.4,6.1,8.8,11 c3.3,12.3-7,24.1-19.5,23c-0.6-0.1-1.2-0.1-1.8-0.3c-7.2,0.6-14.2-3.6-17.9-9.9C132.5,179.2,133.8,170.7,139.2,164.5z M237.8,180 c3.7,6.3,10.7,10.5,17.9,9.9c0.6,0.1,1.2,0.2,1.8,0.3c12.5,1.1,22.8-10.7,19.5-23c-1.3-5-4.6-8.7-8.8-11c-1.5-1.7-3.3-3.1-5.4-4.1 c-7.7-3.5-17.3-0.1-22.6,6C234.8,164.3,233.5,172.8,237.8,180z" style="fill: rgb(224, 131, 143);"/>
        </g>
        <g id="__id305_saavl8uvg3">
            <path d="M326.9,364.6c-1.5,2.8-4.5,4.1-7.4,4.1l-10.1,5.3c-2.3,1.1-4.5,1.2-6.4,0.6c-1.2,0.7-2.7,1.2-4.4,1.2 c-1.3,0-2.6,0.1-3.9,0.1c-4.3,1.1-8.5,2-12.9,2.8c-2,0.4-3.9,0-5.6-0.8c0.7,3.9,1.1,7.9,1.1,11.9c0,7.1-0.9,14.2-2,21.2 c-1,7-2.1,14.1-3.2,21.1c-2.2,14.4-4.5,28.8-6.9,43.2c0,0.2,0,0.3,0,0.5c-2,0.4-4.1,0.8-6.1,1.1c-20.3,3.3-40.9,4.4-61.4,3.3 c-20.5-1.1-40.9-4.4-60.6-9.8c-8.1-2.2-16.6-5.2-21.1-12.9c-4.2-7.2-4.5-16.1-4.6-24.3c-0.3-21.7-0.5-43.5-0.7-65.2 c-0.1-10.9-0.2-21.8-0.3-32.7c0-3.5,0.1-7.1,1.5-10.4c0.4-1.1,1.1-2.2,1.9-3c-2.2-0.5-4-2.3-4.1-5.4c-0.1-13.3,0.6-26.6,0.9-39.9 c0.1-3.7,3.7-4.9,6.2-3.6c1.3-0.7,3-0.5,3.9,1.1c3.1,5.5,1.4,13.9,1.3,20c-0.1,7.5-0.3,14.9-0.9,22.4c-0.1,2.1-1.2,3.6-2.5,4.5 c0.1,0,0.3,0,0.4,0c9.8-1.2,19.5-2.9,29-5.2c17-4,33.5-9.8,49.4-17.1c4-1.8,7.9-3.8,11.8-5.8c3.7-1.9,7.4-3.9,10.8-6.2 c5.8-4,10.7-10.1,10.7-17.2c0.2,0,0.4-0.1,0.6-0.2c0.2,0,0.4,0,0.5,0c0.3-0.4,0.8-0.7,1.4-1c6.4-2.4,13.4-3.5,20.2-3 c6,0.4,13.7,1.1,18.3,5.3c0.2,0.2,0.4,0.5,0.6,0.7c5.3,0.8,11.2,3.3,14.4,4.8c6.7,3.1,12,7.7,16.5,13.3c1.6,0.6,3.1,1.6,4.2,3.1 c7.2,9.7,12.6,20.6,16.1,32.2c1.6,4.1,2.8,8.4,3.4,12.8c0.3,2,0.6,4.2,0.8,6.3c0.4,1.5,0.7,2.9,1.1,4.4c0.4,1.6,0.3,3.5-0.3,5.3 c0.1,0.1,0.1,0.2,0.2,0.3C330.9,357.3,330.1,362.2,326.9,364.6z M193.4,260.4c0.2,0.2,0.4,0.4,0.7,0.5c0.3,0.2,0.6,0.3,0.8,0.4 c0.1,0,0.3,0.1,0.4,0.1c0.5,0.1,0.9,0.1,1.4,0.1c0.4,0,0.8-0.1,1.1-0.3c0.2-0.1,0.4-0.2,0.5-0.4c0.2-0.2,0.3-0.4,0.5-0.6 c0.1-0.2,0.2-0.3,0.2-0.5c0.1-0.2,0.1-0.3,0.2-0.5c0.1-0.4,0.1-0.7,0.1-1.1c0-0.1,0-0.1,0-0.2c0-0.4-0.1-0.9-0.3-1.3c0,0,0,0,0,0 c-0.1-0.2-0.2-0.5-0.3-0.7c-0.4-0.7-0.9-1.2-1.5-1.6c-0.1-0.1-0.2-0.1-0.3-0.1c-0.2-0.1-0.5-0.2-0.7-0.3c-0.3-0.1-0.5-0.1-0.8-0.1 c-0.1,0-0.2,0-0.3,0c-0.4,0-0.7,0.1-1,0.3c-0.3,0.2-0.5,0.4-0.7,0.7c-0.2,0.3-0.3,0.6-0.3,1c0,0.2,0,0.4,0.1,0.5 c-0.1,0.1-0.2,0.3-0.3,0.4c-0.5,0.9-0.5,2.1,0,3.1C193,260,193.2,260.2,193.4,260.4z" style="fill: rgb(225, 203, 185);"/>
        </g>
        <g id="__id306_saavl8uvg3">
            <path d="M41.9,331.1c-2.6,0-2.6-4,0-4C44.5,327.1,44.5,331.1,41.9,331.1z M196.8,260.4c0.1,0,0.1-0.1,0.2-0.1 C197.1,260.3,197,260.3,196.8,260.4C196.8,260.4,196.8,260.4,196.8,260.4z M168.8,182.9c-2.6,0-2.6,4,0,4 C171.4,186.9,171.4,182.9,168.8,182.9z M197.2,260.2c0,0,0.1-0.1,0.1-0.1C197.3,260.1,197.3,260.1,197.2,260.2 C197.2,260.2,197.2,260.2,197.2,260.2z M194.2,259C194.2,259,194.2,259,194.2,259C194.2,259,194.2,259,194.2,259 C194.2,259,194.2,259,194.2,259C194.2,259.1,194.2,259.1,194.2,259c0,0,0-0.1,0-0.1C194.2,259,194.2,259,194.2,259z M194.1,258.2 C194.1,258.2,194.1,258.2,194.1,258.2c0-0.1,0-0.1,0-0.2C194.1,258.1,194.1,258.2,194.1,258.2z M186.1,156.1c0-0.1,0-0.2,0-0.4 c0-0.9-0.7-1.8-1.6-2c0,0,0,0,0,0c-0.6-0.3-1.4-0.4-2,0c-0.6,0.4-0.9,0.9-1.2,1.6c-0.1,0.4-0.2,0.8-0.2,1.2c0,0.5,0,1,0.1,1.5 c0,0.7,0,1.4,0.1,2.1c0.1,0.3,0.2,0.6,0.3,0.9c0,0,0,0.1,0,0.1c0.4,1,1.2,1.9,2.4,1.9c0.9,0,1.7-0.6,1.9-1.5c0.5-1.5,0.6-3,0.4-4.5 C186.2,156.7,186.2,156.4,186.1,156.1z M169.7,170.3c-2.6,0-2.6,4,0,4C172.3,174.3,172.3,170.3,169.7,170.3z M182.7,255.7 c-2.6,0-2.6,4,0,4C185.2,259.7,185.2,255.7,182.7,255.7z M9.7,325.1c-2.6,0-2.6,4,0,4C12.3,329.1,12.3,325.1,9.7,325.1z M197.6,259.8c0-0.1,0.1-0.1,0.1-0.2C197.7,259.6,197.7,259.7,197.6,259.8C197.6,259.8,197.6,259.8,197.6,259.8z M194.2,257.8 C194.2,257.8,194.2,257.8,194.2,257.8C194.2,257.9,194.2,257.9,194.2,257.8C194.2,257.8,194.2,257.8,194.2,257.8 C194.2,257.8,194.2,257.8,194.2,257.8z M201.5,255.5c1,1.9,0.9,4.1-0.2,6c-1.1,1.8-3.1,3.1-5.2,3c-2.2-0.1-4.3-1.4-5.3-3.4 c-0.6-1.2-0.8-2.4-0.6-3.7c0.2-1.1,0.7-2,1.4-2.8c1.5-1.8,4.2-2.7,6.4-2c0.8,0.3,1.5,1,1.5,1.9c0,0,0,0,0,0 C200.2,254.4,201.1,254.7,201.5,255.5z M198.2,258.3c0,0,0,0.6,0,0.2C198.2,258.5,198.2,258.4,198.2,258.3c0-0.1,0-0.2,0-0.3 c0,0,0,0.1,0,0.1c0,0,0-0.1,0-0.1c0-0.1,0-0.2-0.1-0.2c0,0,0-0.1,0-0.1c0,0,0-0.1,0-0.1c0,0,0,0,0,0c-0.2-0.3-0.2-0.6-0.2-1 c-1,0.4-1.9,0.8-2.9,1.2c-0.2,0.1-0.5,0.1-0.7,0.1c0.1-0.1,0.1-0.1,0-0.1c0,0,0,0,0,0c0,0,0,0,0,0c0,0,0,0,0,0 c0,0.1-0.1,0.1-0.1,0.2c0,0,0-0.1,0.1-0.1c0,0.1,0,0.1,0,0.2c0-0.1,0-0.1,0,0.1c0,0,0,0.1,0,0.1c0,0,0,0.1,0,0.1c0,0,0-0.1,0-0.1 c0,0.1,0,0.1,0,0.2c0,0.1,0,0.1,0,0.2v0c0,0.1,0,0.2,0.1,0.3c0-0.1,0,0,0,0.1c0,0,0,0,0,0c0,0.1,0,0.1,0.1,0.2c0-0.1,0-0.1-0.1-0.2 c0.1,0.1,0.2,0.3,0.3,0.4c0,0.1,0.1,0.1,0.1,0.2c0,0,0,0,0-0.1c0.1,0.1,0.2,0.3,0.4,0.4c0,0,0,0,0,0c0,0,0.1,0,0.1,0 c0.1,0.1,0.2,0.2,0.4,0.2c0.1,0,0.1,0.1,0.2,0.1c0.1,0,0.3,0.1,0.4,0.1c0,0-0.1,0-0.1,0c0.1,0,0.1,0,0.2,0c0,0,0,0,0,0 c0,0,0.1,0,0.1,0c0.1,0,0.1,0,0.2,0c0,0,0,0,0,0c0.1,0,0.1,0,0.2,0c0.1,0,0.1,0,0.2-0.1c0,0,0,0-0.1,0c0,0,0.1,0,0.1,0c0,0,0,0,0,0 c0.1,0,0.1-0.1,0.2-0.1c0,0,0.1,0,0.1-0.1c0,0,0.1,0,0.1-0.1c0,0,0,0-0.1,0.1c0,0,0.1,0,0.1-0.1c0,0,0.1,0,0.1-0.1 c0.1-0.1,0.1-0.1,0-0.1c0,0,0.1-0.1,0.1-0.1c0,0,0.1-0.1,0.1-0.1c0,0,0,0,0,0.1c0,0,0-0.1,0.1-0.1c0,0,0,0,0,0 c0.1-0.1,0.1-0.2,0.1-0.2c0-0.1,0.1-0.1,0.1-0.2c0-0.1,0.1-0.1,0.1-0.2c0,0,0,0.1,0,0.1c0,0,0-0.1,0.1-0.2c0,0,0,0,0,0c0,0,0,0,0,0 c0.1-0.3,0.1-0.3,0.1-0.2C198.1,258.8,198.2,258.5,198.2,258.3z M218.8,251.8c-2.6,0-2.6,4,0,4 C221.4,255.8,221.4,251.8,218.8,251.8z M333.4,391.9c-0.4,21.6-1.3,43.1-2.9,64.6c-0.7,10-1.6,20-2.5,29.9c-1.2-0.8-2.5-1.4-3.8-2 c0.6-6.4,1.2-12.8,1.7-19.2c1.7-21.1,2.8-42.2,3.3-63.3c0.3-10.5,0.4-20.9,0.4-31.4c0-0.8,0-1.5,0-2.3c-6.8,5.1-16.2,8.2-24.1,10.3 c-7.9,2.1-15.9,2.8-24,2.5c-0.1,1.4-0.2,2.8-0.3,4.2c0,0,0,0,0,0c0.4,7-0.2,14.1-1.1,21.1c-1,7.2-2.1,14.4-3.2,21.5 c-2.5,16.2-5,32.4-7.7,48.6c0,0,0,0,0,0c-1.3-0.3-2.6-0.5-3.9-0.7c0-0.1,0-0.3,0-0.4c2.4-14.4,4.7-28.8,6.9-43.2 c1.1-7,2.1-14.1,3.2-21.1c1-7,2-14.1,2-21.2c0-1.4-0.1-2.7-0.1-4c1.9-17.4,0.2-35.3,1.8-52.8c0,0,0.1,0.1,0.1,0.1 c0-0.1,0-0.2,0-0.3c0-1,1.4-0.9,1.5,0c1.5,12.7,2,25.4,1.5,38.2c-0.1,1.9-0.2,3.8-0.3,5.7c7.2-0.4,14.4-1.7,21.3-3.6 c4.7-1.3,9.2-2.9,13.6-5c4.1-1.9,7.9-4.5,12-6.3c0.2-0.1,0.5-0.2,0.7-0.2c-0.2-6.8-0.6-13.6-1.5-20.3c-1.3-9.3-3.6-18.6-7.5-27.2 c-3.3-7.2-7.7-13.8-12.9-19.6c-8.5-9.5-19.3-17-31.2-21.6c-0.3-0.1-0.6-0.2-0.9-0.3c-2.5-0.9-5-1.7-7.6-2.4c-1-0.3-2.1-0.5-3.2-0.7 c-0.1-0.4-0.2-0.7-0.2-1.1c-1.7-0.4-3.3-0.8-5-1.1c-8.2-1.4-16.5-0.9-24.5,1.2c-0.2,0.1-0.5,0.1-0.7,0c-0.4,0.6-1.1,1.1-1.8,1.1 c-0.1,0-0.2,0-0.3,0c0,0.1-0.1,0.2-0.1,0.2c0,0.1-0.1,0.2-0.1,0.2c0,0,0,0,0,0c-0.2,0.4-0.3,0.9-0.4,1.4c0,0.1,0,0.2-0.1,0.3 c0,0.2,0,0.5,0,0.7c0,0.7-0.4,1.4-1,1.7c-1.5,5.2-5.5,9.5-10,12.7c-3.4,2.4-7.1,4.3-10.8,6.2c-3.9,2-7.8,4-11.8,5.8 c-15.8,7.3-32.4,13.1-49.4,17.1c-9.6,2.3-19.3,4-29,5.2c-0.4,0.1-0.8-0.1-1.2-0.4c-0.2,0-0.5,0-0.7,0c-2.6-0.5-4.3,1.9-5.3,4.1 c-1.4,3.3-1.6,6.9-1.5,10.4c0.1,10.9,0.2,21.8,0.3,32.7c0.2,21.7,0.4,43.5,0.7,65.2c0.1,5.9,0.2,12.2,1.9,17.9 c-0.4,0.6-0.7,1.4-1,2.3c-0.2,0.8-0.4,1.5-0.5,2.3c-0.4-0.1-0.8-0.2-1.2-0.2c-2.1-5.3-2.8-11.3-3.1-17c-0.1-1.4-0.1-2.9-0.2-4.3 c-9.3,13.5-19.8,27.2-35.8,32.7c-7.8,2.7-16.7,3.3-24.5,0.4c-8-2.9-13.8-9.2-17.7-16.6c-4.1-7.8-6.5-16.4-8.9-24.8 c-2.9-9.9-5.5-19.8-7.8-29.8c-4.6-20-7.9-40.2-10.1-60.6c-1.1-10.2-1.9-20.4-2.4-30.7c-0.4-9.1-0.5-18.7,2.6-27.4 c0.8-2.2,1.7-4.2,2.8-6.2c0.9-1.7,3.1-1,3.6,0.4c0.1-0.2,0.1-0.5,0.1-0.9c0-1.3-0.5-2.5-0.9-3.7c-1.1-3.3-2.1-6.6-3.2-10 c-1.9-5.8-4.5-11.9-4.4-18.1c0-2.8,0.7-5.7,2.4-8c1.9-2.6,5.1-3.1,7.4-0.7c2,2.1,3.6,4.9,5.1,7.4c1.6,2.6,3,5.3,4.3,8 c0.7,1.5,1.3,3,2,4.5c0-1.3,0.1-2.7,0.2-4c0.2-3.2,0.6-6.5,1.2-9.7c0.4-2.5,0.8-5.1,2.1-7.4c1.2-2.1,3.2-3.6,5.7-3.5 c2.7,0.1,5,2.1,6.5,4.2c3,4.4,2.9,10.5,3.2,15.6c0.4,7.2,0.4,14.4,0.1,21.6c7.1,5.7,14.3,13,13.3,22.8c-0.5,4.4-2.6,8.4-6.5,10.4 c1.6,23,6.3,45.9,13.9,67.7c1.7,4.8,3.5,9.6,5.5,14.3c4.5-11.8,6.3-24.5,7.6-37c1.4-13.9,2.1-28.1,5.9-41.6 c1.8-6.4,4.5-12.6,8.7-17.8c3.7-4.6,8.4-8.3,13.6-11.1c10.7-5.6,22.9-7.6,34.8-8.3c6.1-0.4,12.5-0.4,18.5-1.8l6.6-6 c-0.3,1-0.8,2-1.2,3c0.1-0.1,0.2-0.2,0.3-0.3c0,0,0-0.1,0.1-0.1c0.1-0.1,0.2-0.3,0.3-0.4c0.3-0.5,0.6-1,0.8-1.5c0,0,0,0,0,0 c0,0,0,0,0,0c0-0.1,0.1-0.3,0.1-0.4c0.1-0.3,0.2-0.5,0.2-0.8c0,0,0,0,0-0.1l2.5-2.3c-1.5,1.4-1.8,3.9-2.6,5.8 c0.8-0.9,1.6-1.9,2.2-3c0.6-1.1,0.9-2.3,1.3-3.5c-0.3-0.3-0.8-0.4-1.2-0.4c-1.1,0-2,1-2,2c0,0.2,0,0.3,0,0.5c0,0.1,0,0.1,0,0.1 c0,0.3-0.1,0.5-0.2,0.8l-0.6,0.6c2-6.1,2.1-12.8,0-19c-0.2-0.7-0.1-1.3,0.3-1.8c-0.3-0.8-0.7-1.7-1.1-2.5c-0.4-1.3-1.1-2.5-1.9-3.5 c0-0.1,0-0.1,0-0.2c-0.1,0-0.2-0.1-0.3-0.1c-1.2-1.5-2.8-2.8-4.5-3.8c-0.4-0.2-0.8-0.4-1.2-0.4c-3.6-2.8-7.7-5.2-11.5-7.9 c-0.6-0.6-1.2-1.2-1.8-1.9c-4.6-5.2-9.2-11.4-16.4-10.3c-2.7-0.1-5.4,0.6-8,1.3c-4.4,0.4-8.8-0.6-13.3-0.7c0-0.1-0.1-0.1-0.1-0.2 c-2.6-0.9-5.1-1.9-7.5-3.1c-5.7-2.9-10.9-7.1-14.8-12.2c-3.9-5-6.6-11-7.1-17.4c0-0.5-0.1-1.1-0.1-1.6c0.7-3.9,1.4-7.8,2.3-11.6 c0.7-1.6,1.6-3.1,2.7-4.4c0.1-0.2,0.3-0.3,0.4-0.5c-0.2-0.2-0.4-0.4-0.6-0.5c0.3-0.4,0.5-0.8,0.5-1.4c1.5-13.8-4.2-27.4-4.2-41.3 c0-12.8,2.5-25.5,6.6-37.6c0,0,0,0,0-0.1c2.3-5.4,4.8-10.5,7.7-15.6c8.1-11.4,18.3-21.3,30-29c12.4-8.2,26.3-13.9,40.8-16.9 c0,0,0,0,0.1,0c6.3-1.5,12.8-2.7,19.3-3.5c6.5-0.8,13.2-1.2,19.8-0.8c3.3,0.2,6.7,0.6,9.9,1.2c3.2,0.6,6.3,1.8,9.4,2.9 c6.2,2.1,12.6,4.1,18.5,7.1c5.7,2.9,11.2,6.1,16.8,9.2c1.4,0.8,2.9,1.5,4.2,2.5c1.1,0.8,2.1,1.8,3.3,2.5c2.2,1.5,4,3.2,5.6,5.3 c1.7,2.1,3.2,4.3,4.9,6.4c2.1,2.3,3.4,5.1,5.3,7.5c1,1.3,1.8,2.6,2.6,4c0.7,1.1,1.6,2.1,2.1,3.3c0.6,1.3,0.9,2.6,1.3,4 c0.4,1.2,1,2.2,1.6,3.3c1,2.1,1.7,4.4,2.6,6.5c0.9,2.1,1.8,4.3,2.7,6.4c2.4,5.8,3.9,12,5.1,18.2c0,0.1,0,0.1,0,0.1 c1.2,4.9,2.1,9.8,3.4,14.7c0.8,2.7,1.4,5.4,1.9,8.2c0.5,2.6,1.2,5.2,1.3,7.8c0,0.8-0.1,1.5,0,2.2c0.1,0.7,0.2,1.4,0.3,2.1 c0.1,1.3,0.1,2.6,0.1,3.9c0,2.6-0.1,5.2-0.5,7.7c-0.9,5-3,9.7-5.9,13.9c-1.5,2.1-3.2,4.1-5,5.9c-0.9,0.9-1.8,1.9-2.8,2.8 c-0.4,0.4-0.9,0.7-1.4,0.9c-0.3,0.1-0.7,0.2-1.1,0.2h-0.1c-0.1,0.1-0.3,0.2-0.4,0.3c-0.6,4.6-1.5,9.1-2.9,13.4 c-1.9,6-4.8,11.6-8.5,16.7c-7.3,10-17.3,17.9-28.2,23.7c0,0.1,0,0.1,0,0.2c-1.4,0.7-2.7,1.3-4.1,1.9v-0.1c-4.5,2.2-9.2,4-13.9,5.6 c-0.1,0.1-0.1,0.1-0.2,0.2l0,0c-0.1,0.2-0.3,0.4-0.4,0.6c-0.3,0.6-0.3,0.6-0.5,1.2c-0.4,1.1-0.7,2.3-0.8,3.5 c-0.1,0.7-0.2,1.4-0.2,2.1c0.3,0.5,0.3,1,0.2,1.6c-0.2,1.1-0.3,2.3-0.3,3.5c0,0.5,0,1,0.1,1.5c0.1,1.9,0.4,3.8,0.7,5.7 c0.7,2.9,1.9,5.7,3.4,8.3c-0.3-0.2-0.6-0.2-1-0.2c0.1,0.1,0.3,0.2,0.4,0.3c0.6,0.5,1.1,1,1.7,1.6c-0.4-0.6-0.8-1.1-1.1-1.7 c0.1,0,0.1,0,0.2,0.1c0.5,0.3,0.7,0.7,0.9,1.2c0.1,0.2,0.1,0.4,0.2,0.6c0.4,0.3,0.7,0.7,1.1,1c0.5-0.4,1.1-0.7,1.6-1 c0.5,0.9,1.2,1.6,1.9,2.3c8-2.3,16.3-3.1,24.5-2c6.2,0.8,16.4,2.2,20.6,7.5c9.3,4,17.9,9.7,25.2,16.6c12.6,12,20.8,27.5,24.5,44.5 C334.4,351.2,333.7,371.8,333.4,391.9z M285.8,162.3c0,0.3,0,0.6,0,0.8c0.1-0.2,0.1-0.4,0.2-0.5c0.4-0.8,1.1-1.5,1.6-2.3 c1.2-1.8,1.9-4.1,2.8-6c0.9-2,1.6-4.1,2.1-6.2c0.5-2,1.1-3.9,1.1-6c0.1-3.7-0.8-7.2-1.8-10.7c-0.3-1-0.6-1.9-1-2.8 c-1.8,0.4-3.7,0.6-5.5,0.9C285.2,140.4,286.2,151.4,285.8,162.3z M110.4,275.9C110.4,275.9,110.4,275.9,110.4,275.9 c-5.3,2-10.3,4.9-14.5,8.8c-4.7,4.4-8,10-10.1,16.1c-2.3,6.5-3.5,13.3-4.4,20.1c-1,7-1.6,14-2.3,21.1c-1.6,15.9-3.6,31.8-10.2,46.5 c-0.6,1.3-2.9,1.3-3.5,0c-9.5-21.8-16.2-44.8-19.6-68.3c-0.9-6.2-1.6-12.4-2-18.7c-3.6,0.2-7-1.8-8.2-5.5c-1.8-5.6,1.8-10.7,5.9-14 c2-1.6,4.8,1.2,2.8,2.8c-2.7,2.2-5.7,5.2-5.2,9c0.5,3.4,3.7,4.6,6.6,3.1c3.1-1.6,4.4-5.1,4.5-8.4c0-3.8-1.5-7.4-3.7-10.4 c-2.8-3.7-6.6-6.7-10.2-9.5c-0.9-0.7-0.7-2.1,0-2.8c0.2-0.2,0.4-0.3,0.6-0.4c0.2-5,0.2-10.1,0-15.1c-0.1-2.9-0.2-5.8-0.4-8.6 c-0.1-2.2-0.3-4.3-0.9-6.4c-0.5-1.9-1.4-3.7-3-4.8c-1.7-1.2-3.1-0.6-4,1.1c-1,1.9-1.2,4.3-1.6,6.4c-0.4,2.8-0.8,5.6-1,8.4 c-0.5,6.4-0.4,12.9,0.3,19.4c0.2,2.2-3.5,2.7-3.9,0.5c-2.3-11.2-6.9-21.8-13.4-31.2c-0.3-0.5-1.3-2.3-2-2.4c-0.8,0-1.6,2.1-1.8,2.6 c-0.8,2.5-0.7,5.1-0.2,7.6c0.5,2.8,1.4,5.4,2.3,8.1c1,3.1,2,6.2,2.9,9.2c0.6,1.7,1.1,3.5,1.7,5.2c0.5,1.4,1,2.8,1.1,4.3 c0.3,2.4-0.5,5.3-3.2,5.9c-0.8,0.2-1.5-0.1-1.9-0.6c-3.5,7.3-4.2,15.6-4.1,23.6c0.1,9.6,0.9,19.2,1.8,28.8 c1.8,19.8,4.8,39.4,8.8,58.8c2,9.7,4.3,19.3,6.9,28.8c2.4,8.8,4.8,17.7,8,26.3c2.7,7,6.4,14.2,12.6,18.8c6.3,4.7,14.5,5.9,22.1,4.5 c17.2-3.1,28.8-17,38.3-30.6c1.2-1.8,2.5-3.6,3.7-5.4c0.3-0.4,0.6-0.6,0.9-0.8c-0.1-7.2,0-14.5-0.1-21.7 c-0.1-11.4-0.2-22.8-0.4-34.2c-0.1-11.3-0.2-22.6-0.3-34c-0.1-4.2-0.2-8.4,1-12.4c0.5-1.6,1.1-3.3,2.1-4.7 c-0.5-0.3-0.9-0.9-0.9-1.7C108.5,304.8,109.6,290.3,110.4,275.9z M196.1,64.6c6.8,14.7,17.4,28,30,37.5 c9.9,7.5,21.4,12.8,33.5,15.6c5.7,1.3,11.4,2,17.1,2.2c-1.3-0.5-2.5-1.1-3.7-1.5c-5-2-9.9-4.1-14.8-6.5 c-9.6-4.7-18.8-10.2-27.5-16.5c-8.9-6.3-17.3-13.3-25.1-20.9C202.4,71.3,199.2,68,196.1,64.6z M200.5,233.9 c23.8-1.8,48.6-11.3,65.1-29.1c4-4.3,7.5-9.2,10-14.5c3-6.1,4.7-12.9,5.5-19.6c1.7-13.6,0-27.3,0.1-40.9 c-21.6,1.1-44.5-7.6-61-20.2c-13.3-10.2-22.7-23.2-28.5-38.1c-0.1,5.7-0.6,11.4-1.5,17c-2,13.1-6.2,25.7-12.2,37.5 c-1.2,2.5-4.7,0.3-3.6-2.1c5.3-11.7,8.8-24.2,10.2-37c0.6-5.1,0.8-10.3,0.7-15.4c-0.8,1.6-1.7,3.3-2.6,4.8 c-1.6,6.6-3.9,13-6.8,19.1c-7.6,15.8-19.4,28.8-34.6,37.6c-1.8,1-3.3-1.6-1.6-2.8c13.5-9.1,24.4-22.2,31.4-36.8 c0.2-0.3,0.3-0.7,0.4-1c-9.4,11.4-20.5,20.7-33.4,27.8c-4.2,4.5-8.4,9.2-12.1,14.1c-1,2.1-1.9,4.2-3.2,6.2 c-4.4,7-6.9,15.2-6.1,23.5c0.2,2,0.8,3.6,1.5,5.4c0.4,1,0.6,2,0.9,2.9c0.3,0.9,0.8,1.7,1.2,2.5c0.9,1.6,2.3,2.9,3.6,4.3 c1.3,1.4,3.2,1.9,4.9,2.7c0.1,0,0.2,0.1,0.3,0.2c0.9,0.1,1.6,1.1,1.6,2c0,1.2-0.9,1.9-2,2c-4.7,0.5-8.1-3.9-10.9-7 c-3.2-3.4-6.2-7-7.1-11.6c-0.2-1.1-0.4-2.3-0.7-3.4c-0.2-0.8-0.5-1.7-0.7-2.5c-3.8-2.1-7.8-3.9-12-5c-4-1.1-8.6-1.5-12.3,0.5 c-3.2,1.7-5.1,5-6.2,8.4c-0.1,0.1-0.1,0.3-0.1,0.4c-0.4,1.2-0.6,2.4-0.8,3.6c-0.8,6,0.7,11.9,3.8,17.1c6.2,10.4,17.7,17,29.5,18.9 c2.2,0.4,3.7,0.5,5.6,0c0,0,0,0,0,0c0.4-0.3,0.9-0.5,1.3-0.4c2.2-0.9,4.4-1.9,6.6-2.8c2-0.7,4.1-1.3,6.1-0.2c1.9,1,3.4,2.8,4.8,4.4 c1.7,1.9,3.3,4,4.9,6c1.6,1.9,3.4,3.6,5.3,5.2c0.5,0.4,1,0.8,1.4,1.2c0.2,0.1,0.3,0.1,0.5,0.2c0.4,0.2,0.7,0.5,0.9,0.9 c4.6,3.6,9.4,6.8,14.8,9C175.2,233.7,188.1,234.9,200.5,233.9z M121.5,316.8c-1.8-7-1.9-14.9-2-22.1c-0.1-7.4,0.5-14.7,1.5-22 c-2.6,0.6-5.2,1.2-7.7,2.1c0.2,14.2,0.6,28.5-0.2,42.7c0,0,0.1,0,0.1-0.1c1.6-0.8,3.3-0.9,5.1-0.6c0.3,0.1,0.5,0.1,0.7,0.3 c0,0,0.1,0,0.2,0C119.9,317,120.7,316.9,121.5,316.8z M226.4,267.8c0.3-0.7,0.6-1.5,0.9-2.3c-0.5-0.5-1-1-1.4-1.5 c-0.7-0.7-0.7-1.5-0.5-2.2c-1.5-2.6-2.5-5.5-3.2-8.4c0,0-0.1,0-0.1,0c-0.1-0.7-0.2-1.4-0.3-2c0-0.2-0.1-0.4-0.1-0.5 c0-0.2,0-0.3-0.1-0.5c-0.1-0.7-0.2-1.3-0.2-2c-0.2-2-0.3-4.1-0.2-6.1c0.1-2.5,0.2-5.4,1-8c-4.2,1.2-8.8,2.2-13.8,2.8 c-17.3,2.3-32.1-0.2-42.6-3.1c2.6,5.1,3.1,10.5,2.5,16.1c0,0,0,0,0,0c0,0.7-0.1,1.3-0.1,2c0.5-0.4,1.3-0.3,1.5,0.4 c0.7,2.5-0.9,5.6-2.3,7.8c-0.4,0.7-0.9,1.4-1.5,2c-0.3,0.5-0.5,0.9-0.9,1.4c0.1-0.2,0.2-0.5,0.3-0.8c-0.5,0.5-1,1.1-1.6,1.6 c0.1,0.1,0.2,0.1,0.3,0.2c0,0,0,0.1,0.1,0.1c0,0-0.1,0.1-0.1,0.1c-2.1,2.2-4.9,3.6-7.9,4c-0.1,0-0.2,0-0.3,0 c-2.8,0.6-5.6,1-8.5,1.2c-6.6,0.5-13.2,0.6-19.8,1.5c-1.2,0.2-2.3,0.4-3.5,0.6c0,0,0,0.1,0,0.1c-0.6,7.5-0.7,15-0.5,22.5 c0.2,7.2,1.6,14.3,2,21.5c14.2-2.1,28.1-5.4,41.7-9.9c15.7-5.1,31-11.8,45.4-19.9c6.6-3.7,15.2-9.8,13.8-18.4 C226.7,268,226.5,267.9,226.4,267.8z M212,255.7c-2.6,0-2.6,4,0,4C214.6,259.7,214.6,255.7,212,255.7z M198.2,258 C198.2,258,198.2,258,198.2,258c0-0.1,0-0.2-0.1-0.2C198.1,257.8,198.1,257.8,198.2,258L198.2,258z M194.5,259.6 C194.5,259.6,194.5,259.6,194.5,259.6C194.4,259.3,194.4,259.5,194.5,259.6z M196,260.5C196,260.5,196,260.5,196,260.5 C196,260.5,196.1,260.5,196,260.5c0.1,0,0.2,0,0.2,0C196.3,260.5,196.2,260.5,196,260.5z M173.9,254.8c-2.6,0-2.6,4,0,4 C176.4,258.8,176.4,254.8,173.9,254.8z M256.8,172.2c2.6,0,2.6-4,0-4C254.2,168.2,254.2,172.2,256.8,172.2z M267,178.8 c2.6,0,2.6-4,0-4C264.4,174.8,264.4,178.8,267,178.8z M261.9,163.4c2.6,0,2.6-4,0-4C259.3,159.4,259.3,163.4,261.9,163.4z M254.6,183.9c2.6,0,2.6-4,0-4C252,179.9,252,183.9,254.6,183.9z M32.6,334.5c-0.2-0.2-0.4-0.3-0.6-0.4c-0.2-0.1-0.5-0.2-0.8-0.2 h-1c-0.4,0-0.7,0.1-1,0.3c-0.1,0.1-0.3,0.2-0.4,0.3c-0.2,0.2-0.4,0.5-0.5,0.9c0,0.2,0,0.4-0.1,0.5c0,0.3,0,0.5,0.2,0.8 c0.1,0.2,0.2,0.5,0.4,0.6c0.2,0.2,0.4,0.3,0.6,0.4c0.2,0.1,0.5,0.2,0.8,0.2h1c0.4,0,0.7-0.1,1-0.3c0.1-0.1,0.3-0.2,0.4-0.3 c0.2-0.2,0.4-0.5,0.5-0.9l0.1-0.5c0-0.3,0-0.5-0.2-0.8C32.9,334.9,32.8,334.7,32.6,334.5z M18.5,331c-2.6,0-2.6,4,0,4 C21.1,335,21.1,331,18.5,331z M31.1,311c3.4-1.8,1.3-7,0.4-9.8c-2.3-7-5.9-13.5-10.6-19.2c-1.6-2-4.5,0.9-2.8,2.8 c4.8,5.7,8.3,12.5,10.3,19.7c0.1,0.4,0.2,0.8,0.3,1.2c0.1,0.2,0.1,0.8,0.2,1.2c-1.2-1-2.1-2.2-3-3.4c-2.7-3.5-5.4-7-8-10.6 c-0.6-0.9-1.7-1.3-2.7-0.7c-0.9,0.5-1.3,1.8-0.7,2.7c3.3,5.3,5.1,11.1,5.7,17.3c0.1,0.6,0.1,0.4-0.5,0.4c-0.5,0-0.9-0.1-1.4-0.3 c-1-0.4-1.8-1.1-2.4-1.9c-1.5-1.7-2.4-3.9-3.3-6c-0.4-1-1.3-1.7-2.5-1.4c-1,0.3-1.8,1.5-1.4,2.5c1.2,3,2.6,6.2,5,8.5 c2.1,2.1,6.6,4.1,9.2,1.6c1.4-1.4,1.3-3.3,1-5.1c-0.1-1.2-0.3-2.4-0.6-3.7C25,309,27.8,312.7,31.1,311z M247.2,164.1 c2.6,0,2.6-4,0-4C244.7,160.1,244.7,164.1,247.2,164.1z M147.6,180.7c-2.6,0-2.6,4,0,4S150.1,180.7,147.6,180.7z M242.1,175.1 c2.6,0,2.6-4,0-4C239.5,171.1,239.5,175.1,242.1,175.1z M158.7,173.3c-2.6,0-2.6,4,0,4C161.3,177.3,161.3,173.3,158.7,173.3z M104.3,175.1c-1-0.2-2-0.2-3-0.2c-1,0-1.9,0.1-2.9,0.2c-1.8,0.3-3.2,0.9-4.7,1.8c-0.1,0.1-0.2,0.2-0.4,0.2c0,0,0,0,0,0 c0,0,0,0,0,0c-0.1,0-0.2,0.1-0.2,0.1c-0.4,0.1-0.7,0.2-1,0.4c-1,0.5-1.5,1.5-1.5,2.5c-0.1,1.1,1,2,2,2c0.8,0,1.5-0.5,1.8-1.1 c0,0,0.1,0,0.1,0c0.7-0.2,1.3-0.6,1.9-1c0.9-0.6,2.2-0.9,3.1-1c0.7-0.1,1.4-0.1,2-0.1c0.6,0,1.3-0.1,1.8,0c0.3,0.1,0.6,0.2,0.8,0.3 c0.1,0.1,0.3,0.1,0.5,0.2c0,0,0,0,0,0c0,0,0.1,0,0.1,0c0.6,0.3,0.8,0.4,1.1,0.8c0.7,0.9,2.1,0.7,2.8,0c0.8-0.8,0.7-2,0-2.8 C107.7,176.2,105.8,175.4,104.3,175.1z M157.8,185.3c-2.6,0-2.6,4,0,4C160.4,189.3,160.4,185.3,157.8,185.3z M149.4,167.5 c-2.6,0-2.6,4,0,4C152,171.5,152,167.5,149.4,167.5z M228.3,157.6c0.1,0.3,0.2,0.6,0.3,0.9c0,0,0,0.1,0,0.1 c0.4,1.1,1.2,1.9,2.4,1.9c0.9,0,1.7-0.6,1.9-1.5c0.5-1.5,0.6-3,0.4-4.5c-0.1-0.3-0.1-0.6-0.2-0.9c0-0.1,0-0.3,0-0.4 c0-0.9-0.7-1.9-1.7-2c-0.6-0.3-1.4-0.4-2,0c-0.6,0.4-0.9,0.9-1.2,1.5c-0.1,0.4-0.2,0.8-0.2,1.2c0,0.5,0,1,0.1,1.5 C228.2,156.1,228.2,156.8,228.3,157.6z M211.4,193.1c0.9-0.2,1.8-0.5,2.6-0.9c0.8-0.4,1.6-0.7,2.3-1.2c0.7-0.5,1.3-1.1,2-1.7 c0.8-0.6,1.3-1.2,1.6-2.1c0.4-1-0.4-2.2-1.4-2.5c-1.1-0.3-2.1,0.4-2.5,1.4c0.2-0.4,0.1-0.2-0.2,0c-0.2,0.2-0.4,0.3-0.6,0.5 c-0.4,0.4-0.8,0.8-1.3,1.1c-1,0.7-2.3,1.3-3.5,1.5c-1.2,0.2-2.2,0-3.2-0.2c-1.1-0.3-2-0.7-2.7-1.5c-1.8-1.8-4.6,1-2.8,2.8 C204.1,192.8,208,193.7,211.4,193.1z M207.2,174.3c0,0.6,0,1.2,0,1.8c0,1.1,0.9,2.1,2,2c1.1,0,2-0.9,2-2c0-0.7,0.1-1.3,0-2 c-0.1-0.7-0.3-1.3-0.4-1.9c-0.1-1.1,0-2.2,0.1-3.3c0-1-0.9-2-2-2c-1.1,0-2,0.9-2,2c0,0.9-0.1,1.8-0.1,2.7c0,0.6,0.1,1.1,0.2,1.7 C207,173.6,207.1,173.9,207.2,174.3z" style="fill: inherit;"/>
        </g>
    </g>
</svg>
