<svg size="24" role="presentation" aria-hidden="true" focusable="false" width="24" height="24" viewBox="0 0 24 24" fill="none" xmlns="http://www.w3.org/2000/svg"><path d="M17.5 22C18.3284 22 19 21.3284 19 20.5C19 19.6716 18.3284 19 17.5 19C16.6716 19 16 19.6716 16 20.5C16 21.3284 16.6716 22 17.5 22Z" fill="var(--color-white)"></path><path d="M8.5 22C9.32843 22 10 21.3284 10 20.5C10 19.6716 9.32843 19 8.5 19C7.67157 19 7 19.6716 7 20.5C7 21.3284 7.67157 22 8.5 22Z" fill="var(--color-white)"></path><path d="M19.25 17.2498H6.71C6.59 17.2498 6.49 17.1598 6.46 17.0498L3.79 2.95978C3.77 2.83978 3.66 2.75977 3.54 2.75977H1.75" stroke="var(--color-white)" stroke-width="1.5" stroke-miterlimit="10" stroke-linecap="round"></path><path d="M6.25 13.25H20.03C20.16 13.25 20.26 13.16 20.28 13.03L21.21 6.03C21.23 5.88 21.11 5.75 20.96 5.75H5" stroke="var(--color-white)" stroke-width="1.5" stroke-miterlimit="10" stroke-linecap="round"></path></svg>